SplineFontDB: 3.0
FontName: Asap-Regular
FullName: Asap
FamilyName: Asap
Weight: Book
Copyright: Copyright (c) 2011 by Omnibus-Type (www.omnibus-type.com) with Reserved Font Name "Asap".
Version: 1.001
ItalicAngle: 0
UnderlinePosition: -23
UnderlineWidth: 70
Ascent: 800
Descent: 200
sfntRevision: 0x00010042
LayerCount: 2
Layer: 0 1 "Back"  1
Layer: 1 1 "Fore"  0
XUID: [1021 879 592712037 1598019]
FSType: 0
OS2Version: 2
OS2_WeightWidthSlopeOnly: 0
OS2_UseTypoMetrics: 1
CreationTime: 1326988598
ModificationTime: 1326994452
PfmFamily: 17
TTFWeight: 400
TTFWidth: 5
LineGap: 0
VLineGap: 0
Panose: 2 0 5 6 4 0 0 2 0 4
OS2TypoAscent: 134
OS2TypoAOffset: 1
OS2TypoDescent: -12
OS2TypoDOffset: 1
OS2TypoLinegap: 0
OS2WinAscent: 2
OS2WinAOffset: 1
OS2WinDescent: 0
OS2WinDOffset: 1
HheadAscent: 2
HheadAOffset: 1
HheadDescent: 0
HheadDOffset: 1
OS2SubXSize: 650
OS2SubYSize: 600
OS2SubXOff: 0
OS2SubYOff: 75
OS2SupXSize: 650
OS2SupYSize: 600
OS2SupXOff: 0
OS2SupYOff: 350
OS2StrikeYSize: 70
OS2StrikeYPos: 313
OS2CodePages: 20000001.00000000
OS2UnicodeRanges: 00000003.00000000.00000000.00000000
DEI: 91125
TtTable: prep
PUSHW_1
 511
SCANCTRL
PUSHB_1
 4
SCANTYPE
EndTTInstrs
ShortTable: maxp 16
  1
  0
  252
  89
  7
  0
  0
  2
  0
  1
  1
  0
  64
  0
  0
  0
EndShort
LangName: 1033 "" "" "" "Omnibus-Type: Asap: 2011" "" "Version 1.001" "" "Asap is a trademark of Omnibus-Type." "Omnibus-Type" "Pablo Cosgaya" "Asap is based on Ancha (designed by Pablo Cosgaya & Hector Gatti). This family, specially developed for screen and desktop use, offers of a standarised character width on all styles, which helps retain the same length on all text lines." "www.omnibus-type.com" "www.omnibus-type.com" "This Font Software is licensed under the SIL Open Font License, Version 1.1. This license is available with a FAQ at: http://scripts.sil.org/OFL" "http://scripts.sil.org/OFL" 
GaspTable: 1 65535 15 1
Encoding: UnicodeBmp
UnicodeInterp: none
NameList: Adobe Glyph List
DisplaySize: -24
AntiAlias: 1

StartChar: exclam
Encoding: 33 33 4
Width: 294
GlyphClass: 2
Flags: W
LayerCount: 2
Fore
SplineSet
142 202 m 2,0,1
 112 202 112 202 112 224 c 2,2,-1
 112 680 l 2,3,4
 112 702 112 702 152 702 c 2,5,-1
 172 702 l 2,6,7
 211 702 211 702 211 680 c 1,8,-1
 184 224 l 2,9,10
 182 202 182 202 153 202 c 2,11,-1
 142 202 l 2,0,1
100 20 m 2,12,-1
 100 86 l 2,13,14
 100 108 100 108 140 108 c 2,15,-1
 157 108 l 2,16,17
 197 108 197 108 197 86 c 2,18,-1
 197 20 l 2,19,20
 197 -2 197 -2 157 -2 c 2,21,-1
 140 -2 l 2,22,23
 100 -2 100 -2 100 20 c 2,12,-1
EndSplineSet
EndChar

StartChar: quotedbl
Encoding: 34 34 5
Width: 319
GlyphClass: 2
Flags: W
LayerCount: 2
Fore
SplineSet
245 484 m 1,0,1
 242 472 242 472 222.5 472 c 128,-1,2
 203 472 203 472 200 484 c 1,3,-1
 178 668 l 1,4,-1
 178 680 l 2,5,6
 178 702 178 702 218 702 c 2,7,-1
 228 702 l 2,8,9
 268 702 268 702 268 680 c 2,10,-1
 268 666 l 1,11,-1
 245 484 l 1,0,1
117 484 m 1,12,13
 114 472 114 472 94.5 472 c 128,-1,14
 75 472 75 472 72 484 c 1,15,-1
 50 668 l 1,16,-1
 50 680 l 2,17,18
 50 702 50 702 90 702 c 2,19,-1
 100 702 l 2,20,21
 140 702 140 702 140 680 c 2,22,-1
 140 666 l 1,23,-1
 117 484 l 1,12,13
EndSplineSet
EndChar

StartChar: numbersign
Encoding: 35 35 6
Width: 534
GlyphClass: 2
Flags: W
LayerCount: 2
Fore
SplineSet
33 196 m 2,0,1
 13 196 13 196 13 226 c 2,2,-1
 13 243 l 2,3,4
 13 273 13 273 33 273 c 2,5,-1
 124 273 l 1,6,-1
 150 420 l 1,7,-1
 69 420 l 2,8,9
 49 420 49 420 49 450 c 2,10,-1
 49 467 l 2,11,12
 49 497 49 497 69 497 c 2,13,-1
 163 497 l 1,14,-1
 194 664 l 2,15,16
 195 672 195 672 198 676 c 0,17,18
 206 686 206 686 238 686 c 2,19,-1
 242 686 l 2,20,21
 270 686 270 686 270 671 c 1,22,-1
 237 497 l 1,23,-1
 356 497 l 1,24,-1
 386 664 l 2,25,26
 387 672 387 672 390 676 c 0,27,28
 398 686 398 686 430 686 c 2,29,-1
 435 686 l 2,30,31
 463 686 463 686 463 671 c 1,32,-1
 432 497 l 1,33,-1
 500 497 l 2,34,35
 520 497 520 497 520 467 c 2,36,-1
 520 450 l 2,37,38
 520 420 520 420 500 420 c 2,39,-1
 417 420 l 1,40,-1
 392 273 l 1,41,-1
 468 273 l 2,42,43
 488 273 488 273 488 243 c 2,44,-1
 488 226 l 2,45,46
 488 196 488 196 468 196 c 2,47,-1
 376 196 l 1,48,-1
 345 20 l 2,49,50
 342 8 342 8 334 3 c 128,-1,51
 326 -2 326 -2 302 -2 c 2,52,-1
 298 -2 l 2,53,54
 270 -2 270 -2 270 15 c 1,55,-1
 302 196 l 1,56,-1
 184 196 l 1,57,-1
 152 20 l 2,58,59
 150 12 150 12 148 8 c 0,60,61
 141 -2 141 -2 109 -2 c 2,62,-1
 105 -2 l 2,63,64
 77 -2 77 -2 77 15 c 1,65,-1
 109 196 l 1,66,-1
 33 196 l 2,0,1
199 273 m 1,67,-1
 317 273 l 1,68,-1
 343 420 l 1,69,-1
 225 420 l 1,70,-1
 199 273 l 1,67,-1
EndSplineSet
EndChar

StartChar: dollar
Encoding: 36 36 7
Width: 496
GlyphClass: 2
Flags: W
LayerCount: 2
Fore
SplineSet
35 67 m 0,0,1
 35 79 35 79 48.5 100 c 128,-1,2
 62 121 62 121 70 121 c 0,3,4
 73 121 73 121 94 108 c 128,-1,5
 115 95 115 95 152.5 81 c 128,-1,6
 190 67 190 67 233 66 c 1,7,-1
 233 324 l 1,8,9
 195 339 195 339 178.5 346 c 128,-1,10
 162 353 162 353 131.5 371 c 128,-1,11
 101 389 101 389 86 407 c 0,12,13
 48 455 48 455 48 525 c 128,-1,14
 48 595 48 595 98 643 c 128,-1,15
 148 691 148 691 233 700 c 1,16,-1
 233 742 l 2,17,18
 233 758 233 758 253 758 c 128,-1,19
 273 758 273 758 273 742 c 2,20,-1
 273 702 l 1,21,22
 323 701 323 701 377 684.5 c 128,-1,23
 431 668 431 668 431 645 c 0,24,25
 431 634 431 634 418.5 613 c 128,-1,26
 406 592 406 592 400 592 c 128,-1,27
 394 592 394 592 378 601 c 0,28,29
 329 628 329 628 273 630 c 1,30,-1
 273 397 l 1,31,32
 319 381 319 381 342.5 370 c 128,-1,33
 366 359 366 359 400 335 c 0,34,35
 464 289 464 289 464 197.5 c 128,-1,36
 464 106 464 106 413 54.5 c 128,-1,37
 362 3 362 3 273 -5 c 1,38,-1
 273 -55 l 2,39,40
 273 -71 273 -71 253 -71 c 128,-1,41
 233 -71 233 -71 233 -55 c 2,42,-1
 233 -6 l 1,43,44
 154 -4 154 -4 94.5 20.5 c 128,-1,45
 35 45 35 45 35 67 c 0,0,1
164 591.5 m 128,-1,47
 139 564 139 564 139 521.5 c 128,-1,48
 139 479 139 479 163 455 c 128,-1,49
 187 431 187 431 233 412 c 1,50,-1
 233 627 l 1,51,46
 189 619 189 619 164 591.5 c 128,-1,47
345.5 110 m 128,-1,53
 373 143 373 143 373 188.5 c 128,-1,54
 373 234 373 234 347 260.5 c 128,-1,55
 321 287 321 287 273 308 c 1,56,-1
 273 69 l 1,57,52
 318 77 318 77 345.5 110 c 128,-1,53
EndSplineSet
EndChar

StartChar: percent
Encoding: 37 37 8
Width: 765
GlyphClass: 2
Flags: W
LayerCount: 2
Fore
SplineSet
161 2 m 0,0,1
 161 7 161 7 165 12 c 1,2,-1
 538 687 l 2,3,4
 548 706 548 706 578 706 c 2,5,-1
 583 706 l 2,6,7
 607 706 607 706 607 697 c 0,8,9
 607 695 607 695 603 687 c 2,10,-1
 230 12 l 2,11,12
 220 -7 220 -7 190 -7 c 2,13,-1
 185 -7 l 2,14,15
 161 -7 161 -7 161 2 c 0,0,1
197 381 m 0,16,17
 60 381 60 381 60 543.5 c 128,-1,18
 60 706 60 706 197 706 c 0,19,20
 254 706 254 706 294 669.5 c 128,-1,21
 334 633 334 633 334 542.5 c 128,-1,22
 334 452 334 452 294 416.5 c 128,-1,23
 254 381 254 381 197 381 c 0,16,17
197 436 m 0,24,25
 270 436 270 436 270 542 c 0,26,27
 270 621 270 621 237 642 c 0,28,29
 221 652 221 652 197.5 652 c 128,-1,30
 174 652 174 652 158.5 642 c 128,-1,31
 143 632 143 632 136 614 c 0,32,33
 126 585 126 585 126 549 c 128,-1,34
 126 513 126 513 129.5 492.5 c 128,-1,35
 133 472 133 472 150 454 c 128,-1,36
 167 436 167 436 197 436 c 0,24,25
568 -5 m 0,37,38
 431 -5 431 -5 431 157.5 c 128,-1,39
 431 320 431 320 568 320 c 0,40,41
 625 320 625 320 665 283.5 c 128,-1,42
 705 247 705 247 705 156.5 c 128,-1,43
 705 66 705 66 665 30.5 c 128,-1,44
 625 -5 625 -5 568 -5 c 0,37,38
499 194 m 128,-1,46
 497 178 497 178 497 152.5 c 128,-1,47
 497 127 497 127 500.5 106.5 c 128,-1,48
 504 86 504 86 521 68 c 128,-1,49
 538 50 538 50 568 50 c 0,50,51
 641 50 641 50 641 156 c 0,52,53
 641 235 641 235 608 256 c 0,54,55
 592 266 592 266 568.5 266 c 128,-1,56
 545 266 545 266 529.5 256 c 128,-1,57
 514 246 514 246 507.5 228 c 128,-1,45
 501 210 501 210 499 194 c 128,-1,46
EndSplineSet
EndChar

StartChar: ampersand
Encoding: 38 38 9
Width: 624
GlyphClass: 2
Flags: W
LayerCount: 2
Fore
SplineSet
50 212 m 0,0,1
 50 276 50 276 88 325 c 128,-1,2
 126 374 126 374 176 387 c 1,3,-1
 176 391 l 1,4,5
 131 409 131 409 102 447 c 128,-1,6
 73 485 73 485 73 538 c 0,7,8
 73 620 73 620 128.5 663 c 128,-1,9
 184 706 184 706 272 706 c 128,-1,10
 360 706 360 706 360 674 c 0,11,12
 360 665 360 665 354 645 c 128,-1,13
 348 625 348 625 338 625 c 0,14,15
 337 625 337 625 316.5 629.5 c 128,-1,16
 296 634 296 634 268 634 c 128,-1,17
 240 634 240 634 214.5 623.5 c 128,-1,18
 189 613 189 613 178 595 c 0,19,20
 157 563 157 563 157 523.5 c 128,-1,21
 157 484 157 484 191 446 c 128,-1,22
 225 408 225 408 291 408 c 2,23,-1
 409 408 l 1,24,-1
 421 513 l 2,25,26
 423 535 423 535 453 535 c 2,27,-1
 463 535 l 2,28,29
 493 535 493 535 493 513 c 2,30,-1
 493 408 l 1,31,-1
 577 408 l 2,32,33
 597 408 597 408 597 378 c 2,34,-1
 597 366 l 2,35,36
 597 336 597 336 577 336 c 2,37,-1
 493 336 l 1,38,-1
 493 140 l 2,39,40
 493 66 493 66 547 66 c 0,41,42
 564 66 564 66 576 68.5 c 128,-1,43
 588 71 588 71 590 71 c 0,44,45
 599 71 599 71 605 52.5 c 128,-1,46
 611 34 611 34 611 24 c 0,47,48
 611 -6 611 -6 540.5 -6 c 128,-1,49
 470 -6 470 -6 436 37 c 1,50,51
 365 -6 365 -6 273 -6 c 0,52,53
 191 -6 191 -6 124 40 c 1,54,55
 50 93 50 93 50 212 c 0,0,1
137 204 m 0,56,57
 137 153 137 153 161.5 120.5 c 128,-1,58
 186 88 186 88 216.5 77 c 128,-1,59
 247 66 247 66 281 66 c 0,60,61
 344 66 344 66 411 103 c 1,62,63
 409 121 409 121 409 132 c 2,64,-1
 409 336 l 1,65,-1
 287 336 l 2,66,67
 214 336 214 336 175.5 306 c 128,-1,68
 137 276 137 276 137 204 c 0,56,57
EndSplineSet
EndChar

StartChar: quotesingle
Encoding: 39 39 10
Width: 183
GlyphClass: 2
Flags: W
LayerCount: 2
Fore
SplineSet
117 484 m 1,0,1
 114 472 114 472 94.5 472 c 128,-1,2
 75 472 75 472 72 484 c 1,3,-1
 50 668 l 1,4,-1
 50 680 l 2,5,6
 50 702 50 702 90 702 c 2,7,-1
 100 702 l 2,8,9
 140 702 140 702 140 680 c 2,10,-1
 140 666 l 1,11,-1
 117 484 l 1,0,1
EndSplineSet
EndChar

StartChar: parenleft
Encoding: 40 40 11
Width: 301
GlyphClass: 2
Flags: W
LayerCount: 2
Fore
SplineSet
55 286 m 128,-1,1
 55 437 55 437 104.5 566 c 128,-1,2
 154 695 154 695 239 773 c 0,3,4
 249 783 249 783 259.5 783 c 128,-1,5
 270 783 270 783 280 775.5 c 128,-1,6
 290 768 290 768 290 758 c 128,-1,7
 290 748 290 748 281 736 c 0,8,9
 213 656 213 656 174.5 538.5 c 128,-1,10
 136 421 136 421 136 286.5 c 128,-1,11
 136 152 136 152 174.5 34.5 c 128,-1,12
 213 -83 213 -83 280 -164 c 0,13,14
 289 -174 289 -174 289 -183 c 128,-1,15
 289 -192 289 -192 280 -202 c 128,-1,16
 271 -212 271 -212 260.5 -212 c 128,-1,17
 250 -212 250 -212 239 -201 c 0,18,19
 154 -123 154 -123 104.5 6 c 128,-1,0
 55 135 55 135 55 286 c 128,-1,1
EndSplineSet
EndChar

StartChar: parenright
Encoding: 41 41 12
Width: 301
GlyphClass: 2
Flags: W
LayerCount: 2
Fore
SplineSet
125 29.5 m 128,-1,1
 165 149 165 149 165 284.5 c 128,-1,2
 165 420 165 420 126.5 537.5 c 128,-1,3
 88 655 88 655 21 736 c 0,4,5
 12 746 12 746 12 755 c 128,-1,6
 12 764 12 764 21 774 c 128,-1,7
 30 784 30 784 40.5 784 c 128,-1,8
 51 784 51 784 62 773 c 0,9,10
 147 695 147 695 196.5 566 c 128,-1,11
 246 437 246 437 246 286 c 128,-1,12
 246 135 246 135 196.5 6 c 128,-1,13
 147 -123 147 -123 62 -201 c 0,14,15
 52 -211 52 -211 41 -211 c 128,-1,16
 30 -211 30 -211 19.5 -202.5 c 128,-1,17
 9 -194 9 -194 9 -186.5 c 128,-1,18
 9 -179 9 -179 16 -170 c 0,19,0
 85 -90 85 -90 125 29.5 c 128,-1,1
EndSplineSet
EndChar

StartChar: asterisk
Encoding: 42 42 13
Width: 373
GlyphClass: 2
Flags: W
LayerCount: 2
Fore
SplineSet
108 423 m 1,0,1
 100 414 100 414 93 414 c 128,-1,2
 86 414 86 414 78.5 419.5 c 128,-1,3
 71 425 71 425 71 433 c 128,-1,4
 71 441 71 441 76 447 c 2,5,-1
 147 546 l 1,6,-1
 49 578 l 2,7,8
 35 582 35 582 35 593 c 128,-1,9
 35 604 35 604 40.5 610.5 c 128,-1,10
 46 617 46 617 52.5 617 c 128,-1,11
 59 617 59 617 62 616 c 2,12,-1
 161 584 l 1,13,-1
 161 689 l 2,14,15
 161 709 161 709 181 709 c 128,-1,16
 201 709 201 709 201 689 c 2,17,-1
 201 584 l 1,18,-1
 300 616 l 2,19,20
 303 617 303 617 309.5 617 c 128,-1,21
 316 617 316 617 321.5 610.5 c 128,-1,22
 327 604 327 604 327 593 c 128,-1,23
 327 582 327 582 313 578 c 2,24,-1
 214 546 l 1,25,-1
 286 447 l 2,26,27
 291 439 291 439 291 433 c 128,-1,28
 291 427 291 427 283.5 420.5 c 128,-1,29
 276 414 276 414 268 414 c 128,-1,30
 260 414 260 414 254 423 c 2,31,-1
 181 524 l 1,32,-1
 108 423 l 1,0,1
EndSplineSet
EndChar

StartChar: plus
Encoding: 43 43 14
Width: 560
GlyphClass: 2
Flags: W
LayerCount: 2
Fore
SplineSet
68 197 m 2,0,1
 57 197 57 197 52.5 202.5 c 128,-1,2
 48 208 48 208 48 223 c 2,3,-1
 48 230 l 2,4,5
 48 264 48 264 68 264 c 2,6,-1
 247 264 l 1,7,-1
 247 443 l 2,8,9
 247 463 247 463 277 463 c 2,10,-1
 284 463 l 2,11,12
 314 463 314 463 314 443 c 2,13,-1
 314 264 l 1,14,-1
 492 264 l 2,15,16
 512 264 512 264 512 234 c 2,17,-1
 512 227 l 2,18,19
 512 197 512 197 492 197 c 2,20,-1
 314 197 l 1,21,-1
 314 18 l 2,22,23
 314 -2 314 -2 284 -2 c 2,24,-1
 277 -2 l 2,25,26
 247 -2 247 -2 247 18 c 2,27,-1
 247 197 l 1,28,-1
 68 197 l 2,0,1
EndSplineSet
EndChar

StartChar: comma
Encoding: 44 44 15
Width: 198
GlyphClass: 2
Flags: W
LayerCount: 2
Fore
SplineSet
55 76 m 0,0,1
 55 108 55 108 95 108 c 2,2,-1
 104 108 l 2,3,4
 144 108 144 108 144 80 c 0,5,6
 144 -1 144 -1 107.5 -58.5 c 128,-1,7
 71 -116 71 -116 41.5 -116 c 128,-1,8
 12 -116 12 -116 12 -101 c 0,9,10
 12 -95 12 -95 21 -77 c 0,11,12
 55 -9 55 -9 55 76 c 0,0,1
EndSplineSet
EndChar

StartChar: hyphen
Encoding: 45 45 16
Width: 320
GlyphClass: 2
Flags: W
LayerCount: 2
Fore
SplineSet
64 230 m 2,0,1
 44 230 44 230 44 260 c 2,2,-1
 44 270 l 2,3,4
 44 300 44 300 64 300 c 2,5,-1
 253 300 l 2,6,7
 273 300 273 300 273 270 c 2,8,-1
 273 260 l 2,9,10
 273 230 273 230 253 230 c 2,11,-1
 64 230 l 2,0,1
EndSplineSet
EndChar

StartChar: period
Encoding: 46 46 17
Width: 198
GlyphClass: 2
Flags: W
LayerCount: 2
Fore
SplineSet
51 20 m 2,0,-1
 51 86 l 2,1,2
 51 108 51 108 91 108 c 2,3,-1
 108 108 l 2,4,5
 148 108 148 108 148 86 c 2,6,-1
 148 20 l 2,7,8
 148 -2 148 -2 108 -2 c 2,9,-1
 91 -2 l 2,10,11
 51 -2 51 -2 51 20 c 2,0,-1
EndSplineSet
EndChar

StartChar: slash
Encoding: 47 47 18
Width: 370
GlyphClass: 2
Flags: W
LayerCount: 2
Fore
SplineSet
338 703 m 2,0,-1
 342 703 l 2,1,2
 366 703 366 703 366 683 c 0,3,4
 366 676 366 676 363 668 c 2,5,-1
 53 -53 l 2,6,7
 43 -76 43 -76 20 -76 c 2,8,-1
 16 -76 l 2,9,10
 -10 -76 -10 -76 -10 -56 c 0,11,12
 -10 -48 -10 -48 -7 -41 c 2,13,-1
 303 680 l 2,14,15
 313 703 313 703 338 703 c 2,0,-1
EndSplineSet
EndChar

StartChar: zero
Encoding: 48 48 19
Width: 535
GlyphClass: 2
Flags: W
LayerCount: 2
Fore
SplineSet
429.5 84 m 128,-1,1
 364 -6 364 -6 266.5 -6 c 128,-1,2
 169 -6 169 -6 104 84 c 128,-1,3
 39 174 39 174 39 350 c 128,-1,4
 39 526 39 526 104 616 c 128,-1,5
 169 706 169 706 266.5 706 c 128,-1,6
 364 706 364 706 429.5 616 c 128,-1,7
 495 526 495 526 495 350 c 128,-1,0
 495 174 495 174 429.5 84 c 128,-1,1
165 135 m 128,-1,9
 206 66 206 66 266.5 66 c 128,-1,10
 327 66 327 66 368.5 135 c 128,-1,11
 410 204 410 204 410 350 c 128,-1,12
 410 496 410 496 368.5 565 c 128,-1,13
 327 634 327 634 266.5 634 c 128,-1,14
 206 634 206 634 165 565 c 128,-1,15
 124 496 124 496 124 350 c 128,-1,8
 124 204 124 204 165 135 c 128,-1,9
EndSplineSet
EndChar

StartChar: one
Encoding: 49 49 20
Width: 535
GlyphClass: 2
Flags: W
LayerCount: 2
Fore
SplineSet
43 30 m 2,0,-1
 43 42 l 2,1,2
 43 72 43 72 63 72 c 2,3,-1
 237 72 l 1,4,-1
 237 611 l 1,5,-1
 60 581 l 1,6,7
 51 581 51 581 45.5 598 c 128,-1,8
 40 615 40 615 40 630.5 c 128,-1,9
 40 646 40 646 58 651 c 1,10,-1
 290 702 l 1,11,12
 302 702 302 702 311.5 696 c 128,-1,13
 321 690 321 690 321 681 c 2,14,-1
 321 72 l 1,15,-1
 469 72 l 2,16,17
 489 72 489 72 489 42 c 2,18,-1
 489 30 l 2,19,20
 489 0 489 0 469 0 c 2,21,-1
 63 0 l 2,22,23
 43 0 43 0 43 30 c 2,0,-1
EndSplineSet
EndChar

StartChar: two
Encoding: 50 50 21
Width: 535
GlyphClass: 2
Flags: W
LayerCount: 2
Fore
SplineSet
57 14 m 128,-1,1
 51 28 51 28 51 42.5 c 128,-1,2
 51 57 51 57 55 61 c 0,3,4
 98 115 98 115 210 254.5 c 128,-1,5
 322 394 322 394 351.5 439 c 128,-1,6
 381 484 381 484 381 531 c 128,-1,7
 381 578 381 578 347.5 606 c 128,-1,8
 314 634 314 634 265 634 c 128,-1,9
 216 634 216 634 182.5 621 c 128,-1,10
 149 608 149 608 130 595.5 c 128,-1,11
 111 583 111 583 105 583 c 128,-1,12
 99 583 99 583 86.5 602.5 c 128,-1,13
 74 622 74 622 74 633 c 0,14,15
 74 662 74 662 137.5 684 c 128,-1,16
 201 706 201 706 254 706 c 0,17,18
 352 706 352 706 409.5 660.5 c 128,-1,19
 467 615 467 615 467 536 c 0,20,21
 467 486 467 486 448.5 444.5 c 128,-1,22
 430 403 430 403 391.5 352 c 128,-1,23
 353 301 353 301 238 160 c 2,24,-1
 165 71 l 1,25,-1
 453 71 l 2,26,27
 473 71 473 71 473 41 c 2,28,-1
 473 30 l 2,29,30
 473 0 473 0 453 0 c 2,31,-1
 71 0 l 2,32,0
 63 0 63 0 57 14 c 128,-1,1
EndSplineSet
EndChar

StartChar: three
Encoding: 51 51 22
Width: 535
GlyphClass: 2
Flags: W
LayerCount: 2
Fore
SplineSet
45 51 m 0,0,1
 45 65 45 65 58 83 c 128,-1,2
 71 101 71 101 80 101 c 0,3,4
 81 101 81 101 133 83.5 c 128,-1,5
 185 66 185 66 228.5 66 c 128,-1,6
 272 66 272 66 302.5 77 c 128,-1,7
 333 88 333 88 357.5 120.5 c 128,-1,8
 382 153 382 153 382 204 c 0,9,10
 382 276 382 276 343.5 306 c 128,-1,11
 305 336 305 336 232 336 c 2,12,-1
 199 336 l 2,13,14
 179 336 179 336 179 366 c 2,15,-1
 179 377 l 2,16,17
 179 407 179 407 199 407 c 2,18,-1
 228 407 l 2,19,20
 297 407 297 407 329 449 c 128,-1,21
 361 491 361 491 361 533 c 128,-1,22
 361 575 361 575 334 604.5 c 128,-1,23
 307 634 307 634 242 634 c 0,24,25
 171 634 171 634 120 610 c 0,26,27
 103 601 103 601 98 601 c 0,28,29
 90 601 90 601 77.5 621 c 128,-1,30
 65 641 65 641 65 653 c 0,31,32
 65 674 65 674 128 690 c 128,-1,33
 191 706 191 706 244 706 c 0,34,35
 336 706 336 706 391 661 c 128,-1,36
 446 616 446 616 446 529 c 0,37,38
 446 480 446 480 416.5 444 c 128,-1,39
 387 408 387 408 343 391 c 1,40,-1
 343 387 l 1,41,42
 393 374 393 374 431 325 c 128,-1,43
 469 276 469 276 469 212 c 128,-1,44
 469 148 469 148 448.5 106 c 128,-1,45
 428 64 428 64 394 40 c 0,46,47
 328 -6 328 -6 245.5 -6 c 128,-1,48
 163 -6 163 -6 104 12.5 c 128,-1,49
 45 31 45 31 45 51 c 0,0,1
EndSplineSet
EndChar

StartChar: four
Encoding: 52 52 23
Width: 535
GlyphClass: 2
Flags: W
LayerCount: 2
Fore
SplineSet
42 167 m 2,0,1
 34 167 34 167 26 185 c 128,-1,2
 18 203 18 203 18 215 c 128,-1,3
 18 227 18 227 20 229 c 2,4,-1
 349 688 l 2,5,6
 360 702 360 702 383 702 c 2,7,-1
 399 702 l 2,8,9
 429 702 429 702 429 680 c 2,10,-1
 429 239 l 1,11,-1
 496 239 l 2,12,13
 516 239 516 239 516 209 c 2,14,-1
 516 197 l 2,15,16
 516 167 516 167 496 167 c 2,17,-1
 429 167 l 1,18,-1
 429 20 l 2,19,20
 429 -2 429 -2 399 -2 c 2,21,-1
 376 -2 l 2,22,23
 346 -2 346 -2 346 20 c 2,24,-1
 346 167 l 1,25,-1
 42 167 l 2,0,1
346 239 m 1,26,-1
 346 557 l 1,27,-1
 342 559 l 1,28,-1
 117 239 l 1,29,-1
 346 239 l 1,26,-1
EndSplineSet
EndChar

StartChar: five
Encoding: 53 53 24
Width: 535
GlyphClass: 2
Flags: W
LayerCount: 2
Fore
SplineSet
47 54 m 0,0,1
 47 68 47 68 60 86 c 128,-1,2
 73 104 73 104 82 104 c 0,3,4
 83 104 83 104 132 85 c 128,-1,5
 181 66 181 66 239.5 66 c 128,-1,6
 298 66 298 66 343 104.5 c 128,-1,7
 388 143 388 143 388 211.5 c 128,-1,8
 388 280 388 280 342 315 c 128,-1,9
 296 350 296 350 208 350 c 2,10,-1
 123 350 l 2,11,12
 107 350 107 350 101 357 c 128,-1,13
 95 364 95 364 95 380 c 2,14,-1
 112 670 l 2,15,16
 113 700 113 700 144 700 c 2,17,-1
 410 700 l 2,18,19
 430 700 430 700 430 670 c 2,20,-1
 430 658 l 2,21,22
 430 628 430 628 410 628 c 2,23,-1
 193 628 l 1,24,-1
 180 422 l 1,25,-1
 232 422 l 2,26,27
 321 422 321 422 393 378 c 0,28,29
 430 356 430 356 452 313.5 c 128,-1,30
 474 271 474 271 474 211 c 128,-1,31
 474 151 474 151 453 106 c 128,-1,32
 432 61 432 61 396 38 c 0,33,34
 328 -6 328 -6 242 -6 c 128,-1,35
 156 -6 156 -6 101.5 13.5 c 128,-1,36
 47 33 47 33 47 54 c 0,0,1
EndSplineSet
EndChar

StartChar: six
Encoding: 54 54 25
Width: 535
GlyphClass: 2
Flags: W
LayerCount: 2
Fore
SplineSet
51 247 m 0,0,1
 51 329 51 329 78.5 404.5 c 128,-1,2
 106 480 106 480 146.5 532.5 c 128,-1,3
 187 585 187 585 233 624.5 c 128,-1,4
 279 664 279 664 316.5 683 c 128,-1,5
 354 702 354 702 372 702 c 128,-1,6
 390 702 390 702 399.5 682 c 128,-1,7
 409 662 409 662 409 651.5 c 128,-1,8
 409 641 409 641 401 638 c 0,9,10
 207 558 207 558 154 372 c 1,11,12
 211 405 211 405 290.5 405 c 128,-1,13
 370 405 370 405 425 349 c 128,-1,14
 480 293 480 293 480 201.5 c 128,-1,15
 480 110 480 110 418.5 52.5 c 128,-1,16
 357 -5 357 -5 258 -5 c 128,-1,17
 159 -5 159 -5 105 60.5 c 128,-1,18
 51 126 51 126 51 247 c 0,0,1
135 239 m 0,19,20
 135 144 135 144 173.5 105.5 c 128,-1,21
 212 67 212 67 264 67 c 128,-1,22
 316 67 316 67 355.5 101.5 c 128,-1,23
 395 136 395 136 395 201.5 c 128,-1,24
 395 267 395 267 357 300 c 128,-1,25
 319 333 319 333 259 333 c 128,-1,26
 199 333 199 333 139 299 c 1,27,28
 135 259 135 259 135 239 c 0,19,20
EndSplineSet
EndChar

StartChar: seven
Encoding: 55 55 26
Width: 535
GlyphClass: 2
Flags: W
LayerCount: 2
Fore
SplineSet
97 16 m 0,0,1
 97 18 97 18 101 28 c 2,2,-1
 390 628 l 1,3,-1
 75 628 l 2,4,5
 55 628 55 628 55 658 c 2,6,-1
 55 670 l 2,7,8
 55 700 55 700 75 700 c 2,9,-1
 470 700 l 2,10,11
 476 700 476 700 483 682 c 128,-1,12
 490 664 490 664 490 654 c 128,-1,13
 490 644 490 644 488 638 c 2,14,-1
 192 14 l 2,15,16
 184 -2 184 -2 152 -2 c 2,17,-1
 140 -2 l 2,18,19
 97 -2 97 -2 97 16 c 0,0,1
EndSplineSet
EndChar

StartChar: eight
Encoding: 56 56 27
Width: 535
GlyphClass: 2
Flags: W
LayerCount: 2
Fore
SplineSet
51 202 m 0,0,1
 51 275 51 275 80 315 c 128,-1,2
 109 355 109 355 162 380 c 1,3,4
 79 429 79 429 79 533 c 0,5,6
 79 615 79 615 132.5 660.5 c 128,-1,7
 186 706 186 706 269 706 c 128,-1,8
 352 706 352 706 406.5 660.5 c 128,-1,9
 461 615 461 615 461 533 c 0,10,11
 461 426 461 426 364 381 c 1,12,13
 421 355 421 355 452.5 316 c 128,-1,14
 484 277 484 277 484 202 c 0,15,16
 484 100 484 100 423.5 47 c 128,-1,17
 363 -6 363 -6 267.5 -6 c 128,-1,18
 172 -6 172 -6 111.5 47 c 128,-1,19
 51 100 51 100 51 202 c 0,0,1
377 533 m 0,20,21
 377 584 377 584 347 609 c 128,-1,22
 317 634 317 634 269.5 634 c 128,-1,23
 222 634 222 634 192.5 609 c 128,-1,24
 163 584 163 584 163 533 c 0,25,26
 163 476 163 476 203 448 c 0,27,28
 233 428 233 428 291 408 c 1,29,30
 377 458 377 458 377 533 c 0,20,21
137 202 m 0,31,32
 137 137 137 137 174 101.5 c 128,-1,33
 211 66 211 66 267 66 c 128,-1,34
 323 66 323 66 360.5 101.5 c 128,-1,35
 398 137 398 137 398 202 c 0,36,37
 398 246 398 246 378 270 c 0,38,39
 367 284 367 284 357.5 293 c 128,-1,40
 348 302 348 302 329 311 c 128,-1,41
 310 320 310 320 298.5 324.5 c 128,-1,42
 287 329 287 329 263 337.5 c 128,-1,43
 239 346 239 346 229 350 c 1,44,45
 137 296 137 296 137 202 c 0,31,32
EndSplineSet
EndChar

StartChar: nine
Encoding: 57 57 28
Width: 535
GlyphClass: 2
Flags: W
LayerCount: 2
Fore
SplineSet
135.5 18 m 128,-1,1
 126 38 126 38 126 48.5 c 128,-1,2
 126 59 126 59 134 62 c 0,3,4
 328 142 328 142 381 328 c 1,5,6
 324 295 324 295 244.5 295 c 128,-1,7
 165 295 165 295 110 351 c 128,-1,8
 55 407 55 407 55 498.5 c 128,-1,9
 55 590 55 590 116.5 647.5 c 128,-1,10
 178 705 178 705 277 705 c 128,-1,11
 376 705 376 705 430 639.5 c 128,-1,12
 484 574 484 574 484 453 c 0,13,14
 484 371 484 371 456.5 295.5 c 128,-1,15
 429 220 429 220 388.5 167.5 c 128,-1,16
 348 115 348 115 302 75.5 c 128,-1,17
 256 36 256 36 218.5 17 c 128,-1,18
 181 -2 181 -2 163 -2 c 128,-1,0
 145 -2 145 -2 135.5 18 c 128,-1,1
178 400 m 128,-1,20
 216 367 216 367 276 367 c 128,-1,21
 336 367 336 367 396 401 c 1,22,23
 400 441 400 441 400 461 c 0,24,25
 400 556 400 556 361.5 594.5 c 128,-1,26
 323 633 323 633 271 633 c 128,-1,27
 219 633 219 633 179.5 598.5 c 128,-1,28
 140 564 140 564 140 498.5 c 128,-1,19
 140 433 140 433 178 400 c 128,-1,20
EndSplineSet
EndChar

StartChar: colon
Encoding: 58 58 29
Width: 198
GlyphClass: 2
Flags: W
LayerCount: 2
Fore
SplineSet
91 415 m 2,0,1
 51 415 51 415 51 437 c 2,2,-1
 51 503 l 2,3,4
 51 525 51 525 91 525 c 2,5,-1
 108 525 l 2,6,7
 148 525 148 525 148 503 c 2,8,-1
 148 437 l 2,9,10
 148 415 148 415 108 415 c 2,11,-1
 91 415 l 2,0,1
51 20 m 2,12,-1
 51 86 l 2,13,14
 51 108 51 108 91 108 c 2,15,-1
 108 108 l 2,16,17
 148 108 148 108 148 86 c 2,18,-1
 148 20 l 2,19,20
 148 -2 148 -2 108 -2 c 2,21,-1
 91 -2 l 2,22,23
 51 -2 51 -2 51 20 c 2,12,-1
EndSplineSet
EndChar

StartChar: semicolon
Encoding: 59 59 30
Width: 198
GlyphClass: 2
Flags: W
LayerCount: 2
Fore
SplineSet
91 415 m 2,0,1
 51 415 51 415 51 437 c 2,2,-1
 51 503 l 2,3,4
 51 525 51 525 91 525 c 2,5,-1
 108 525 l 2,6,7
 148 525 148 525 148 503 c 2,8,-1
 148 437 l 2,9,10
 148 415 148 415 108 415 c 2,11,-1
 91 415 l 2,0,1
55 76 m 0,12,13
 55 108 55 108 95 108 c 2,14,-1
 104 108 l 2,15,16
 144 108 144 108 144 80 c 0,17,18
 144 -1 144 -1 107.5 -58.5 c 128,-1,19
 71 -116 71 -116 41.5 -116 c 128,-1,20
 12 -116 12 -116 12 -101 c 0,21,22
 12 -95 12 -95 21 -77 c 0,23,24
 55 -9 55 -9 55 76 c 0,12,13
EndSplineSet
EndChar

StartChar: less
Encoding: 60 60 31
Width: 560
GlyphClass: 2
Flags: W
LayerCount: 2
Fore
SplineSet
41 219 m 2,0,-1
 41 236 l 2,1,2
 41 260 41 260 66 271 c 2,3,-1
 477 445 l 2,4,5
 484 448 484 448 492 448 c 0,6,7
 513 448 513 448 513 422 c 2,8,-1
 513 408 l 2,9,10
 513 382 513 382 489 373 c 2,11,-1
 133 228 l 1,12,-1
 489 82 l 2,13,14
 513 72 513 72 513 47 c 2,15,-1
 513 33 l 2,16,17
 513 7 513 7 492 7 c 0,18,19
 484 7 484 7 477 10 c 2,20,-1
 66 184 l 2,21,22
 41 195 41 195 41 219 c 2,0,-1
EndSplineSet
EndChar

StartChar: equal
Encoding: 61 61 32
Width: 560
GlyphClass: 2
Flags: W
LayerCount: 2
Fore
SplineSet
78 271 m 2,0,1
 48 271 48 271 48 301 c 2,2,-1
 48 308 l 2,3,4
 48 338 48 338 78 338 c 2,5,-1
 482 338 l 2,6,7
 512 338 512 338 512 308 c 2,8,-1
 512 301 l 2,9,10
 512 271 512 271 482 271 c 2,11,-1
 78 271 l 2,0,1
78 107 m 2,12,13
 48 107 48 107 48 137 c 2,14,-1
 48 145 l 2,15,16
 48 175 48 175 78 175 c 2,17,-1
 482 175 l 2,18,19
 512 175 512 175 512 145 c 2,20,-1
 512 137 l 2,21,22
 512 107 512 107 482 107 c 2,23,-1
 78 107 l 2,12,13
EndSplineSet
EndChar

StartChar: greater
Encoding: 62 62 33
Width: 560
GlyphClass: 2
Flags: W
LayerCount: 2
Fore
SplineSet
46 32 m 2,0,-1
 46 46 l 2,1,2
 46 70 46 70 70 81 c 1,3,-1
 426 227 l 1,4,-1
 70 372 l 2,5,6
 46 381 46 381 46 407 c 2,7,-1
 46 421 l 2,8,9
 46 447 46 447 67 447 c 0,10,11
 74 447 74 447 82 444 c 2,12,-1
 493 270 l 2,13,14
 518 259 518 259 518 235 c 2,15,-1
 518 218 l 2,16,17
 518 194 518 194 493 183 c 2,18,-1
 82 9 l 2,19,20
 74 6 74 6 67 6 c 0,21,22
 46 6 46 6 46 32 c 2,0,-1
EndSplineSet
EndChar

StartChar: question
Encoding: 63 63 34
Width: 445
GlyphClass: 2
Flags: W
LayerCount: 2
Fore
SplineSet
149 225 m 0,0,1
 149 298 149 298 235 384 c 0,2,3
 269 418 269 418 284 434.5 c 128,-1,4
 299 451 299 451 314.5 478 c 128,-1,5
 330 505 330 505 330 528 c 0,6,7
 330 632 330 632 204 632 c 0,8,9
 166 632 166 632 124 615 c 128,-1,10
 82 598 82 598 80 598 c 0,11,12
 73 598 73 598 60.5 618 c 128,-1,13
 48 638 48 638 48 649 c 0,14,15
 48 673 48 673 104 689.5 c 128,-1,16
 160 706 160 706 220 706 c 0,17,18
 316 706 316 706 370.5 657.5 c 128,-1,19
 425 609 425 609 425 538 c 0,20,21
 425 469 425 469 360 402 c 0,22,23
 332 373 332 373 304 346 c 0,24,25
 234 278 234 278 227 222 c 0,26,27
 224 202 224 202 194 202 c 2,28,-1
 179 202 l 2,29,30
 149 202 149 202 149 225 c 0,0,1
136 20 m 2,31,-1
 136 86 l 2,32,33
 136 108 136 108 176 108 c 2,34,-1
 193 108 l 2,35,36
 233 108 233 108 233 86 c 2,37,-1
 233 20 l 2,38,39
 233 -2 233 -2 193 -2 c 2,40,-1
 176 -2 l 2,41,42
 136 -2 136 -2 136 20 c 2,31,-1
EndSplineSet
EndChar

StartChar: at
Encoding: 64 64 35
Width: 974
GlyphClass: 2
Flags: W
LayerCount: 2
Fore
SplineSet
84 237 m 0,0,1
 84 434 84 434 214 569.5 c 128,-1,2
 344 705 344 705 534 705 c 0,3,4
 685 705 685 705 776 616 c 128,-1,5
 867 527 867 527 867 384.5 c 128,-1,6
 867 242 867 242 808 148 c 128,-1,7
 749 54 749 54 657 54 c 0,8,9
 612 54 612 54 586 78 c 128,-1,10
 560 102 560 102 558 137 c 1,11,-1
 558 144 l 1,12,13
 509 54 509 54 423 54 c 0,14,15
 375 54 375 54 330 90 c 0,16,17
 306 108 306 108 292 146 c 128,-1,18
 278 184 278 184 278 236 c 0,19,20
 278 355 278 355 336 430 c 128,-1,21
 394 505 394 505 489 505 c 0,22,23
 553 505 553 505 600 458 c 1,24,25
 609 486 609 486 614 493 c 0,26,27
 620 502 620 502 635 502 c 2,28,-1
 641 502 l 2,29,30
 663 502 663 502 663 481 c 1,31,32
 630 173 630 173 630 149 c 0,33,34
 630 107 630 107 670 107 c 0,35,36
 726 107 726 107 769.5 189.5 c 128,-1,37
 813 272 813 272 813 380 c 0,38,39
 813 507 813 507 736 584 c 128,-1,40
 659 661 659 661 534 661 c 0,41,42
 367 661 367 661 252.5 538 c 128,-1,43
 138 415 138 415 138 237 c 0,44,45
 138 95 138 95 213 6.5 c 128,-1,46
 288 -82 288 -82 410 -82 c 0,47,48
 468 -82 468 -82 514.5 -67.5 c 128,-1,49
 561 -53 561 -53 564 -53 c 0,50,51
 578 -53 578 -53 578 -76 c 0,52,53
 578 -102 578 -102 521.5 -114 c 128,-1,54
 465 -126 465 -126 410 -126 c 0,55,56
 265 -126 265 -126 174.5 -25.5 c 128,-1,57
 84 75 84 75 84 237 c 0,0,1
351 241 m 0,58,59
 351 115 351 115 439 115 c 0,60,61
 473 115 473 115 508 148 c 128,-1,62
 543 181 543 181 568 256 c 1,63,64
 581 390 581 390 587 409 c 1,65,66
 546 443 546 443 495 443 c 0,67,68
 351 443 351 443 351 241 c 0,58,59
EndSplineSet
EndChar

StartChar: A
Encoding: 65 65 36
Width: 613
GlyphClass: 2
Flags: W
LayerCount: 2
Fore
SplineSet
12 15 m 0,0,1
 12 20 12 20 15 29 c 2,2,-1
 252 686 l 2,3,4
 257 702 257 702 292 702 c 2,5,-1
 321 702 l 2,6,7
 356 702 356 702 361 686 c 2,8,-1
 598 28 l 2,9,10
 601 21 601 21 601 15 c 0,11,12
 601 -2 601 -2 558 -2 c 2,13,-1
 550 -2 l 2,14,15
 515 -2 515 -2 510 14 c 2,16,-1
 451 178 l 1,17,-1
 157 178 l 1,18,-1
 100 14 l 2,19,20
 95 -2 95 -2 60 -2 c 2,21,-1
 55 -2 l 2,22,23
 12 -2 12 -2 12 15 c 0,0,1
185 254 m 1,24,-1
 424 254 l 1,25,-1
 319 552 l 1,26,-1
 306 610 l 1,27,-1
 290 552 l 1,28,-1
 185 254 l 1,24,-1
EndSplineSet
EndChar

StartChar: B
Encoding: 66 66 37
Width: 593
GlyphClass: 2
Flags: W
LayerCount: 2
Fore
SplineSet
97 30 m 2,0,-1
 97 670 l 2,1,2
 97 700 97 700 127 700 c 2,3,-1
 306 700 l 2,4,5
 415 700 415 700 472.5 652 c 128,-1,6
 530 604 530 604 530 523 c 0,7,8
 530 473 530 473 497 428 c 128,-1,9
 464 383 464 383 420 371 c 1,10,-1
 420 367 l 1,11,12
 435 365 435 365 464 349 c 128,-1,13
 493 333 493 333 511.5 316.5 c 128,-1,14
 530 300 530 300 545 269 c 128,-1,15
 560 238 560 238 560 201 c 0,16,17
 560 0 560 0 299 0 c 2,18,-1
 127 0 l 2,19,20
 97 0 97 0 97 30 c 2,0,-1
185 398 m 1,21,-1
 301 398 l 2,22,23
 361 398 361 398 400 432 c 128,-1,24
 439 466 439 466 439 518.5 c 128,-1,25
 439 571 439 571 405 597.5 c 128,-1,26
 371 624 371 624 297 624 c 2,27,-1
 185 624 l 1,28,-1
 185 398 l 1,21,-1
185 76 m 1,29,-1
 331 76 l 2,30,31
 397 76 397 76 433 110.5 c 128,-1,32
 469 145 469 145 469 203 c 128,-1,33
 469 261 469 261 429.5 291.5 c 128,-1,34
 390 322 390 322 314 322 c 2,35,-1
 185 322 l 1,36,-1
 185 76 l 1,29,-1
EndSplineSet
EndChar

StartChar: C
Encoding: 67 67 38
Width: 619
GlyphClass: 2
Flags: W
LayerCount: 2
Fore
SplineSet
57 350 m 0,0,1
 57 706 57 706 381 706 c 0,2,3
 453 706 453 706 512.5 685.5 c 128,-1,4
 572 665 572 665 572 644 c 0,5,6
 572 630 572 630 559.5 608 c 128,-1,7
 547 586 547 586 538 586 c 0,8,9
 536 586 536 586 516.5 597 c 128,-1,10
 497 608 497 608 461 619 c 128,-1,11
 425 630 425 630 383 630 c 0,12,13
 262 630 262 630 205 563 c 128,-1,14
 148 496 148 496 148 350.5 c 128,-1,15
 148 205 148 205 204.5 137.5 c 128,-1,16
 261 70 261 70 379 70 c 0,17,18
 424 70 424 70 464 82.5 c 128,-1,19
 504 95 504 95 526 107.5 c 128,-1,20
 548 120 548 120 551 120 c 0,21,22
 560 120 560 120 573 98 c 128,-1,23
 586 76 586 76 586 66 c 0,24,25
 586 43 586 43 523.5 18.5 c 128,-1,26
 461 -6 461 -6 379 -6 c 0,27,28
 214 -6 214 -6 135.5 80.5 c 128,-1,29
 57 167 57 167 57 350 c 0,0,1
EndSplineSet
EndChar

StartChar: D
Encoding: 68 68 39
Width: 695
GlyphClass: 2
Flags: W
LayerCount: 2
Fore
SplineSet
97 30 m 2,0,-1
 97 670 l 2,1,2
 97 700 97 700 127 700 c 2,3,-1
 329 700 l 2,4,5
 469 700 469 700 553.5 616.5 c 128,-1,6
 638 533 638 533 638 349.5 c 128,-1,7
 638 166 638 166 553.5 83 c 128,-1,8
 469 0 469 0 329 0 c 2,9,-1
 127 0 l 2,10,11
 97 0 97 0 97 30 c 2,0,-1
185 76 m 1,12,-1
 322 76 l 2,13,14
 423 76 423 76 485 142 c 128,-1,15
 547 208 547 208 547 349.5 c 128,-1,16
 547 491 547 491 485 557.5 c 128,-1,17
 423 624 423 624 322 624 c 2,18,-1
 185 624 l 1,19,-1
 185 76 l 1,12,-1
EndSplineSet
EndChar

StartChar: E
Encoding: 69 69 40
Width: 546
GlyphClass: 2
Flags: W
LayerCount: 2
Fore
SplineSet
97 30 m 2,0,-1
 97 670 l 2,1,2
 97 700 97 700 127 700 c 2,3,-1
 476 700 l 2,4,5
 496 700 496 700 496 670 c 2,6,-1
 496 654 l 2,7,8
 496 624 496 624 476 624 c 2,9,-1
 185 624 l 1,10,-1
 185 396 l 1,11,-1
 446 396 l 2,12,13
 466 396 466 396 466 366 c 2,14,-1
 466 350 l 2,15,16
 466 320 466 320 446 320 c 2,17,-1
 185 320 l 1,18,-1
 185 76 l 1,19,-1
 477 76 l 2,20,21
 497 76 497 76 497 46 c 2,22,-1
 497 30 l 2,23,24
 497 0 497 0 477 0 c 2,25,-1
 127 0 l 2,26,27
 97 0 97 0 97 30 c 2,0,-1
EndSplineSet
EndChar

StartChar: F
Encoding: 70 70 41
Width: 503
GlyphClass: 2
Flags: W
LayerCount: 2
Fore
SplineSet
97 20 m 2,0,-1
 97 670 l 2,1,2
 97 700 97 700 127 700 c 2,3,-1
 442 700 l 2,4,5
 462 700 462 700 462 670 c 2,6,-1
 462 654 l 2,7,8
 462 624 462 624 442 624 c 2,9,-1
 185 624 l 1,10,-1
 185 396 l 1,11,-1
 424 396 l 2,12,13
 444 396 444 396 444 366 c 2,14,-1
 444 350 l 2,15,16
 444 320 444 320 424 320 c 2,17,-1
 185 320 l 1,18,-1
 185 20 l 2,19,20
 185 -2 185 -2 145 -2 c 2,21,-1
 137 -2 l 2,22,23
 97 -2 97 -2 97 20 c 2,0,-1
EndSplineSet
EndChar

StartChar: G
Encoding: 71 71 42
Width: 672
GlyphClass: 2
Flags: W
LayerCount: 2
Fore
SplineSet
57 344 m 0,0,1
 57 706 57 706 381 706 c 0,2,3
 453 706 453 706 512.5 685.5 c 128,-1,4
 572 665 572 665 572 644 c 0,5,6
 572 630 572 630 559.5 608 c 128,-1,7
 547 586 547 586 538 586 c 0,8,9
 536 586 536 586 516.5 597 c 128,-1,10
 497 608 497 608 461 619 c 128,-1,11
 425 630 425 630 383 630 c 0,12,13
 256 630 256 630 202 560 c 128,-1,14
 148 490 148 490 148 353 c 0,15,16
 148 70 148 70 372 70 c 0,17,18
 451 70 451 70 501 83 c 1,19,-1
 501 285 l 1,20,-1
 384 285 l 2,21,22
 364 285 364 285 364 315 c 2,23,-1
 364 331 l 2,24,25
 364 361 364 361 384 361 c 2,26,-1
 559 361 l 2,27,28
 589 361 589 361 589 331 c 2,29,-1
 589 66 l 2,30,31
 589 -6 589 -6 366 -6 c 0,32,33
 57 -6 57 -6 57 344 c 0,0,1
EndSplineSet
EndChar

StartChar: H
Encoding: 72 72 43
Width: 733
GlyphClass: 2
Flags: W
LayerCount: 2
Fore
SplineSet
97 20 m 2,0,-1
 97 680 l 2,1,2
 97 702 97 702 137 702 c 2,3,-1
 145 702 l 2,4,5
 185 702 185 702 185 680 c 2,6,-1
 185 397 l 1,7,-1
 547 397 l 1,8,-1
 547 680 l 2,9,10
 547 702 547 702 587 702 c 2,11,-1
 595 702 l 2,12,13
 635 702 635 702 635 680 c 2,14,-1
 635 20 l 2,15,16
 635 -2 635 -2 595 -2 c 2,17,-1
 587 -2 l 2,18,19
 547 -2 547 -2 547 20 c 2,20,-1
 547 321 l 1,21,-1
 185 321 l 1,22,-1
 185 20 l 2,23,24
 185 -2 185 -2 145 -2 c 2,25,-1
 137 -2 l 2,26,27
 97 -2 97 -2 97 20 c 2,0,-1
EndSplineSet
EndChar

StartChar: I
Encoding: 73 73 44
Width: 282
GlyphClass: 2
Flags: W
LayerCount: 2
Fore
SplineSet
97 20 m 2,0,-1
 97 680 l 2,1,2
 97 702 97 702 137 702 c 2,3,-1
 145 702 l 2,4,5
 185 702 185 702 185 680 c 2,6,-1
 185 20 l 2,7,8
 185 -2 185 -2 145 -2 c 2,9,-1
 137 -2 l 2,10,11
 97 -2 97 -2 97 20 c 2,0,-1
EndSplineSet
EndChar

StartChar: J
Encoding: 74 74 45
Width: 402
GlyphClass: 2
Flags: W
LayerCount: 2
Fore
SplineSet
6 26 m 0,0,1
 6 36 6 36 12 58.5 c 128,-1,2
 18 81 18 81 28 81 c 0,3,4
 29 81 29 81 50.5 76.5 c 128,-1,5
 72 72 72 72 91 72 c 0,6,7
 165 72 165 72 198 101 c 128,-1,8
 231 130 231 130 231 195 c 2,9,-1
 231 680 l 2,10,11
 231 702 231 702 271 702 c 2,12,-1
 279 702 l 2,13,14
 319 702 319 702 319 680 c 2,15,-1
 319 205 l 2,16,17
 319 -6 319 -6 107 -6 c 0,18,19
 6 -6 6 -6 6 26 c 0,0,1
EndSplineSet
EndChar

StartChar: K
Encoding: 75 75 46
Width: 576
GlyphClass: 2
Flags: W
LayerCount: 2
Fore
SplineSet
97 20 m 2,0,-1
 97 680 l 2,1,2
 97 702 97 702 137 702 c 2,3,-1
 145 702 l 2,4,5
 185 702 185 702 185 680 c 2,6,-1
 185 374 l 1,7,-1
 189 374 l 1,8,-1
 435 688 l 2,9,10
 446 702 446 702 489 702 c 2,11,-1
 499 702 l 2,12,13
 534 702 534 702 534 689 c 0,14,15
 534 680 534 680 524 669 c 2,16,-1
 274 357 l 1,17,-1
 577 28 l 2,18,19
 586 18 586 18 586 12 c 0,20,21
 586 -2 586 -2 542 -2 c 2,22,-1
 530 -2 l 2,23,24
 487 -2 487 -2 475 11 c 2,25,-1
 189 333 l 1,26,-1
 185 333 l 1,27,-1
 185 20 l 2,28,29
 185 -2 185 -2 145 -2 c 2,30,-1
 137 -2 l 2,31,32
 97 -2 97 -2 97 20 c 2,0,-1
EndSplineSet
EndChar

StartChar: L
Encoding: 76 76 47
Width: 484
GlyphClass: 2
Flags: W
LayerCount: 2
Fore
SplineSet
97 30 m 2,0,-1
 97 680 l 2,1,2
 97 702 97 702 137 702 c 2,3,-1
 145 702 l 2,4,5
 185 702 185 702 185 680 c 2,6,-1
 185 76 l 1,7,-1
 460 76 l 2,8,9
 480 76 480 76 480 46 c 2,10,-1
 480 30 l 2,11,12
 480 0 480 0 460 0 c 2,13,-1
 127 0 l 2,14,15
 97 0 97 0 97 30 c 2,0,-1
EndSplineSet
EndChar

StartChar: M
Encoding: 77 77 48
Width: 843
GlyphClass: 2
Flags: W
LayerCount: 2
Fore
SplineSet
90 20 m 2,0,-1
 90 680 l 2,1,2
 90 702 90 702 130 702 c 2,3,-1
 166 702 l 2,4,5
 198 702 198 702 208 684 c 2,6,-1
 397 356 l 1,7,-1
 423 293 l 1,8,-1
 449 350 l 1,9,-1
 638 684 l 2,10,11
 648 702 648 702 680 702 c 2,12,-1
 713 702 l 2,13,14
 753 702 753 702 753 680 c 2,15,-1
 753 20 l 2,16,17
 753 -2 753 -2 713 -2 c 2,18,-1
 706 -2 l 2,19,20
 666 -2 666 -2 666 20 c 2,21,-1
 666 558 l 1,22,-1
 465 208 l 2,23,24
 458 195 458 195 443 195 c 2,25,-1
 403 195 l 2,26,27
 388 195 388 195 381 208 c 2,28,-1
 177 564 l 1,29,-1
 177 20 l 2,30,31
 177 -2 177 -2 137 -2 c 2,32,-1
 130 -2 l 2,33,34
 90 -2 90 -2 90 20 c 2,0,-1
EndSplineSet
EndChar

StartChar: N
Encoding: 78 78 49
Width: 719
GlyphClass: 2
Flags: W
LayerCount: 2
Fore
SplineSet
90 20 m 2,0,-1
 90 680 l 2,1,2
 90 702 90 702 130 702 c 2,3,-1
 151 702 l 2,4,5
 179 702 179 702 193 683 c 1,6,-1
 512 201 l 1,7,-1
 542 145 l 1,8,-1
 542 680 l 2,9,10
 542 702 542 702 582 702 c 2,11,-1
 589 702 l 2,12,13
 629 702 629 702 629 680 c 2,14,-1
 629 20 l 2,15,16
 629 -2 629 -2 589 -2 c 2,17,-1
 569 -2 l 2,18,19
 543 -2 543 -2 534 12 c 2,20,-1
 204 510 l 1,21,-1
 177 561 l 1,22,-1
 177 20 l 2,23,24
 177 -2 177 -2 137 -2 c 2,25,-1
 130 -2 l 2,26,27
 90 -2 90 -2 90 20 c 2,0,-1
EndSplineSet
EndChar

StartChar: O
Encoding: 79 79 50
Width: 731
GlyphClass: 2
Flags: W
LayerCount: 2
Fore
SplineSet
57 352 m 128,-1,1
 57 527 57 527 135.5 616.5 c 128,-1,2
 214 706 214 706 365 706 c 128,-1,3
 516 706 516 706 595 616.5 c 128,-1,4
 674 527 674 527 674 352 c 128,-1,5
 674 177 674 177 595 85.5 c 128,-1,6
 516 -6 516 -6 365.5 -6 c 128,-1,7
 215 -6 215 -6 136 85.5 c 128,-1,0
 57 177 57 177 57 352 c 128,-1,1
365 70 m 128,-1,9
 471 70 471 70 527 142 c 128,-1,10
 583 214 583 214 583 351.5 c 128,-1,11
 583 489 583 489 527 559.5 c 128,-1,12
 471 630 471 630 365 630 c 128,-1,13
 259 630 259 630 203.5 559.5 c 128,-1,14
 148 489 148 489 148 351.5 c 128,-1,15
 148 214 148 214 203.5 142 c 128,-1,8
 259 70 259 70 365 70 c 128,-1,9
EndSplineSet
EndChar

StartChar: P
Encoding: 80 80 51
Width: 570
GlyphClass: 2
Flags: W
LayerCount: 2
Fore
SplineSet
85 20 m 2,0,-1
 85 670 l 2,1,2
 85 700 85 700 115 700 c 2,3,-1
 318 700 l 2,4,5
 395 700 395 700 460 666 c 0,6,7
 497 647 497 647 519 605.5 c 128,-1,8
 541 564 541 564 541 508 c 128,-1,9
 541 452 541 452 523.5 412.5 c 128,-1,10
 506 373 506 373 481.5 352 c 128,-1,11
 457 331 457 331 425 318 c 0,12,13
 376 298 376 298 328 298 c 2,14,-1
 173 298 l 1,15,-1
 173 20 l 2,16,17
 173 -2 173 -2 133 -2 c 2,18,-1
 125 -2 l 2,19,20
 85 -2 85 -2 85 20 c 2,0,-1
173 374 m 1,21,-1
 329 374 l 2,22,23
 367 374 367 374 404 398 c 0,24,25
 424 411 424 411 437 438.5 c 128,-1,26
 450 466 450 466 450 504 c 0,27,28
 450 571 450 571 410 597.5 c 128,-1,29
 370 624 370 624 315 624 c 2,30,-1
 173 624 l 1,31,-1
 173 374 l 1,21,-1
EndSplineSet
EndChar

StartChar: Q
Encoding: 81 81 52
Width: 731
GlyphClass: 2
Flags: W
LayerCount: 2
Fore
SplineSet
57 347 m 0,0,1
 57 523 57 523 136 614.5 c 128,-1,2
 215 706 215 706 365.5 706 c 128,-1,3
 516 706 516 706 595 614 c 128,-1,4
 674 522 674 522 674 347 c 0,5,6
 674 205 674 205 622.5 118 c 128,-1,7
 571 31 571 31 473 5 c 1,8,-1
 473 1 l 1,9,-1
 670 -61 l 2,10,11
 684 -66 684 -66 684 -78 c 128,-1,12
 684 -90 684 -90 670.5 -119 c 128,-1,13
 657 -148 657 -148 642 -148 c 0,14,15
 634 -148 634 -148 464 -81 c 128,-1,16
 294 -14 294 -14 246 6 c 0,17,18
 57 81 57 81 57 347 c 0,0,1
204.5 139 m 128,-1,20
 261 67 261 67 365.5 67 c 128,-1,21
 470 67 470 67 526.5 139.5 c 128,-1,22
 583 212 583 212 583 347.5 c 128,-1,23
 583 483 583 483 526 556.5 c 128,-1,24
 469 630 469 630 365 630 c 128,-1,25
 261 630 261 630 204.5 557 c 128,-1,26
 148 484 148 484 148 347.5 c 128,-1,19
 148 211 148 211 204.5 139 c 128,-1,20
EndSplineSet
EndChar

StartChar: R
Encoding: 82 82 53
Width: 610
GlyphClass: 2
Flags: W
LayerCount: 2
Fore
SplineSet
97 20 m 2,0,-1
 97 670 l 2,1,2
 97 700 97 700 127 700 c 2,3,-1
 295 700 l 2,4,5
 415 700 415 700 475.5 657.5 c 128,-1,6
 536 615 536 615 536 523 c 0,7,8
 536 400 536 400 421 354 c 1,9,-1
 421 350 l 1,10,11
 450 340 450 340 469.5 311 c 128,-1,12
 489 282 489 282 511 225 c 2,13,-1
 589 28 l 2,14,15
 592 19 592 19 592 14 c 0,16,17
 592 -2 592 -2 550 -2 c 2,18,-1
 540 -2 l 2,19,20
 506 -2 506 -2 500 14 c 2,21,-1
 424 210 l 2,22,23
 402 267 402 267 369 287.5 c 128,-1,24
 336 308 336 308 275 308 c 2,25,-1
 185 308 l 1,26,-1
 185 20 l 2,27,28
 185 -2 185 -2 145 -2 c 2,29,-1
 137 -2 l 2,30,31
 97 -2 97 -2 97 20 c 2,0,-1
185 384 m 1,32,-1
 317 384 l 2,33,34
 370 384 370 384 407.5 420.5 c 128,-1,35
 445 457 445 457 445 511.5 c 128,-1,36
 445 566 445 566 409 595 c 128,-1,37
 373 624 373 624 310 624 c 2,38,-1
 185 624 l 1,39,-1
 185 384 l 1,32,-1
EndSplineSet
EndChar

StartChar: S
Encoding: 83 83 54
Width: 500
GlyphClass: 2
Flags: W
LayerCount: 2
Fore
SplineSet
37 67 m 0,0,1
 37 79 37 79 50.5 100 c 128,-1,2
 64 121 64 121 72 121 c 0,3,4
 75 121 75 121 97 108.5 c 128,-1,5
 119 96 119 96 159 83 c 128,-1,6
 199 70 199 70 250.5 70 c 128,-1,7
 302 70 302 70 338.5 103 c 128,-1,8
 375 136 375 136 375 187 c 128,-1,9
 375 238 375 238 341.5 268 c 128,-1,10
 308 298 308 298 260.5 315.5 c 128,-1,11
 213 333 213 333 165 353 c 128,-1,12
 117 373 117 373 83.5 415 c 128,-1,13
 50 457 50 457 50 522 c 0,14,15
 50 605 50 605 111 655.5 c 128,-1,16
 172 706 172 706 272 706 c 0,17,18
 321 706 321 706 377 688 c 128,-1,19
 433 670 433 670 433 645 c 0,20,21
 433 634 433 634 420.5 613 c 128,-1,22
 408 592 408 592 401 592 c 0,23,24
 397 592 397 592 380 602 c 0,25,26
 329 630 329 630 270 630 c 128,-1,27
 211 630 211 630 176 601.5 c 128,-1,28
 141 573 141 573 141 518 c 128,-1,29
 141 463 141 463 206 432 c 0,30,31
 234 419 234 419 269 406.5 c 128,-1,32
 304 394 304 394 338.5 377.5 c 128,-1,33
 373 361 373 361 401.5 339 c 128,-1,34
 430 317 430 317 448 279 c 128,-1,35
 466 241 466 241 466 191 c 0,36,37
 466 99 466 99 406 46.5 c 128,-1,38
 346 -6 346 -6 254 -6 c 128,-1,39
 162 -6 162 -6 99.5 19 c 128,-1,40
 37 44 37 44 37 67 c 0,0,1
EndSplineSet
EndChar

StartChar: T
Encoding: 84 84 55
Width: 549
GlyphClass: 2
Flags: W
LayerCount: 2
Fore
SplineSet
232 20 m 2,0,-1
 232 624 l 1,1,-1
 40 624 l 2,2,3
 20 624 20 624 20 654 c 2,4,-1
 20 670 l 2,5,6
 20 700 20 700 40 700 c 2,7,-1
 509 700 l 2,8,9
 529 700 529 700 529 670 c 2,10,-1
 529 654 l 2,11,12
 529 624 529 624 509 624 c 2,13,-1
 320 624 l 1,14,-1
 320 20 l 2,15,16
 320 -2 320 -2 280 -2 c 2,17,-1
 272 -2 l 2,18,19
 232 -2 232 -2 232 20 c 2,0,-1
EndSplineSet
EndChar

StartChar: U
Encoding: 85 85 56
Width: 712
GlyphClass: 2
Flags: W
LayerCount: 2
Fore
SplineSet
83 224 m 2,0,-1
 83 680 l 2,1,2
 83 702 83 702 123 702 c 2,3,-1
 131 702 l 2,4,5
 171 702 171 702 171 680 c 2,6,-1
 171 221 l 2,7,8
 171 155 171 155 223.5 112.5 c 128,-1,9
 276 70 276 70 356 70 c 128,-1,10
 436 70 436 70 488.5 112.5 c 128,-1,11
 541 155 541 155 541 221 c 2,12,-1
 541 680 l 2,13,14
 541 702 541 702 581 702 c 2,15,-1
 589 702 l 2,16,17
 629 702 629 702 629 680 c 2,18,-1
 629 224 l 2,19,20
 629 115 629 115 558 54.5 c 128,-1,21
 487 -6 487 -6 355.5 -6 c 128,-1,22
 224 -6 224 -6 153.5 54.5 c 128,-1,23
 83 115 83 115 83 224 c 2,0,-1
EndSplineSet
EndChar

StartChar: V
Encoding: 86 86 57
Width: 617
GlyphClass: 2
Flags: W
LayerCount: 2
Fore
SplineSet
21 685 m 0,0,1
 21 702 21 702 64 702 c 2,2,-1
 73 702 l 2,3,4
 108 702 108 702 113 686 c 2,5,-1
 298 152 l 1,6,-1
 309 100 l 1,7,-1
 322 153 l 1,8,-1
 507 686 l 2,9,10
 512 702 512 702 547 702 c 2,11,-1
 553 702 l 2,12,13
 596 702 596 702 596 685 c 0,14,15
 596 680 596 680 593 671 c 2,16,-1
 364 14 l 2,17,18
 359 -2 359 -2 324 -2 c 2,19,-1
 293 -2 l 2,20,21
 258 -2 258 -2 253 14 c 2,22,-1
 24 672 l 2,23,24
 21 680 21 680 21 685 c 0,0,1
EndSplineSet
EndChar

StartChar: W
Encoding: 87 87 58
Width: 882
GlyphClass: 2
Flags: W
LayerCount: 2
Fore
SplineSet
15 685 m 0,0,1
 15 702 15 702 58 702 c 2,2,-1
 68 702 l 2,3,4
 104 702 104 702 108 686 c 2,5,-1
 235 194 l 2,6,7
 242 166 242 166 247.5 134 c 128,-1,8
 253 102 253 102 253 101 c 2,9,-1
 398 685 l 2,10,11
 402 702 402 702 437 702 c 2,12,-1
 453 702 l 2,13,14
 488 702 488 702 492 685 c 2,15,-1
 616 193 l 1,16,-1
 633 101 l 1,17,-1
 778 686 l 2,18,19
 782 702 782 702 818 702 c 2,20,-1
 824 702 l 2,21,22
 867 702 867 702 867 685 c 0,23,24
 867 683 867 683 864 671 c 2,25,-1
 691 14 l 2,26,27
 687 -2 687 -2 651 -2 c 2,28,-1
 610 -2 l 2,29,30
 574 -2 574 -2 570 14 c 2,31,-1
 461 421 l 1,32,-1
 440 551 l 1,33,-1
 419 421 l 1,34,-1
 310 14 l 2,35,36
 306 -2 306 -2 270 -2 c 2,37,-1
 229 -2 l 2,38,39
 193 -2 193 -2 189 14 c 2,40,-1
 18 671 l 2,41,42
 15 683 15 683 15 685 c 0,0,1
EndSplineSet
EndChar

StartChar: X
Encoding: 88 88 59
Width: 611
GlyphClass: 2
Flags: W
LayerCount: 2
Fore
SplineSet
20 15 m 0,0,1
 20 22 20 22 28 33 c 2,2,-1
 252 365 l 1,3,-1
 52 667 l 2,4,5
 44 678 44 678 44 685 c 0,6,7
 44 702 44 702 90 702 c 2,8,-1
 104 702 l 2,9,10
 137 702 137 702 147 687 c 2,11,-1
 307 446 l 1,12,-1
 472 688 l 2,13,14
 481 702 481 702 515 702 c 2,15,-1
 521 702 l 2,16,17
 567 702 567 702 567 685 c 0,18,19
 567 681 567 681 559 667 c 1,20,-1
 359 370 l 1,21,-1
 584 33 l 2,22,23
 592 22 592 22 592 15 c 0,24,25
 592 -2 592 -2 546 -2 c 2,26,-1
 530 -2 l 2,27,28
 497 -2 497 -2 487 13 c 2,29,-1
 303 288 l 1,30,-1
 117 12 l 2,31,32
 108 -2 108 -2 74 -2 c 2,33,-1
 66 -2 l 2,34,35
 20 -2 20 -2 20 15 c 0,0,1
EndSplineSet
EndChar

StartChar: Y
Encoding: 89 89 60
Width: 559
GlyphClass: 2
Flags: W
LayerCount: 2
Fore
SplineSet
235 20 m 2,0,-1
 235 359 l 1,1,-1
 26 667 l 2,2,3
 18 678 18 678 18 685 c 0,4,5
 18 702 18 702 64 702 c 2,6,-1
 75 702 l 2,7,8
 108 702 108 702 118 687 c 2,9,-1
 282 441 l 1,10,-1
 450 688 l 2,11,12
 459 702 459 702 500 702 c 128,-1,13
 541 702 541 702 541 685 c 0,14,15
 541 681 541 681 533 667 c 1,16,-1
 323 356 l 1,17,-1
 323 20 l 2,18,19
 323 -2 323 -2 283 -2 c 2,20,-1
 275 -2 l 2,21,22
 235 -2 235 -2 235 20 c 2,0,-1
EndSplineSet
EndChar

StartChar: Z
Encoding: 90 90 61
Width: 616
GlyphClass: 2
Flags: W
LayerCount: 2
Fore
SplineSet
62 0 m 2,0,1
 55 0 55 0 46.5 19 c 128,-1,2
 38 38 38 38 38 49 c 128,-1,3
 38 60 38 60 41 65 c 2,4,-1
 451 624 l 1,5,-1
 91 624 l 2,6,7
 71 624 71 624 71 658 c 2,8,-1
 71 666 l 2,9,10
 71 700 71 700 91 700 c 2,11,-1
 549 700 l 2,12,13
 555 700 555 700 563 681 c 128,-1,14
 571 662 571 662 571 651 c 128,-1,15
 571 640 571 640 568 635 c 2,16,-1
 158 76 l 1,17,-1
 549 76 l 2,18,19
 569 76 569 76 569 42 c 2,20,-1
 569 34 l 2,21,22
 569 0 569 0 549 0 c 2,23,-1
 62 0 l 2,0,1
EndSplineSet
EndChar

StartChar: bracketleft
Encoding: 91 91 62
Width: 291
GlyphClass: 2
Flags: W
LayerCount: 2
Fore
SplineSet
90 -108 m 2,0,-1
 90 738 l 2,1,2
 90 768 90 768 120 768 c 2,3,-1
 241 768 l 2,4,5
 261 768 261 768 261 739 c 2,6,-1
 261 734 l 2,7,8
 261 705 261 705 241 705 c 2,9,-1
 164 705 l 1,10,-1
 164 -76 l 1,11,-1
 241 -76 l 2,12,13
 261 -76 261 -76 261 -105 c 2,14,-1
 261 -109 l 2,15,16
 261 -138 261 -138 241 -138 c 2,17,-1
 120 -138 l 2,18,19
 90 -138 90 -138 90 -108 c 2,0,-1
EndSplineSet
EndChar

StartChar: backslash
Encoding: 92 92 63
Width: 361
GlyphClass: 2
Flags: W
LayerCount: 2
Fore
SplineSet
5 682 m 0,0,1
 5 702 5 702 29 702 c 2,2,-1
 33 702 l 2,3,4
 58 702 58 702 68 679 c 2,5,-1
 354 15 l 2,6,7
 357 8 357 8 357 0 c 0,8,9
 357 -20 357 -20 331 -20 c 2,10,-1
 327 -20 l 2,11,12
 304 -20 304 -20 294 3 c 2,13,-1
 8 667 l 2,14,15
 5 674 5 674 5 682 c 0,0,1
EndSplineSet
EndChar

StartChar: bracketright
Encoding: 93 93 64
Width: 291
GlyphClass: 2
Flags: W
LayerCount: 2
Fore
SplineSet
50 -76 m 2,0,-1
 127 -76 l 1,1,-1
 127 705 l 1,2,-1
 50 705 l 2,3,4
 30 705 30 705 30 734 c 2,5,-1
 30 739 l 2,6,7
 30 768 30 768 50 768 c 2,8,-1
 171 768 l 2,9,10
 201 768 201 768 201 738 c 2,11,-1
 201 -108 l 2,12,13
 201 -138 201 -138 171 -138 c 2,14,-1
 50 -138 l 2,15,16
 30 -138 30 -138 30 -109 c 2,17,-1
 30 -105 l 2,18,19
 30 -76 30 -76 50 -76 c 2,0,-1
EndSplineSet
EndChar

StartChar: asciicircum
Encoding: 94 94 65
Width: 450
GlyphClass: 2
Flags: W
LayerCount: 2
Fore
SplineSet
80 320 m 2,0,1
 53 320 53 320 53 341 c 0,2,3
 53 348 53 348 56 355 c 2,4,-1
 181 664 l 1,5,6
 188 684 188 684 215 684 c 2,7,-1
 235 684 l 2,8,9
 260 684 260 684 269 664 c 2,10,-1
 394 355 l 2,11,12
 397 348 397 348 397 341 c 0,13,14
 397 320 397 320 370 320 c 2,15,-1
 366 320 l 2,16,17
 340 320 340 320 331 343 c 2,18,-1
 225 604 l 1,19,-1
 118 343 l 2,20,21
 108 320 108 320 84 320 c 2,22,-1
 80 320 l 2,0,1
EndSplineSet
EndChar

StartChar: underscore
Encoding: 95 95 66
Width: 534
GlyphClass: 2
Flags: W
LayerCount: 2
Fore
SplineSet
-1 -90 m 2,0,-1
 535 -90 l 2,1,2
 555 -90 555 -90 555 -110 c 2,3,-1
 555 -118 l 2,4,5
 555 -138 555 -138 535 -138 c 2,6,-1
 -1 -138 l 2,7,8
 -21 -138 -21 -138 -21 -118 c 2,9,-1
 -21 -110 l 2,10,11
 -21 -90 -21 -90 -1 -90 c 2,0,-1
EndSplineSet
EndChar

StartChar: grave
Encoding: 96 96 67
Width: 320
GlyphClass: 2
Flags: W
LayerCount: 2
Fore
SplineSet
242 615 m 128,-1,1
 242 605 242 605 213 605 c 128,-1,2
 184 605 184 605 168 623 c 0,3,4
 80 724 80 724 77 729.5 c 128,-1,5
 74 735 74 735 74 739 c 0,6,7
 74 752 74 752 121.5 752 c 128,-1,8
 169 752 169 752 184 726 c 0,9,0
 242 625 242 625 242 615 c 128,-1,1
EndSplineSet
EndChar

StartChar: a
Encoding: 97 97 68
Width: 545
GlyphClass: 2
Flags: W
LayerCount: 2
Fore
SplineSet
381 326 m 1,0,-1
 381 373 l 2,1,2
 381 457 381 457 271 457 c 0,3,4
 199 457 199 457 138 426 c 0,5,6
 117 415 117 415 115 415 c 0,7,8
 105 415 105 415 92.5 435 c 128,-1,9
 80 455 80 455 80 465 c 0,10,11
 80 486 80 486 138.5 507.5 c 128,-1,12
 197 529 197 529 279 529 c 128,-1,13
 361 529 361 529 413 487.5 c 128,-1,14
 465 446 465 446 465 372 c 2,15,-1
 465 148 l 2,16,17
 465 88 465 88 470 61 c 0,18,19
 477 24 477 24 477 22 c 0,20,21
 477 10 477 10 458 4.5 c 128,-1,22
 439 -1 439 -1 428.5 -1 c 128,-1,23
 418 -1 418 -1 414 1 c 128,-1,24
 410 3 410 3 406.5 8 c 128,-1,25
 403 13 403 13 401 17.5 c 128,-1,26
 399 22 399 22 397 30 c 128,-1,27
 395 38 395 38 393.5 42.5 c 128,-1,28
 392 47 392 47 390.5 56.5 c 128,-1,29
 389 66 389 66 388 69 c 1,30,31
 320 -6 320 -6 220 -6 c 0,32,33
 143 -6 143 -6 96 32 c 128,-1,34
 49 70 49 70 49 149 c 128,-1,35
 49 228 49 228 103.5 267.5 c 128,-1,36
 158 307 158 307 226 315.5 c 128,-1,37
 294 324 294 324 381 326 c 1,0,-1
139 149 m 0,38,39
 139 67 139 67 224 67 c 0,40,41
 273 67 273 67 308.5 85 c 128,-1,42
 344 103 344 103 381 136 c 1,43,-1
 381 254 l 1,44,45
 256 254 256 254 220 240 c 0,46,47
 201 233 201 233 180 222 c 0,48,49
 139 201 139 201 139 149 c 0,38,39
EndSplineSet
EndChar

StartChar: b
Encoding: 98 98 69
Width: 569
GlyphClass: 2
Flags: W
LayerCount: 2
Fore
SplineSet
85 20 m 2,0,-1
 85 730 l 2,1,2
 85 752 85 752 125 752 c 2,3,-1
 129 752 l 2,4,5
 169 752 169 752 169 730 c 2,6,-1
 169 478 l 1,7,8
 235 529 235 529 319 529 c 128,-1,9
 403 529 403 529 459 459.5 c 128,-1,10
 515 390 515 390 515 267 c 2,11,-1
 515 258 l 2,12,13
 515 142 515 142 462.5 68 c 128,-1,14
 410 -6 410 -6 322 -6 c 128,-1,15
 234 -6 234 -6 162 69 c 1,16,-1
 146 10 l 1,17,18
 141 -2 141 -2 119 -2 c 2,19,-1
 115 -2 l 2,20,21
 85 -2 85 -2 85 20 c 2,0,-1
169 136 m 1,22,23
 232 67 232 67 298 67 c 0,24,25
 427 67 427 67 427 269 c 0,26,27
 427 358 427 358 393.5 406 c 128,-1,28
 360 454 360 454 296 455 c 1,29,-1
 290 455 l 2,30,31
 223 455 223 455 169 410 c 1,32,-1
 169 136 l 1,22,23
EndSplineSet
EndChar

StartChar: c
Encoding: 99 99 70
Width: 485
GlyphClass: 2
Flags: W
LayerCount: 2
Fore
SplineSet
52 264 m 0,0,1
 52 339 52 339 72.5 393 c 128,-1,2
 93 447 93 447 128 476 c 0,3,4
 194 529 194 529 289 529 c 0,5,6
 347 529 347 529 393 515 c 128,-1,7
 439 501 439 501 439 483 c 0,8,9
 439 470 439 470 427.5 449.5 c 128,-1,10
 416 429 416 429 407 429 c 0,11,12
 406 429 406 429 403.5 430 c 128,-1,13
 401 431 401 431 399.5 431.5 c 128,-1,14
 398 432 398 432 396 433 c 0,15,16
 342 457 342 457 287 457 c 0,17,18
 142 457 142 457 142 266 c 0,19,20
 142 160 142 160 177.5 113 c 128,-1,21
 213 66 213 66 297 66 c 0,22,23
 358 66 358 66 410 92 c 0,24,25
 413 93 413 93 416.5 94.5 c 128,-1,26
 420 96 420 96 421 96 c 0,27,28
 431 96 431 96 443 76.5 c 128,-1,29
 455 57 455 57 455 45 c 0,30,31
 455 27 455 27 408 10.5 c 128,-1,32
 361 -6 361 -6 298 -6 c 0,33,34
 174 -6 174 -6 113 58 c 128,-1,35
 52 122 52 122 52 264 c 0,0,1
EndSplineSet
EndChar

StartChar: d
Encoding: 100 100 71
Width: 565
GlyphClass: 2
Flags: W
LayerCount: 2
Fore
SplineSet
405 69 m 1,0,1
 333 -6 333 -6 245 -6 c 128,-1,2
 157 -6 157 -6 104.5 68 c 128,-1,3
 52 142 52 142 52 258 c 2,4,-1
 52 267 l 2,5,6
 52 390 52 390 108 459.5 c 128,-1,7
 164 529 164 529 248 529 c 128,-1,8
 332 529 332 529 398 478 c 1,9,-1
 398 730 l 2,10,11
 398 752 398 752 438 752 c 2,12,-1
 442 752 l 2,13,14
 482 752 482 752 482 730 c 2,15,-1
 482 148 l 2,16,17
 482 88 482 88 487 61 c 0,18,19
 494 24 494 24 494 22 c 0,20,21
 494 10 494 10 475 4.5 c 128,-1,22
 456 -1 456 -1 445.5 -1 c 128,-1,23
 435 -1 435 -1 431 1 c 128,-1,24
 427 3 427 3 423.5 8 c 128,-1,25
 420 13 420 13 418 17.5 c 128,-1,26
 416 22 416 22 414 30 c 128,-1,27
 412 38 412 38 410.5 42.5 c 128,-1,28
 409 47 409 47 407.5 56.5 c 128,-1,29
 406 66 406 66 405 69 c 1,0,1
140 269 m 0,30,31
 140 67 140 67 270 67 c 0,32,33
 335 67 335 67 398 136 c 1,34,-1
 398 410 l 1,35,36
 344 455 344 455 277 455 c 2,37,-1
 271 455 l 1,38,39
 207 454 207 454 173.5 406 c 128,-1,40
 140 358 140 358 140 269 c 0,30,31
EndSplineSet
EndChar

StartChar: e
Encoding: 101 101 72
Width: 539
GlyphClass: 2
Flags: W
LayerCount: 2
Fore
SplineSet
115 59 m 128,-1,1
 55 124 55 124 55 257.5 c 128,-1,2
 55 391 55 391 114 460 c 128,-1,3
 173 529 173 529 282 529 c 0,4,5
 494 529 494 529 494 268 c 0,6,7
 494 259 494 259 482 243 c 128,-1,8
 470 227 470 227 461 227 c 2,9,-1
 145 227 l 1,10,11
 151 144 151 144 188 105 c 128,-1,12
 225 66 225 66 299 66 c 0,13,14
 367 66 367 66 424 98 c 0,15,16
 443 108 443 108 445 108 c 0,17,18
 455 108 455 108 467.5 88 c 128,-1,19
 480 68 480 68 480 58 c 0,20,21
 480 38 480 38 425.5 16 c 128,-1,22
 371 -6 371 -6 300 -6 c 0,23,0
 175 -6 175 -6 115 59 c 128,-1,1
405 299 m 1,24,25
 405 457 405 457 285 457 c 0,26,27
 156 457 156 457 145 299 c 1,28,-1
 405 299 l 1,24,25
EndSplineSet
EndChar

StartChar: f
Encoding: 102 102 73
Width: 325
GlyphClass: 2
Flags: W
LayerCount: 2
Fore
SplineSet
108 20 m 2,0,-1
 108 451 l 1,1,-1
 68 451 l 2,2,3
 48 451 48 451 48 481 c 2,4,-1
 48 493 l 2,5,6
 48 523 48 523 68 523 c 2,7,-1
 108 523 l 1,8,-1
 108 618 l 2,9,10
 108 704 108 704 154 732 c 0,11,12
 193 756 193 756 237 756 c 0,13,14
 310 756 310 756 310 726 c 0,15,16
 310 716 310 716 304 697.5 c 128,-1,17
 298 679 298 679 289 679 c 0,18,19
 287 679 287 679 275 681.5 c 128,-1,20
 263 684 263 684 241.5 684 c 128,-1,21
 220 684 220 684 206 669.5 c 128,-1,22
 192 655 192 655 192 610 c 2,23,-1
 192 523 l 1,24,-1
 279 523 l 2,25,26
 299 523 299 523 299 493 c 2,27,-1
 299 481 l 2,28,29
 299 451 299 451 279 451 c 2,30,-1
 192 451 l 1,31,-1
 192 20 l 2,32,33
 192 -2 192 -2 152 -2 c 2,34,-1
 148 -2 l 2,35,36
 108 -2 108 -2 108 20 c 2,0,-1
EndSplineSet
EndChar

StartChar: g
Encoding: 103 103 74
Width: 546
GlyphClass: 2
Flags: W
LayerCount: 2
Fore
SplineSet
34 -81 m 0,0,1
 34 1 34 1 147 41 c 1,2,3
 83 68 83 68 83 124.5 c 128,-1,4
 83 181 83 181 159 207 c 1,5,6
 115 228 115 228 91.5 267.5 c 128,-1,7
 68 307 68 307 68 356 c 0,8,9
 68 431 68 431 120.5 480 c 128,-1,10
 173 529 173 529 268 529 c 0,11,12
 304 529 304 529 334 523 c 1,13,-1
 506 523 l 2,14,15
 526 523 526 523 526 493 c 2,16,-1
 526 481 l 2,17,18
 526 451 526 451 506 451 c 2,19,-1
 436 451 l 1,20,21
 469 411 469 411 469 356 c 0,22,23
 469 282 469 282 416 233 c 128,-1,24
 363 184 363 184 268 184 c 2,25,-1
 258 184 l 1,26,27
 172 180 172 180 172 142 c 0,28,29
 172 121 172 121 207 110.5 c 128,-1,30
 242 100 242 100 291.5 94 c 128,-1,31
 341 88 341 88 390.5 77 c 128,-1,32
 440 66 440 66 475 32.5 c 128,-1,33
 510 -1 510 -1 510 -55 c 0,34,35
 510 -123 510 -123 443.5 -167.5 c 128,-1,36
 377 -212 377 -212 264.5 -212 c 128,-1,37
 152 -212 152 -212 93 -182.5 c 128,-1,38
 34 -153 34 -153 34 -81 c 0,0,1
268.5 256 m 128,-1,40
 381 256 381 256 381 356.5 c 128,-1,41
 381 457 381 457 268.5 457 c 128,-1,42
 156 457 156 457 156 356.5 c 128,-1,39
 156 256 156 256 268.5 256 c 128,-1,40
121 -72 m 0,43,44
 121 -140 121 -140 271 -140 c 0,45,46
 338 -140 338 -140 379.5 -117 c 128,-1,47
 421 -94 421 -94 421 -60 c 0,48,49
 421 -33 421 -33 398 -20 c 0,50,51
 360 1 360 1 262 14 c 0,52,53
 236 18 236 18 221 21 c 1,54,55
 182 6 182 6 151.5 -18 c 128,-1,56
 121 -42 121 -42 121 -72 c 0,43,44
EndSplineSet
EndChar

StartChar: h
Encoding: 104 104 75
Width: 565
GlyphClass: 2
Flags: W
LayerCount: 2
Fore
SplineSet
92 20 m 2,0,-1
 92 730 l 2,1,2
 92 752 92 752 132 752 c 2,3,-1
 136 752 l 2,4,5
 176 752 176 752 176 730 c 2,6,-1
 176 460 l 1,7,8
 245 529 245 529 329 529 c 0,9,10
 386 529 386 529 432 500 c 1,11,12
 457 483 457 483 472.5 449 c 128,-1,13
 488 415 488 415 488 367 c 2,14,-1
 488 20 l 2,15,16
 488 -2 488 -2 448 -2 c 2,17,-1
 444 -2 l 2,18,19
 404 -2 404 -2 404 20 c 2,20,-1
 404 359 l 2,21,22
 404 404 404 404 378 430 c 128,-1,23
 352 456 352 456 310.5 456 c 128,-1,24
 269 456 269 456 237.5 438.5 c 128,-1,25
 206 421 206 421 191 404 c 2,26,-1
 176 386 l 1,27,-1
 176 20 l 2,28,29
 176 -2 176 -2 136 -2 c 2,30,-1
 132 -2 l 2,31,32
 92 -2 92 -2 92 20 c 2,0,-1
EndSplineSet
EndChar

StartChar: i
Encoding: 105 105 76
Width: 265
GlyphClass: 2
Flags: W
LayerCount: 2
Fore
SplineSet
127 649 m 2,0,1
 87 649 87 649 87 671 c 2,2,-1
 87 730 l 2,3,4
 87 752 87 752 127 752 c 2,5,-1
 139 752 l 2,6,7
 179 752 179 752 179 730 c 2,8,-1
 179 671 l 2,9,10
 179 649 179 649 139 649 c 2,11,-1
 127 649 l 2,0,1
91 20 m 2,12,-1
 91 503 l 2,13,14
 91 525 91 525 131 525 c 2,15,-1
 135 525 l 2,16,17
 175 525 175 525 175 503 c 2,18,-1
 175 20 l 2,19,20
 175 -2 175 -2 135 -2 c 2,21,-1
 131 -2 l 2,22,23
 91 -2 91 -2 91 20 c 2,12,-1
EndSplineSet
EndChar

StartChar: j
Encoding: 106 106 77
Width: 276
GlyphClass: 2
Flags: W
LayerCount: 2
Fore
SplineSet
137 649 m 2,0,1
 97 649 97 649 97 671 c 2,2,-1
 97 730 l 2,3,4
 97 752 97 752 137 752 c 2,5,-1
 149 752 l 2,6,7
 189 752 189 752 189 730 c 2,8,-1
 189 671 l 2,9,10
 189 649 189 649 149 649 c 2,11,-1
 137 649 l 2,0,1
101 -66 m 2,12,-1
 101 503 l 2,13,14
 101 525 101 525 141 525 c 2,15,-1
 145 525 l 2,16,17
 185 525 185 525 185 503 c 2,18,-1
 185 -74 l 2,19,20
 185 -151 185 -151 145.5 -181.5 c 128,-1,21
 106 -212 106 -212 56 -212 c 0,22,23
 -17 -212 -17 -212 -17 -182 c 0,24,25
 -17 -172 -17 -172 -11 -153.5 c 128,-1,26
 -5 -135 -5 -135 4 -135 c 0,27,28
 6 -135 6 -135 18 -137.5 c 128,-1,29
 30 -140 30 -140 47 -140 c 0,30,31
 101 -140 101 -140 101 -66 c 2,12,-1
EndSplineSet
EndChar

StartChar: k
Encoding: 107 107 78
Width: 521
GlyphClass: 2
Flags: W
LayerCount: 2
Fore
SplineSet
94 20 m 2,0,-1
 94 730 l 2,1,2
 94 752 94 752 134 752 c 2,3,-1
 138 752 l 2,4,5
 178 752 178 752 178 730 c 2,6,-1
 178 283 l 1,7,-1
 182 283 l 1,8,-1
 373 511 l 2,9,10
 384 525 384 525 426 525 c 2,11,-1
 430 525 l 2,12,13
 465 525 465 525 465 512 c 0,14,15
 465 503 465 503 455 492 c 2,16,-1
 269 272 l 1,17,-1
 475 28 l 2,18,19
 484 18 484 18 484 12 c 0,20,21
 484 -2 484 -2 440 -2 c 2,22,-1
 436 -2 l 2,23,24
 393 -2 393 -2 382 11 c 2,25,-1
 182 248 l 1,26,-1
 178 248 l 1,27,-1
 178 20 l 2,28,29
 178 -2 178 -2 138 -2 c 2,30,-1
 134 -2 l 2,31,32
 94 -2 94 -2 94 20 c 2,0,-1
EndSplineSet
EndChar

StartChar: l
Encoding: 108 108 79
Width: 297
GlyphClass: 2
Flags: W
LayerCount: 2
Fore
SplineSet
82 132 m 2,0,-1
 82 730 l 2,1,2
 82 752 82 752 122 752 c 2,3,-1
 126 752 l 2,4,5
 166 752 166 752 166 730 c 2,6,-1
 166 140 l 2,7,8
 166 66 166 66 220 66 c 0,9,10
 237 66 237 66 249 68.5 c 128,-1,11
 261 71 261 71 263 71 c 0,12,13
 272 71 272 71 278 52.5 c 128,-1,14
 284 34 284 34 284 24 c 0,15,16
 284 -6 284 -6 211 -6 c 0,17,18
 161 -6 161 -6 121.5 24.5 c 128,-1,19
 82 55 82 55 82 132 c 2,0,-1
EndSplineSet
EndChar

StartChar: m
Encoding: 109 109 80
Width: 848
GlyphClass: 2
Flags: W
LayerCount: 2
Fore
SplineSet
85 20 m 2,0,-1
 85 371 l 2,1,2
 85 432 85 432 80 458 c 0,3,4
 73 494 73 494 73 497 c 0,5,6
 73 509 73 509 92 514.5 c 128,-1,7
 111 520 111 520 121.5 520 c 128,-1,8
 132 520 132 520 136 518 c 128,-1,9
 140 516 140 516 143.5 511.5 c 128,-1,10
 147 507 147 507 149 502.5 c 128,-1,11
 151 498 151 498 153 490.5 c 128,-1,12
 155 483 155 483 156.5 478.5 c 128,-1,13
 158 474 158 474 159.5 465.5 c 128,-1,14
 161 457 161 457 162 454 c 1,15,16
 227 529 227 529 314 529 c 0,17,18
 423 529 423 529 457 446 c 1,19,20
 527 529 527 529 616 529 c 0,21,22
 673 529 673 529 718 500 c 0,23,24
 743 483 743 483 758 449 c 128,-1,25
 773 415 773 415 773 367 c 2,26,-1
 773 20 l 2,27,28
 773 -2 773 -2 733 -2 c 2,29,-1
 729 -2 l 2,30,31
 689 -2 689 -2 689 20 c 2,32,-1
 689 359 l 2,33,34
 689 404 689 404 664.5 430 c 128,-1,35
 640 456 640 456 593 456 c 0,36,37
 531 456 531 456 470 387 c 1,38,39
 471 380 471 380 471 366 c 2,40,-1
 471 20 l 2,41,42
 471 -2 471 -2 431 -2 c 2,43,-1
 427 -2 l 2,44,45
 387 -2 387 -2 387 20 c 2,46,-1
 387 359 l 2,47,48
 387 404 387 404 362.5 430 c 128,-1,49
 338 456 338 456 298.5 456 c 128,-1,50
 259 456 259 456 228.5 439 c 128,-1,51
 198 422 198 422 184 404 c 1,52,-1
 169 387 l 1,53,-1
 169 20 l 2,54,55
 169 -2 169 -2 129 -2 c 2,56,-1
 125 -2 l 2,57,58
 85 -2 85 -2 85 20 c 2,0,-1
EndSplineSet
EndChar

StartChar: n
Encoding: 110 110 81
Width: 557
GlyphClass: 2
Flags: W
LayerCount: 2
Fore
SplineSet
86 20 m 2,0,-1
 86 371 l 2,1,2
 86 432 86 432 81 458 c 0,3,4
 74 494 74 494 74 497 c 0,5,6
 74 509 74 509 93 514.5 c 128,-1,7
 112 520 112 520 122.5 520 c 128,-1,8
 133 520 133 520 137 518 c 128,-1,9
 141 516 141 516 144.5 511.5 c 128,-1,10
 148 507 148 507 150 502.5 c 128,-1,11
 152 498 152 498 154 490.5 c 128,-1,12
 156 483 156 483 157.5 478.5 c 128,-1,13
 159 474 159 474 160.5 465.5 c 128,-1,14
 162 457 162 457 163 454 c 1,15,16
 230 529 230 529 312.5 529 c 128,-1,17
 395 529 395 529 438.5 486 c 128,-1,18
 482 443 482 443 482 367 c 2,19,-1
 482 20 l 2,20,21
 482 -2 482 -2 442 -2 c 2,22,-1
 438 -2 l 2,23,24
 398 -2 398 -2 398 20 c 2,25,-1
 398 359 l 2,26,27
 398 405 398 405 371.5 430.5 c 128,-1,28
 345 456 345 456 296 456 c 0,29,30
 224 456 224 456 170 386 c 1,31,-1
 170 20 l 2,32,33
 170 -2 170 -2 130 -2 c 2,34,-1
 126 -2 l 2,35,36
 86 -2 86 -2 86 20 c 2,0,-1
EndSplineSet
EndChar

StartChar: o
Encoding: 111 111 82
Width: 569
GlyphClass: 2
Flags: W
LayerCount: 2
Fore
SplineSet
114.5 62 m 128,-1,1
 55 130 55 130 55 259.5 c 128,-1,2
 55 389 55 389 115 459 c 128,-1,3
 175 529 175 529 286 529 c 128,-1,4
 397 529 397 529 455.5 459.5 c 128,-1,5
 514 390 514 390 514 259.5 c 128,-1,6
 514 129 514 129 456.5 61.5 c 128,-1,7
 399 -6 399 -6 286.5 -6 c 128,-1,0
 174 -6 174 -6 114.5 62 c 128,-1,1
284 66 m 128,-1,9
 357 66 357 66 392 113.5 c 128,-1,10
 427 161 427 161 427 261 c 128,-1,11
 427 361 427 361 392 409 c 128,-1,12
 357 457 357 457 284 457 c 128,-1,13
 211 457 211 457 177 409.5 c 128,-1,14
 143 362 143 362 143 261.5 c 128,-1,15
 143 161 143 161 177 113.5 c 128,-1,8
 211 66 211 66 284 66 c 128,-1,9
EndSplineSet
EndChar

StartChar: p
Encoding: 112 112 83
Width: 573
GlyphClass: 2
Flags: W
LayerCount: 2
Fore
SplineSet
170 -186 m 2,0,1
 170 -208 170 -208 130 -208 c 2,2,-1
 126 -208 l 2,3,4
 86 -208 86 -208 86 -186 c 2,5,-1
 86 371 l 2,6,7
 86 432 86 432 81 458 c 0,8,9
 74 494 74 494 74 497 c 0,10,11
 74 509 74 509 93 514.5 c 128,-1,12
 112 520 112 520 122.5 520 c 128,-1,13
 133 520 133 520 137 518 c 128,-1,14
 141 516 141 516 144.5 511.5 c 128,-1,15
 148 507 148 507 150 502.5 c 128,-1,16
 152 498 152 498 154 490.5 c 128,-1,17
 156 483 156 483 157.5 478.5 c 128,-1,18
 159 474 159 474 160.5 465.5 c 128,-1,19
 162 457 162 457 163 454 c 1,20,21
 235 529 235 529 323 529 c 128,-1,22
 411 529 411 529 463.5 455 c 128,-1,23
 516 381 516 381 516 265 c 2,24,-1
 516 256 l 2,25,26
 516 133 516 133 460 63.5 c 128,-1,27
 404 -6 404 -6 320 -6 c 128,-1,28
 236 -6 236 -6 170 45 c 1,29,-1
 170 -186 l 2,0,1
291 68 m 2,30,-1
 297 68 l 1,31,32
 361 69 361 69 394.5 117 c 128,-1,33
 428 165 428 165 428 258 c 128,-1,34
 428 351 428 351 396 403.5 c 128,-1,35
 364 456 364 456 298.5 456 c 128,-1,36
 233 456 233 456 170 387 c 1,37,-1
 170 113 l 1,38,39
 224 68 224 68 291 68 c 2,30,-1
EndSplineSet
EndChar

StartChar: q
Encoding: 113 113 84
Width: 566
GlyphClass: 2
Flags: W
LayerCount: 2
Fore
SplineSet
398 45 m 1,0,1
 332 -6 332 -6 248 -6 c 128,-1,2
 164 -6 164 -6 108 63.5 c 128,-1,3
 52 133 52 133 52 256 c 2,4,-1
 52 265 l 2,5,6
 52 381 52 381 104.5 455 c 128,-1,7
 157 529 157 529 245 529 c 128,-1,8
 333 529 333 529 405 454 c 1,9,-1
 421 513 l 1,10,11
 426 525 426 525 448 525 c 2,12,-1
 452 525 l 2,13,14
 482 525 482 525 482 503 c 2,15,-1
 482 -186 l 2,16,17
 482 -208 482 -208 442 -208 c 2,18,-1
 438 -208 l 2,19,20
 398 -208 398 -208 398 -186 c 2,21,-1
 398 45 l 1,0,1
277 68 m 2,22,23
 344 68 344 68 398 113 c 1,24,-1
 398 387 l 1,25,26
 335 456 335 456 270 456 c 0,27,28
 140 456 140 456 140 254 c 0,29,30
 140 165 140 165 173.5 117 c 128,-1,31
 207 69 207 69 271 68 c 1,32,-1
 277 68 l 2,22,23
EndSplineSet
EndChar

StartChar: r
Encoding: 114 114 85
Width: 366
GlyphClass: 2
Flags: W
LayerCount: 2
Fore
SplineSet
90 20 m 2,0,-1
 90 371 l 2,1,2
 90 432 90 432 85 458 c 0,3,4
 78 494 78 494 78 497 c 0,5,6
 78 509 78 509 97 514.5 c 128,-1,7
 116 520 116 520 126.5 520 c 128,-1,8
 137 520 137 520 141 518 c 128,-1,9
 145 516 145 516 148.5 511.5 c 128,-1,10
 152 507 152 507 154 502.5 c 128,-1,11
 156 498 156 498 158 490.5 c 128,-1,12
 160 483 160 483 161.5 478.5 c 128,-1,13
 163 474 163 474 164.5 465.5 c 128,-1,14
 166 457 166 457 167 454 c 1,15,16
 220 529 220 529 283 529 c 0,17,18
 311 529 311 529 326 518 c 128,-1,19
 341 507 341 507 341 490 c 128,-1,20
 341 473 341 473 335 454.5 c 128,-1,21
 329 436 329 436 321 436 c 0,22,23
 317 436 317 436 301.5 441.5 c 128,-1,24
 286 447 286 447 264.5 447 c 128,-1,25
 243 447 243 447 220 431.5 c 128,-1,26
 197 416 197 416 186 401 c 2,27,-1
 174 386 l 1,28,-1
 174 20 l 2,29,30
 174 -2 174 -2 134 -2 c 2,31,-1
 130 -2 l 2,32,33
 90 -2 90 -2 90 20 c 2,0,-1
EndSplineSet
EndChar

StartChar: s
Encoding: 115 115 86
Width: 413
GlyphClass: 2
Flags: W
LayerCount: 2
Fore
SplineSet
35 54 m 0,0,1
 35 64 35 64 47.5 84 c 128,-1,2
 60 104 60 104 70 104 c 0,3,4
 71 104 71 104 86 94.5 c 128,-1,5
 101 85 101 85 129 75.5 c 128,-1,6
 157 66 157 66 196.5 66 c 128,-1,7
 236 66 236 66 261.5 88.5 c 128,-1,8
 287 111 287 111 287 149.5 c 128,-1,9
 287 188 287 188 264.5 209.5 c 128,-1,10
 242 231 242 231 175 250 c 128,-1,11
 108 269 108 269 78 298.5 c 128,-1,12
 48 328 48 328 48 388 c 128,-1,13
 48 448 48 448 94 488.5 c 128,-1,14
 140 529 140 529 214 529 c 0,15,16
 265 529 265 529 305 516 c 128,-1,17
 345 503 345 503 345 487 c 0,18,19
 345 474 345 474 333.5 453.5 c 128,-1,20
 322 433 322 433 313 433 c 0,21,22
 312 433 312 433 300 439 c 0,23,24
 266 457 266 457 223.5 457 c 128,-1,25
 181 457 181 457 157.5 439.5 c 128,-1,26
 134 422 134 422 134 394 c 128,-1,27
 134 366 134 366 151.5 350 c 128,-1,28
 169 334 169 334 211 321 c 0,29,30
 305 292 305 292 338.5 257.5 c 128,-1,31
 372 223 372 223 372 153.5 c 128,-1,32
 372 84 372 84 322.5 39 c 128,-1,33
 273 -6 273 -6 204 -6 c 128,-1,34
 135 -6 135 -6 85 14.5 c 128,-1,35
 35 35 35 35 35 54 c 0,0,1
EndSplineSet
EndChar

StartChar: t
Encoding: 116 116 87
Width: 342
GlyphClass: 2
Flags: W
LayerCount: 2
Fore
SplineSet
107 132 m 2,0,-1
 107 451 l 1,1,-1
 57 451 l 2,2,3
 37 451 37 451 37 481 c 2,4,-1
 37 493 l 2,5,6
 37 523 37 523 57 523 c 2,7,-1
 107 523 l 1,8,-1
 119 628 l 2,9,10
 121 650 121 650 151 650 c 2,11,-1
 161 650 l 2,12,13
 191 650 191 650 191 628 c 2,14,-1
 191 523 l 1,15,-1
 275 523 l 2,16,17
 295 523 295 523 295 493 c 2,18,-1
 295 481 l 2,19,20
 295 451 295 451 275 451 c 2,21,-1
 191 451 l 1,22,-1
 191 140 l 2,23,24
 191 66 191 66 245 66 c 0,25,26
 262 66 262 66 274 68.5 c 128,-1,27
 286 71 286 71 288 71 c 0,28,29
 297 71 297 71 303 52.5 c 128,-1,30
 309 34 309 34 309 24 c 0,31,32
 309 -6 309 -6 236 -6 c 0,33,34
 186 -6 186 -6 146.5 24.5 c 128,-1,35
 107 55 107 55 107 132 c 2,0,-1
EndSplineSet
EndChar

StartChar: u
Encoding: 117 117 88
Width: 557
GlyphClass: 2
Flags: W
LayerCount: 2
Fore
SplineSet
75 156 m 2,0,-1
 75 503 l 2,1,2
 75 525 75 525 115 525 c 2,3,-1
 119 525 l 2,4,5
 159 525 159 525 159 503 c 2,6,-1
 159 164 l 2,7,8
 159 118 159 118 185.5 92.5 c 128,-1,9
 212 67 212 67 261 67 c 0,10,11
 333 67 333 67 387 137 c 1,12,-1
 387 503 l 2,13,14
 387 525 387 525 427 525 c 2,15,-1
 431 525 l 2,16,17
 471 525 471 525 471 503 c 2,18,-1
 471 148 l 2,19,20
 471 88 471 88 476 61 c 0,21,22
 483 24 483 24 483 22 c 0,23,24
 483 10 483 10 464 4.5 c 128,-1,25
 445 -1 445 -1 434.5 -1 c 128,-1,26
 424 -1 424 -1 420 1 c 128,-1,27
 416 3 416 3 412.5 8 c 128,-1,28
 409 13 409 13 407 17.5 c 128,-1,29
 405 22 405 22 403 30 c 128,-1,30
 401 38 401 38 399.5 42.5 c 128,-1,31
 398 47 398 47 396.5 56.5 c 128,-1,32
 395 66 395 66 394 69 c 1,33,34
 327 -6 327 -6 244.5 -6 c 128,-1,35
 162 -6 162 -6 118.5 37 c 128,-1,36
 75 80 75 80 75 156 c 2,0,-1
EndSplineSet
EndChar

StartChar: v
Encoding: 118 118 89
Width: 485
GlyphClass: 2
Flags: W
LayerCount: 2
Fore
SplineSet
21 508 m 0,0,1
 21 525 21 525 64 525 c 2,2,-1
 72 525 l 2,3,4
 107 525 107 525 112 509 c 2,5,-1
 246 104 l 1,6,-1
 380 509 l 2,7,8
 385 525 385 525 424.5 525 c 128,-1,9
 464 525 464 525 464 508 c 0,10,11
 464 503 464 503 461 494 c 2,12,-1
 300 14 l 2,13,14
 295 -2 295 -2 260 -2 c 2,15,-1
 225 -2 l 2,16,17
 190 -2 190 -2 185 14 c 2,18,-1
 24 495 l 2,19,20
 21 504 21 504 21 508 c 0,0,1
EndSplineSet
EndChar

StartChar: w
Encoding: 119 119 90
Width: 747
GlyphClass: 2
Flags: W
LayerCount: 2
Fore
SplineSet
30 508 m 0,0,1
 30 525 30 525 73 525 c 2,2,-1
 82 525 l 2,3,4
 118 525 118 525 122 509 c 2,5,-1
 227 110 l 1,6,-1
 331 508 l 2,7,8
 335 525 335 525 370 525 c 2,9,-1
 381 525 l 2,10,11
 415 525 415 525 420 508 c 2,12,-1
 525 110 l 1,13,-1
 629 509 l 2,14,15
 633 525 633 525 674 525 c 128,-1,16
 715 525 715 525 715 508 c 0,17,18
 715 503 715 503 712 494 c 2,19,-1
 578 14 l 2,20,21
 574 -2 574 -2 538 -2 c 2,22,-1
 505 -2 l 2,23,24
 470 -2 470 -2 466 14 c 2,25,-1
 374 378 l 1,26,-1
 280 14 l 2,27,28
 276 -2 276 -2 240 -2 c 2,29,-1
 207 -2 l 2,30,31
 171 -2 171 -2 167 14 c 2,32,-1
 33 495 l 2,33,34
 30 504 30 504 30 508 c 0,0,1
EndSplineSet
EndChar

StartChar: x
Encoding: 120 120 91
Width: 485
GlyphClass: 2
Flags: W
LayerCount: 2
Fore
SplineSet
20 15 m 0,0,1
 20 22 20 22 28 33 c 2,2,-1
 190 268 l 1,3,-1
 40 490 l 2,4,5
 32 501 32 501 32 508 c 0,6,7
 32 525 32 525 78 525 c 2,8,-1
 89 525 l 2,9,10
 122 525 122 525 132 510 c 2,11,-1
 246 344 l 1,12,-1
 361 511 l 2,13,14
 370 525 370 525 404 525 c 2,15,-1
 408 525 l 2,16,17
 454 525 454 525 454 508 c 0,18,19
 454 501 454 501 446 490 c 2,20,-1
 295 270 l 1,21,-1
 457 33 l 2,22,23
 465 22 465 22 465 15 c 0,24,25
 465 -2 465 -2 419 -2 c 2,26,-1
 408 -2 l 2,27,28
 375 -2 375 -2 365 13 c 2,29,-1
 240 196 l 1,30,-1
 113 12 l 2,31,32
 103 -2 103 -2 70 -2 c 2,33,-1
 66 -2 l 2,34,35
 20 -2 20 -2 20 15 c 0,0,1
EndSplineSet
EndChar

StartChar: y
Encoding: 121 121 92
Width: 481
GlyphClass: 2
Flags: W
LayerCount: 2
Fore
SplineSet
18 508 m 0,0,1
 18 525 18 525 61 525 c 2,2,-1
 69 525 l 2,3,4
 102 525 102 525 109 509 c 2,5,-1
 245 148 l 1,6,-1
 378 509 l 2,7,8
 383 525 383 525 422.5 525 c 128,-1,9
 462 525 462 525 462 508 c 0,10,11
 462 503 462 503 459 494 c 2,12,-1
 202 -187 l 2,13,14
 194 -208 194 -208 155 -208 c 2,15,-1
 140 -208 l 2,16,17
 107 -208 107 -208 107 -192 c 0,18,19
 107 -189 107 -189 196 28 c 1,20,-1
 21 495 l 2,21,22
 18 504 18 504 18 508 c 0,0,1
EndSplineSet
EndChar

StartChar: z
Encoding: 122 122 93
Width: 489
GlyphClass: 2
Flags: W
LayerCount: 2
Fore
SplineSet
59 0 m 2,0,1
 53 0 53 0 45 18 c 128,-1,2
 37 36 37 36 37 46.5 c 128,-1,3
 37 57 37 57 40 62 c 2,4,-1
 333 451 l 1,5,-1
 77 451 l 2,6,7
 57 451 57 451 57 481 c 2,8,-1
 57 493 l 2,9,10
 57 523 57 523 77 523 c 2,11,-1
 428 523 l 2,12,13
 435 523 435 523 441.5 504.5 c 128,-1,14
 448 486 448 486 448 475.5 c 128,-1,15
 448 465 448 465 446 461 c 2,16,-1
 154 72 l 1,17,-1
 429 72 l 2,18,19
 449 72 449 72 449 42 c 2,20,-1
 449 30 l 2,21,22
 449 0 449 0 429 0 c 2,23,-1
 59 0 l 2,0,1
EndSplineSet
EndChar

StartChar: braceleft
Encoding: 123 123 94
Width: 274
GlyphClass: 2
Flags: W
LayerCount: 2
Fore
SplineSet
96 -22 m 2,0,-1
 96 145 l 2,1,2
 96 200 96 200 86 230 c 128,-1,3
 76 260 76 260 48 272.5 c 128,-1,4
 20 285 20 285 20 308 c 2,5,-1
 20 322 l 2,6,7
 20 345 20 345 48 357.5 c 128,-1,8
 76 370 76 370 86 399.5 c 128,-1,9
 96 429 96 429 96 485 c 2,10,-1
 96 652 l 2,11,12
 96 715 96 715 121 741.5 c 128,-1,13
 146 768 146 768 174 768 c 2,14,-1
 224 768 l 2,15,16
 244 768 244 768 244 739 c 2,17,-1
 244 735 l 2,18,19
 244 706 244 706 224 706 c 2,20,-1
 202 706 l 2,21,22
 182 706 182 706 175 691.5 c 128,-1,23
 168 677 168 677 168 645 c 2,24,-1
 168 469 l 2,25,26
 168 369 168 369 90 314 c 1,27,28
 102 308 102 308 117.5 294 c 128,-1,29
 133 280 133 280 150.5 243.5 c 128,-1,30
 168 207 168 207 168 161 c 2,31,-1
 168 -14 l 2,32,33
 168 -46 168 -46 175 -61 c 128,-1,34
 182 -76 182 -76 202 -76 c 2,35,-1
 224 -76 l 2,36,37
 244 -76 244 -76 244 -105 c 2,38,-1
 244 -109 l 2,39,40
 244 -138 244 -138 224 -138 c 2,41,-1
 174 -138 l 2,42,43
 146 -138 146 -138 121 -112 c 128,-1,44
 96 -86 96 -86 96 -22 c 2,0,-1
EndSplineSet
EndChar

StartChar: bar
Encoding: 124 124 95
Width: 250
GlyphClass: 2
Flags: W
LayerCount: 2
Fore
SplineSet
96 -118 m 2,0,-1
 96 748 l 2,1,2
 96 770 96 770 120 770 c 2,3,-1
 130 770 l 2,4,5
 154 770 154 770 154 748 c 2,6,-1
 154 -118 l 2,7,8
 154 -140 154 -140 130 -140 c 2,9,-1
 120 -140 l 2,10,11
 96 -140 96 -140 96 -118 c 2,0,-1
EndSplineSet
EndChar

StartChar: braceright
Encoding: 125 125 96
Width: 274
GlyphClass: 2
Flags: W
LayerCount: 2
Fore
SplineSet
50 -76 m 2,0,-1
 72 -76 l 2,1,2
 92 -76 92 -76 99 -61 c 128,-1,3
 106 -46 106 -46 106 -14 c 2,4,-1
 106 161 l 2,5,6
 106 207 106 207 123.5 243.5 c 128,-1,7
 141 280 141 280 156.5 294 c 128,-1,8
 172 308 172 308 184 314 c 1,9,10
 106 369 106 369 106 469 c 2,11,-1
 106 645 l 2,12,13
 106 677 106 677 99 691.5 c 128,-1,14
 92 706 92 706 72 706 c 2,15,-1
 50 706 l 2,16,17
 30 706 30 706 30 735 c 2,18,-1
 30 739 l 2,19,20
 30 768 30 768 50 768 c 2,21,-1
 100 768 l 2,22,23
 128 768 128 768 153 741.5 c 128,-1,24
 178 715 178 715 178 652 c 2,25,-1
 178 485 l 2,26,27
 178 429 178 429 188 399.5 c 128,-1,28
 198 370 198 370 226 357.5 c 128,-1,29
 254 345 254 345 254 322 c 2,30,-1
 254 308 l 2,31,32
 254 285 254 285 226 272.5 c 128,-1,33
 198 260 198 260 188 230 c 128,-1,34
 178 200 178 200 178 145 c 2,35,-1
 178 -22 l 2,36,37
 178 -86 178 -86 153 -112 c 128,-1,38
 128 -138 128 -138 100 -138 c 2,39,-1
 50 -138 l 2,40,41
 30 -138 30 -138 30 -109 c 2,42,-1
 30 -105 l 2,43,44
 30 -76 30 -76 50 -76 c 2,0,-1
EndSplineSet
EndChar

StartChar: asciitilde
Encoding: 126 126 97
Width: 547
GlyphClass: 2
Flags: W
LayerCount: 2
Fore
SplineSet
86 243 m 128,-1,1
 79 256 79 256 79 263 c 0,2,3
 79 280 79 280 119 297.5 c 128,-1,4
 159 315 159 315 202.5 315 c 128,-1,5
 246 315 246 315 300 302 c 128,-1,6
 354 289 354 289 373 289 c 128,-1,7
 392 289 392 289 413 294.5 c 128,-1,8
 434 300 434 300 442 300 c 128,-1,9
 450 300 450 300 459 291 c 128,-1,10
 468 282 468 282 468 268 c 0,11,12
 468 250 468 250 428 232.5 c 128,-1,13
 388 215 388 215 344 215 c 128,-1,14
 300 215 300 215 246.5 228 c 128,-1,15
 193 241 193 241 174 241 c 128,-1,16
 155 241 155 241 134 235.5 c 128,-1,17
 113 230 113 230 103 230 c 128,-1,0
 93 230 93 230 86 243 c 128,-1,1
EndSplineSet
EndChar

StartChar: exclamdown
Encoding: 161 161 99
Width: 294
GlyphClass: 2
Flags: W
LayerCount: 2
Fore
SplineSet
136 415 m 2,0,1
 96 415 96 415 96 437 c 2,2,-1
 96 503 l 2,3,4
 96 525 96 525 136 525 c 2,5,-1
 153 525 l 2,6,7
 193 525 193 525 193 503 c 2,8,-1
 193 437 l 2,9,10
 193 415 193 415 153 415 c 2,11,-1
 136 415 l 2,0,1
140 321 m 2,12,-1
 151 321 l 2,13,14
 181 321 181 321 181 299 c 2,15,-1
 181 -157 l 2,16,17
 181 -179 181 -179 141 -179 c 2,18,-1
 121 -179 l 2,19,20
 82 -179 82 -179 82 -157 c 1,21,-1
 109 299 l 2,22,23
 111 321 111 321 140 321 c 2,12,-1
EndSplineSet
EndChar

StartChar: cent
Encoding: 162 162 100
Width: 486
GlyphClass: 2
Flags: W
LayerCount: 2
Fore
SplineSet
55 264 m 0,0,1
 55 335 55 335 73 387.5 c 128,-1,2
 91 440 91 440 122 468 c 0,3,4
 182 524 182 524 269 528 c 1,5,-1
 269 567 l 2,6,7
 269 583 269 583 289 583 c 128,-1,8
 309 583 309 583 309 567 c 2,9,-1
 309 528 l 1,10,11
 359 526 359 526 396.5 512.5 c 128,-1,12
 434 499 434 499 434 483 c 0,13,14
 434 470 434 470 422.5 449.5 c 128,-1,15
 411 429 411 429 402 429 c 0,16,17
 401 429 401 429 389 434 c 0,18,19
 349 453 349 453 309 456 c 1,20,-1
 309 66 l 1,21,22
 357 70 357 70 400 90 c 0,23,24
 414 96 414 96 416 96 c 0,25,26
 426 96 426 96 438 76.5 c 128,-1,27
 450 57 450 57 450 45 c 0,28,29
 450 28 450 28 408 12 c 128,-1,30
 366 -4 366 -4 309 -6 c 1,31,-1
 309 -59 l 2,32,33
 309 -75 309 -75 289 -75 c 128,-1,34
 269 -75 269 -75 269 -59 c 2,35,-1
 269 -5 l 1,36,37
 161 1 161 1 108 65.5 c 128,-1,38
 55 130 55 130 55 264 c 0,0,1
144 266 m 0,39,40
 144 168 144 168 173 121 c 128,-1,41
 202 74 202 74 269 67 c 1,42,-1
 269 456 l 1,43,44
 144 444 144 444 144 266 c 0,39,40
EndSplineSet
EndChar

StartChar: sterling
Encoding: 163 163 101
Width: 491
GlyphClass: 2
Flags: W
LayerCount: 2
Fore
SplineSet
33 30 m 2,0,-1
 33 46 l 2,1,2
 33 69 33 69 76 86 c 0,3,4
 92 93 92 93 105.5 111.5 c 128,-1,5
 119 130 119 130 119 159 c 2,6,-1
 119 339 l 1,7,-1
 64 339 l 2,8,9
 44 339 44 339 44 369 c 2,10,-1
 44 381 l 2,11,12
 44 411 44 411 64 411 c 2,13,-1
 119 411 l 1,14,-1
 119 498 l 2,15,16
 119 706 119 706 324 706 c 0,17,18
 425 706 425 706 425 674 c 0,19,20
 425 665 425 665 419 645 c 128,-1,21
 413 625 413 625 403 625 c 0,22,23
 402 625 402 625 380.5 629.5 c 128,-1,24
 359 634 359 634 340 634 c 0,25,26
 268 634 268 634 235.5 602.5 c 128,-1,27
 203 571 203 571 203 503 c 2,28,-1
 203 411 l 1,29,-1
 350 411 l 2,30,31
 370 411 370 411 370 381 c 2,32,-1
 370 369 l 2,33,34
 370 339 370 339 350 339 c 2,35,-1
 203 339 l 1,36,-1
 203 249 l 2,37,38
 203 125 203 125 164 86 c 0,39,40
 157 79 157 79 146 72 c 1,41,-1
 426 72 l 2,42,43
 446 72 446 72 446 42 c 2,44,-1
 446 30 l 2,45,46
 446 0 446 0 426 0 c 2,47,-1
 53 0 l 2,48,49
 33 0 33 0 33 30 c 2,0,-1
EndSplineSet
EndChar

StartChar: currency
Encoding: 164 164 102
Width: 534
GlyphClass: 2
Flags: W
LayerCount: 2
Fore
SplineSet
134 153 m 2,0,1
 124 143 124 143 113.5 143 c 128,-1,2
 103 143 103 143 94 152 c 128,-1,3
 85 161 85 161 85 171.5 c 128,-1,4
 85 182 85 182 96 193 c 2,5,-1
 120 217 l 1,6,7
 86 262 86 262 86 321.5 c 128,-1,8
 86 381 86 381 120 427 c 1,9,-1
 96 450 l 2,10,11
 86 460 86 460 86 470.5 c 128,-1,12
 86 481 86 481 94 491 c 128,-1,13
 102 501 102 501 113 501 c 128,-1,14
 124 501 124 501 134 489 c 1,15,-1
 158 465 l 1,16,17
 206 500 206 500 263 500 c 128,-1,18
 320 500 320 500 367 466 c 1,19,-1
 391 490 l 2,20,21
 401 500 401 500 410.5 500 c 128,-1,22
 420 500 420 500 430.5 490.5 c 128,-1,23
 441 481 441 481 441 471 c 128,-1,24
 441 461 441 461 430 450 c 2,25,-1
 406 426 l 1,26,27
 441 380 441 380 441 321.5 c 128,-1,28
 441 263 441 263 406 217 c 1,29,-1
 430 193 l 2,30,31
 441 182 441 182 441 172.5 c 128,-1,32
 441 163 441 163 431.5 153 c 128,-1,33
 422 143 422 143 411.5 143 c 128,-1,34
 401 143 401 143 391 154 c 2,35,-1
 367 178 l 1,36,37
 320 145 320 145 262.5 145 c 128,-1,38
 205 145 205 145 159 178 c 1,39,-1
 134 153 l 2,0,1
263 206 m 128,-1,41
 311 206 311 206 345.5 240 c 128,-1,42
 380 274 380 274 380 322 c 128,-1,43
 380 370 380 370 345.5 404.5 c 128,-1,44
 311 439 311 439 263 439 c 128,-1,45
 215 439 215 439 181 404.5 c 128,-1,46
 147 370 147 370 147 322 c 128,-1,47
 147 274 147 274 181 240 c 128,-1,40
 215 206 215 206 263 206 c 128,-1,41
EndSplineSet
EndChar

StartChar: yen
Encoding: 165 165 103
Width: 559
GlyphClass: 2
Flags: W
LayerCount: 2
Fore
SplineSet
68 191 m 2,0,1
 48 191 48 191 48 221 c 2,2,-1
 48 229 l 2,3,4
 48 259 48 259 68 259 c 2,5,-1
 235 259 l 1,6,-1
 235 355 l 1,7,-1
 68 355 l 2,8,9
 48 355 48 355 48 385 c 2,10,-1
 48 393 l 2,11,12
 48 423 48 423 68 423 c 2,13,-1
 191 423 l 1,14,-1
 26 667 l 2,15,16
 18 678 18 678 18 685 c 0,17,18
 18 702 18 702 64 702 c 2,19,-1
 75 702 l 2,20,21
 108 702 108 702 118 687 c 2,22,-1
 282 441 l 1,23,-1
 450 688 l 2,24,25
 459 702 459 702 500 702 c 128,-1,26
 541 702 541 702 541 685 c 0,27,28
 541 681 541 681 533 667 c 1,29,-1
 368 423 l 1,30,-1
 492 423 l 2,31,32
 512 423 512 423 512 393 c 2,33,-1
 512 385 l 2,34,35
 512 355 512 355 492 355 c 2,36,-1
 323 355 l 1,37,-1
 323 259 l 1,38,-1
 492 259 l 2,39,40
 512 259 512 259 512 229 c 2,41,-1
 512 221 l 2,42,43
 512 191 512 191 492 191 c 2,44,-1
 323 191 l 1,45,-1
 323 20 l 2,46,47
 323 -2 323 -2 283 -2 c 2,48,-1
 275 -2 l 2,49,50
 235 -2 235 -2 235 20 c 2,51,-1
 235 191 l 1,52,-1
 68 191 l 2,0,1
EndSplineSet
EndChar

StartChar: brokenbar
Encoding: 166 166 104
Width: 250
GlyphClass: 2
Flags: W
LayerCount: 2
Fore
SplineSet
120 403 m 2,0,1
 96 403 96 403 96 425 c 2,2,-1
 96 748 l 2,3,4
 96 770 96 770 120 770 c 2,5,-1
 130 770 l 2,6,7
 154 770 154 770 154 748 c 2,8,-1
 154 425 l 2,9,10
 154 403 154 403 130 403 c 2,11,-1
 120 403 l 2,0,1
96 -118 m 2,12,-1
 96 204 l 2,13,14
 96 226 96 226 120 226 c 2,15,-1
 130 226 l 2,16,17
 154 226 154 226 154 204 c 2,18,-1
 154 -118 l 2,19,20
 154 -140 154 -140 130 -140 c 2,21,-1
 120 -140 l 2,22,23
 96 -140 96 -140 96 -118 c 2,12,-1
EndSplineSet
EndChar

StartChar: section
Encoding: 167 167 105
Width: 429
GlyphClass: 2
Flags: W
LayerCount: 2
Fore
SplineSet
74 36 m 0,0,1
 74 49 74 49 85.5 69.5 c 128,-1,2
 97 90 97 90 106 90 c 0,3,4
 107 90 107 90 118 84 c 0,5,6
 153 66 153 66 195 66 c 128,-1,7
 237 66 237 66 258 83 c 128,-1,8
 279 100 279 100 279 125 c 128,-1,9
 279 150 279 150 262 165.5 c 128,-1,10
 245 181 245 181 219.5 188 c 128,-1,11
 194 195 194 195 164.5 207 c 128,-1,12
 135 219 135 219 109.5 233.5 c 128,-1,13
 84 248 84 248 67 280 c 128,-1,14
 50 312 50 312 50 359 c 0,15,16
 50 428 50 428 103 474 c 1,17,18
 65 509 65 509 65 572 c 128,-1,19
 65 635 65 635 112 670.5 c 128,-1,20
 159 706 159 706 217.5 706 c 128,-1,21
 276 706 276 706 316 693 c 128,-1,22
 356 680 356 680 356 664 c 0,23,24
 356 651 356 651 344.5 630.5 c 128,-1,25
 333 610 333 610 324 610 c 0,26,27
 323 610 323 610 312 616 c 0,28,29
 277 634 277 634 234.5 634 c 128,-1,30
 192 634 192 634 171.5 617.5 c 128,-1,31
 151 601 151 601 151 573.5 c 128,-1,32
 151 546 151 546 174.5 530 c 128,-1,33
 198 514 198 514 231.5 504 c 128,-1,34
 265 494 265 494 298.5 480.5 c 128,-1,35
 332 467 332 467 355.5 432.5 c 128,-1,36
 379 398 379 398 379 343 c 0,37,38
 379 270 379 270 324 227 c 1,39,40
 364 194 364 194 364 130 c 128,-1,41
 364 66 364 66 317.5 30 c 128,-1,42
 271 -6 271 -6 212.5 -6 c 128,-1,43
 154 -6 154 -6 114 7 c 128,-1,44
 74 20 74 20 74 36 c 0,0,1
294 343 m 0,45,46
 294 371 294 371 277.5 390 c 128,-1,47
 261 409 261 409 243 417 c 128,-1,48
 225 425 225 425 191 435 c 1,49,50
 135 419 135 419 135 359 c 0,51,52
 135 315 135 315 167 296 c 0,53,54
 192 280 192 280 238 266 c 1,55,56
 294 279 294 279 294 343 c 0,45,46
EndSplineSet
EndChar

StartChar: dieresis
Encoding: 168 168 106
Width: 320
GlyphClass: 2
Flags: W
LayerCount: 2
Fore
SplineSet
231 607 m 2,0,1
 191 607 191 607 191 629 c 2,2,-1
 191 680 l 2,3,4
 191 702 191 702 231 702 c 2,5,-1
 235 702 l 2,6,7
 275 702 275 702 275 680 c 2,8,-1
 275 629 l 2,9,10
 275 607 275 607 235 607 c 2,11,-1
 231 607 l 2,0,1
87 607 m 2,12,13
 47 607 47 607 47 629 c 2,14,-1
 47 680 l 2,15,16
 47 702 47 702 87 702 c 2,17,-1
 91 702 l 2,18,19
 131 702 131 702 131 680 c 2,20,-1
 131 629 l 2,21,22
 131 607 131 607 91 607 c 2,23,-1
 87 607 l 2,12,13
EndSplineSet
EndChar

StartChar: copyright
Encoding: 169 169 107
Width: 739
GlyphClass: 2
Flags: W
LayerCount: 2
Fore
SplineSet
10 354 m 128,-1,1
 10 503 10 503 114.5 606.5 c 128,-1,2
 219 710 219 710 369 710 c 128,-1,3
 519 710 519 710 624 606.5 c 128,-1,4
 729 503 729 503 729 354 c 128,-1,5
 729 205 729 205 623.5 100 c 128,-1,6
 518 -5 518 -5 369 -5 c 128,-1,7
 220 -5 220 -5 115 100 c 128,-1,0
 10 205 10 205 10 354 c 128,-1,1
149 572.5 m 128,-1,9
 58 483 58 483 58 354.5 c 128,-1,10
 58 226 58 226 149.5 134.5 c 128,-1,11
 241 43 241 43 369.5 43 c 128,-1,12
 498 43 498 43 589.5 134.5 c 128,-1,13
 681 226 681 226 681 354.5 c 128,-1,14
 681 483 681 483 589.5 572.5 c 128,-1,15
 498 662 498 662 369 662 c 128,-1,8
 240 662 240 662 149 572.5 c 128,-1,9
193 349 m 0,16,17
 193 562 193 562 387 562 c 0,18,19
 430 562 430 562 465.5 550 c 128,-1,20
 501 538 501 538 501 525 c 0,21,22
 501 517 501 517 493.5 503.5 c 128,-1,23
 486 490 486 490 480 490 c 0,24,25
 479 490 479 490 468 497 c 0,26,27
 435 517 435 517 388 517 c 0,28,29
 316 517 316 517 281.5 476.5 c 128,-1,30
 247 436 247 436 247 349.5 c 128,-1,31
 247 263 247 263 281 222.5 c 128,-1,32
 315 182 315 182 385 182 c 0,33,34
 434 182 434 182 473 204 c 0,35,36
 486 212 486 212 488 212 c 0,37,38
 494 212 494 212 501.5 199 c 128,-1,39
 509 186 509 186 509 180 c 0,40,41
 509 167 509 167 471.5 152 c 128,-1,42
 434 137 434 137 385 137 c 0,43,44
 287 137 287 137 240 189 c 128,-1,45
 193 241 193 241 193 349 c 0,16,17
EndSplineSet
EndChar

StartChar: ordfeminine
Encoding: 170 170 108
Width: 319
GlyphClass: 2
Flags: W
LayerCount: 2
Fore
SplineSet
251 517 m 2,0,1
 251 485 251 485 257 455 c 1,2,3
 257 444 257 444 230 444 c 0,4,5
 218 444 218 444 213 479 c 1,6,7
 179 441 179 441 135.5 441 c 128,-1,8
 92 441 92 441 68.5 460 c 128,-1,9
 45 479 45 479 45 509 c 128,-1,10
 45 539 45 539 55.5 556.5 c 128,-1,11
 66 574 66 574 80.5 583 c 128,-1,12
 95 592 95 592 120 597 c 0,13,14
 159 605 159 605 210 605 c 1,15,-1
 210 629 l 2,16,17
 210 670 210 670 155 670 c 0,18,19
 119 670 119 670 99 660 c 128,-1,20
 79 650 79 650 78 650 c 0,21,22
 73 650 73 650 66.5 659.5 c 128,-1,23
 60 669 60 669 60 674 c 0,24,25
 60 684 60 684 89 695 c 128,-1,26
 118 706 118 706 158.5 706 c 128,-1,27
 199 706 199 706 225 685.5 c 128,-1,28
 251 665 251 665 251 628 c 2,29,-1
 251 517 l 2,0,1
90 518 m 0,30,31
 90 478 90 478 131.5 478 c 128,-1,32
 173 478 173 478 210 511 c 1,33,-1
 210 570 l 1,34,35
 120 570 120 570 100 548 c 0,36,37
 90 536 90 536 90 518 c 0,30,31
EndSplineSet
EndChar

StartChar: guillemotleft
Encoding: 171 171 109
Width: 471
GlyphClass: 2
Flags: W
LayerCount: 2
Fore
SplineSet
216 258 m 128,-1,1
 216 270 216 270 229 286 c 2,2,-1
 359 442 l 2,3,4
 370 454 370 454 380.5 454 c 128,-1,5
 391 454 391 454 403.5 444 c 128,-1,6
 416 434 416 434 416 423.5 c 128,-1,7
 416 413 416 413 408 402 c 2,8,-1
 297 258 l 1,9,-1
 408 113 l 2,10,11
 416 102 416 102 416 93 c 128,-1,12
 416 84 416 84 404 72.5 c 128,-1,13
 392 61 392 61 381 61 c 128,-1,14
 370 61 370 61 359 74 c 2,15,-1
 229 230 l 2,16,0
 216 246 216 246 216 258 c 128,-1,1
44 258 m 128,-1,18
 44 270 44 270 57 286 c 2,19,-1
 187 442 l 2,20,21
 198 454 198 454 208.5 454 c 128,-1,22
 219 454 219 454 231.5 444 c 128,-1,23
 244 434 244 434 244 423.5 c 128,-1,24
 244 413 244 413 236 402 c 2,25,-1
 125 258 l 1,26,-1
 236 113 l 2,27,28
 244 102 244 102 244 93 c 128,-1,29
 244 84 244 84 232 72.5 c 128,-1,30
 220 61 220 61 209 61 c 128,-1,31
 198 61 198 61 187 74 c 2,32,-1
 57 230 l 2,33,17
 44 246 44 246 44 258 c 128,-1,18
EndSplineSet
EndChar

StartChar: logicalnot
Encoding: 172 172 110
Width: 560
GlyphClass: 2
Flags: W
LayerCount: 2
Fore
SplineSet
58 265 m 2,0,1
 38 265 38 265 38 295 c 2,2,-1
 38 308 l 2,3,4
 38 338 38 338 58 338 c 2,5,-1
 492 338 l 2,6,7
 522 338 522 338 522 308 c 2,8,-1
 522 99 l 2,9,10
 522 77 522 77 492 77 c 2,11,-1
 479 77 l 2,12,13
 449 77 449 77 449 99 c 2,14,-1
 449 265 l 1,15,-1
 58 265 l 2,0,1
EndSplineSet
EndChar

StartChar: uni00AD
Encoding: 173 173 111
Width: 320
GlyphClass: 2
Flags: W
LayerCount: 2
Fore
SplineSet
64 230 m 2,0,1
 44 230 44 230 44 260 c 2,2,-1
 44 270 l 2,3,4
 44 300 44 300 64 300 c 2,5,-1
 253 300 l 2,6,7
 273 300 273 300 273 270 c 2,8,-1
 273 260 l 2,9,10
 273 230 273 230 253 230 c 2,11,-1
 64 230 l 2,0,1
EndSplineSet
EndChar

StartChar: registered
Encoding: 174 174 112
Width: 739
GlyphClass: 2
Flags: W
LayerCount: 2
Fore
SplineSet
10 354 m 128,-1,1
 10 503 10 503 114.5 606.5 c 128,-1,2
 219 710 219 710 369 710 c 128,-1,3
 519 710 519 710 624 606.5 c 128,-1,4
 729 503 729 503 729 354 c 128,-1,5
 729 205 729 205 623.5 100 c 128,-1,6
 518 -5 518 -5 369 -5 c 128,-1,7
 220 -5 220 -5 115 100 c 128,-1,0
 10 205 10 205 10 354 c 128,-1,1
149 572.5 m 128,-1,9
 58 483 58 483 58 354.5 c 128,-1,10
 58 226 58 226 149.5 134.5 c 128,-1,11
 241 43 241 43 369.5 43 c 128,-1,12
 498 43 498 43 589.5 134.5 c 128,-1,13
 681 226 681 226 681 354.5 c 128,-1,14
 681 483 681 483 589.5 572.5 c 128,-1,15
 498 662 498 662 369 662 c 128,-1,8
 240 662 240 662 149 572.5 c 128,-1,9
249 158 m 2,16,-1
 249 541 l 2,17,18
 249 559 249 559 267 559 c 2,19,-1
 366 559 l 2,20,21
 508 559 508 559 508 455 c 0,22,23
 508 382 508 382 440 355 c 1,24,-1
 440 353 l 1,25,26
 457 347 457 347 468 330 c 128,-1,27
 479 313 479 313 493 279 c 2,28,-1
 539 163 l 1,29,30
 541 155 541 155 541 154 c 0,31,32
 541 145 541 145 516 145 c 2,33,-1
 510 145 l 2,34,35
 491 145 491 145 487 154 c 2,36,-1
 442 270 l 2,37,38
 429 304 429 304 409.5 316 c 128,-1,39
 390 328 390 328 354 328 c 2,40,-1
 301 328 l 1,41,-1
 301 158 l 2,42,43
 301 145 301 145 277 145 c 2,44,-1
 273 145 l 2,45,46
 249 145 249 145 249 158 c 2,16,-1
301 373 m 1,47,-1
 379 373 l 2,48,49
 410 373 410 373 432 394.5 c 128,-1,50
 454 416 454 416 454 445 c 0,51,52
 454 514 454 514 375 514 c 2,53,-1
 301 514 l 1,54,-1
 301 373 l 1,47,-1
EndSplineSet
EndChar

StartChar: macron
Encoding: 175 175 113
Width: 320
GlyphClass: 2
Flags: W
LayerCount: 2
Fore
SplineSet
47 612 m 2,0,1
 27 612 27 612 27 642 c 2,2,-1
 27 652 l 2,3,4
 27 682 27 682 47 682 c 2,5,-1
 270 682 l 2,6,7
 290 682 290 682 290 652 c 2,8,-1
 290 642 l 2,9,10
 290 612 290 612 270 612 c 2,11,-1
 47 612 l 2,0,1
EndSplineSet
EndChar

StartChar: degree
Encoding: 176 176 114
Width: 345
GlyphClass: 2
Flags: W
LayerCount: 2
Fore
SplineSet
170 441 m 128,-1,1
 115 441 115 441 76.5 479.5 c 128,-1,2
 38 518 38 518 38 573 c 128,-1,3
 38 628 38 628 76.5 667 c 128,-1,4
 115 706 115 706 170 706 c 128,-1,5
 225 706 225 706 264 667 c 128,-1,6
 303 628 303 628 303 573 c 128,-1,7
 303 518 303 518 264 479.5 c 128,-1,0
 225 441 225 441 170 441 c 128,-1,1
111.5 511.5 m 128,-1,9
 136 486 136 486 170.5 486 c 128,-1,10
 205 486 205 486 229.5 511.5 c 128,-1,11
 254 537 254 537 254 573 c 128,-1,12
 254 609 254 609 229 635 c 128,-1,13
 204 661 204 661 170 661 c 128,-1,14
 136 661 136 661 111.5 635 c 128,-1,15
 87 609 87 609 87 573 c 128,-1,8
 87 537 87 537 111.5 511.5 c 128,-1,9
EndSplineSet
EndChar

StartChar: plusminus
Encoding: 177 177 115
Width: 560
GlyphClass: 2
Flags: W
LayerCount: 2
Fore
SplineSet
247 159 m 2,0,-1
 247 327 l 1,1,-1
 78 327 l 2,2,3
 48 327 48 327 48 357 c 2,4,-1
 48 364 l 2,5,6
 48 394 48 394 78 394 c 2,7,-1
 247 394 l 1,8,-1
 247 563 l 2,9,10
 247 593 247 593 277 593 c 2,11,-1
 284 593 l 2,12,13
 314 593 314 593 314 563 c 2,14,-1
 314 394 l 1,15,-1
 482 394 l 2,16,17
 512 394 512 394 512 364 c 2,18,-1
 512 357 l 2,19,20
 512 327 512 327 482 327 c 2,21,-1
 314 327 l 1,22,-1
 314 159 l 2,23,24
 314 129 314 129 284 129 c 2,25,-1
 277 129 l 2,26,27
 247 129 247 129 247 159 c 2,0,-1
38 30 m 2,28,-1
 38 43 l 2,29,30
 38 73 38 73 68 73 c 2,31,-1
 492 73 l 2,32,33
 522 73 522 73 522 43 c 2,34,-1
 522 30 l 2,35,36
 522 0 522 0 492 0 c 2,37,-1
 68 0 l 2,38,39
 38 0 38 0 38 30 c 2,28,-1
EndSplineSet
EndChar

StartChar: twosuperior
Encoding: 178 178 116
Width: 320
GlyphClass: 2
Flags: W
LayerCount: 2
Fore
SplineSet
47 298 m 2,0,1
 35 298 35 298 35 323 c 0,2,3
 35 329 35 329 37 333 c 0,4,5
 193 528 193 528 209 553.5 c 128,-1,6
 225 579 225 579 225 605 c 128,-1,7
 225 631 225 631 206 647 c 128,-1,8
 187 663 187 663 158.5 663 c 128,-1,9
 130 663 130 663 111 655.5 c 128,-1,10
 92 648 92 648 81 641 c 128,-1,11
 70 634 70 634 66.5 634 c 128,-1,12
 63 634 63 634 55.5 645 c 128,-1,13
 48 656 48 656 48 663 c 0,14,15
 48 680 48 680 84.5 692.5 c 128,-1,16
 121 705 121 705 152 705 c 0,17,18
 209 705 209 705 242 679 c 128,-1,19
 275 653 275 653 275 610.5 c 128,-1,20
 275 568 275 568 254 534 c 128,-1,21
 233 500 233 500 143 390 c 2,22,-1
 101 339 l 1,23,-1
 267 339 l 2,24,25
 278 339 278 339 278 322 c 2,26,-1
 278 315 l 2,27,28
 278 298 278 298 267 298 c 2,29,-1
 47 298 l 2,0,1
EndSplineSet
EndChar

StartChar: threesuperior
Encoding: 179 179 117
Width: 320
GlyphClass: 2
Flags: W
LayerCount: 2
Fore
SplineSet
43 326 m 0,0,1
 43 334 43 334 50.5 344.5 c 128,-1,2
 58 355 58 355 63 355 c 0,3,4
 64 355 64 355 94 345 c 128,-1,5
 124 335 124 335 155.5 335 c 128,-1,6
 187 335 187 335 212.5 353.5 c 128,-1,7
 238 372 238 372 238 414.5 c 128,-1,8
 238 457 238 457 215.5 474 c 128,-1,9
 193 491 193 491 151 491 c 2,10,-1
 133 491 l 2,11,12
 121 491 121 491 121 509 c 2,13,-1
 121 515 l 2,14,15
 121 533 121 533 133 533 c 2,16,-1
 149 533 l 2,17,18
 189 533 189 533 207.5 557 c 128,-1,19
 226 581 226 581 226 605 c 128,-1,20
 226 629 226 629 210.5 646.5 c 128,-1,21
 195 664 195 664 164.5 664 c 128,-1,22
 134 664 134 664 115.5 659 c 128,-1,23
 97 654 97 654 87 649.5 c 128,-1,24
 77 645 77 645 73 645 c 128,-1,25
 69 645 69 645 62 656.5 c 128,-1,26
 55 668 55 668 55 675 c 0,27,28
 55 687 55 687 91 696.5 c 128,-1,29
 127 706 127 706 158 706 c 0,30,31
 212 706 212 706 244 679.5 c 128,-1,32
 276 653 276 653 276 601 c 128,-1,33
 276 549 276 549 216 524 c 1,34,-1
 216 520 l 1,35,36
 245 512 245 512 267 484.5 c 128,-1,37
 289 457 289 457 289 414 c 0,38,39
 289 353 289 353 249.5 323 c 128,-1,40
 210 293 210 293 161 293 c 128,-1,41
 112 293 112 293 77.5 304 c 128,-1,42
 43 315 43 315 43 326 c 0,0,1
EndSplineSet
EndChar

StartChar: acute
Encoding: 180 180 118
Width: 320
GlyphClass: 2
Flags: W
LayerCount: 2
Fore
SplineSet
232.5 720 m 128,-1,1
 223 708 223 708 193 674 c 128,-1,2
 163 640 163 640 147.5 622.5 c 128,-1,3
 132 605 132 605 103 605 c 128,-1,4
 74 605 74 605 74 615 c 128,-1,5
 74 625 74 625 132 726 c 0,6,7
 147 752 147 752 194.5 752 c 128,-1,8
 242 752 242 752 242 739 c 0,9,0
 242 732 242 732 232.5 720 c 128,-1,1
EndSplineSet
EndChar

StartChar: mu
Encoding: 181 181 119
Width: 566
GlyphClass: 2
Flags: W
LayerCount: 2
Fore
SplineSet
169 -186 m 2,0,1
 169 -208 169 -208 129 -208 c 2,2,-1
 125 -208 l 2,3,4
 85 -208 85 -208 85 -186 c 2,5,-1
 85 503 l 2,6,7
 85 525 85 525 125 525 c 2,8,-1
 129 525 l 2,9,10
 169 525 169 525 169 503 c 2,11,-1
 169 164 l 2,12,13
 169 118 169 118 195.5 92.5 c 128,-1,14
 222 67 222 67 271 67 c 0,15,16
 343 67 343 67 397 137 c 1,17,-1
 397 503 l 2,18,19
 397 525 397 525 437 525 c 2,20,-1
 441 525 l 2,21,22
 481 525 481 525 481 503 c 2,23,-1
 481 148 l 2,24,25
 481 88 481 88 486 61 c 0,26,27
 493 24 493 24 493 22 c 0,28,29
 493 10 493 10 474 4.5 c 128,-1,30
 455 -1 455 -1 444.5 -1 c 128,-1,31
 434 -1 434 -1 430 1 c 128,-1,32
 426 3 426 3 422.5 8 c 128,-1,33
 419 13 419 13 417 17.5 c 128,-1,34
 415 22 415 22 413 30 c 128,-1,35
 411 38 411 38 409.5 42.5 c 128,-1,36
 408 47 408 47 406.5 56.5 c 128,-1,37
 405 66 405 66 404 69 c 1,38,39
 337 -6 337 -6 248 -6 c 0,40,41
 206 -6 206 -6 169 9 c 1,42,-1
 169 -186 l 2,0,1
EndSplineSet
EndChar

StartChar: paragraph
Encoding: 182 182 120
Width: 515
GlyphClass: 2
Flags: W
LayerCount: 2
Fore
SplineSet
243 -151 m 2,0,-1
 243 247 l 1,1,2
 158 257 158 257 99.5 321.5 c 128,-1,3
 41 386 41 386 41 476.5 c 128,-1,4
 41 567 41 567 107.5 633.5 c 128,-1,5
 174 700 174 700 268 700 c 2,6,-1
 481 700 l 2,7,8
 501 700 501 700 501 676 c 2,9,-1
 501 662 l 2,10,11
 501 638 501 638 481 638 c 2,12,-1
 445 638 l 1,13,-1
 445 -151 l 2,14,15
 445 -173 445 -173 421 -173 c 2,16,-1
 407 -173 l 2,17,18
 383 -173 383 -173 383 -151 c 2,19,-1
 383 638 l 1,20,-1
 305 638 l 1,21,-1
 305 -151 l 2,22,23
 305 -173 305 -173 281 -173 c 2,24,-1
 267 -173 l 2,25,26
 243 -173 243 -173 243 -151 c 2,0,-1
EndSplineSet
EndChar

StartChar: periodcentered
Encoding: 183 183 121
Width: 267
GlyphClass: 2
Flags: W
LayerCount: 2
Fore
SplineSet
141 309 m 128,-1,1
 119 309 119 309 104.5 323.5 c 128,-1,2
 90 338 90 338 90 360 c 128,-1,3
 90 382 90 382 104.5 397 c 128,-1,4
 119 412 119 412 141 412 c 128,-1,5
 163 412 163 412 178 397 c 128,-1,6
 193 382 193 382 193 360 c 128,-1,7
 193 338 193 338 178 323.5 c 128,-1,0
 163 309 163 309 141 309 c 128,-1,1
EndSplineSet
EndChar

StartChar: cedilla
Encoding: 184 184 122
Width: 320
GlyphClass: 2
Flags: W
LayerCount: 2
Fore
SplineSet
190 -49 m 2,0,1
 206 -49 206 -49 222.5 -52.5 c 128,-1,2
 239 -56 239 -56 257 -73.5 c 128,-1,3
 275 -91 275 -91 275 -121 c 0,4,5
 275 -210 275 -210 160 -210 c 0,6,7
 121 -210 121 -210 83 -198 c 128,-1,8
 45 -186 45 -186 45 -167 c 0,9,10
 45 -141 45 -141 64 -141 c 0,11,12
 69 -141 69 -141 97 -151 c 128,-1,13
 125 -161 125 -161 147 -161 c 0,14,15
 204 -161 204 -161 204 -126 c 0,16,17
 204 -107 204 -107 187.5 -98 c 128,-1,18
 171 -89 171 -89 154.5 -84 c 128,-1,19
 138 -79 138 -79 138 -68 c 0,20,21
 138 -66 138 -66 140 -56 c 2,22,-1
 157 0 l 1,23,-1
 200 0 l 1,24,-1
 186 -49 l 1,25,-1
 190 -49 l 2,0,1
EndSplineSet
EndChar

StartChar: onesuperior
Encoding: 185 185 123
Width: 217
GlyphClass: 2
Flags: W
LayerCount: 2
Fore
SplineSet
148 297 m 2,0,1
 127 297 127 297 127 311 c 2,2,-1
 127 649 l 1,3,-1
 53 633 l 1,4,5
 41 633 41 633 41 663 c 0,6,7
 41 671 41 671 51 674 c 2,8,-1
 157 702 l 1,9,10
 175 702 175 702 175 690 c 2,11,-1
 175 311 l 2,12,13
 175 297 175 297 153 297 c 2,14,-1
 148 297 l 2,0,1
EndSplineSet
EndChar

StartChar: ordmasculine
Encoding: 186 186 124
Width: 337
GlyphClass: 2
Flags: W
LayerCount: 2
Fore
SplineSet
253.5 474.5 m 128,-1,1
 225 441 225 441 169.5 441 c 128,-1,2
 114 441 114 441 84.5 474.5 c 128,-1,3
 55 508 55 508 55 572.5 c 128,-1,4
 55 637 55 637 85 671.5 c 128,-1,5
 115 706 115 706 169.5 706 c 128,-1,6
 224 706 224 706 253 671.5 c 128,-1,7
 282 637 282 637 282 572.5 c 128,-1,0
 282 508 282 508 253.5 474.5 c 128,-1,1
168.5 477 m 128,-1,9
 239 477 239 477 239 573.5 c 128,-1,10
 239 670 239 670 168.5 670 c 128,-1,11
 98 670 98 670 98 573.5 c 128,-1,8
 98 477 98 477 168.5 477 c 128,-1,9
EndSplineSet
EndChar

StartChar: guillemotright
Encoding: 187 187 125
Width: 471
GlyphClass: 2
Flags: W
LayerCount: 2
Fore
SplineSet
238 72.5 m 128,-1,1
 226 84 226 84 226 93 c 128,-1,2
 226 102 226 102 234 113 c 2,3,-1
 345 258 l 1,4,-1
 234 402 l 2,5,6
 226 413 226 413 226 423.5 c 128,-1,7
 226 434 226 434 238.5 444 c 128,-1,8
 251 454 251 454 261.5 454 c 128,-1,9
 272 454 272 454 283 442 c 2,10,-1
 413 286 l 2,11,12
 426 270 426 270 426 258 c 128,-1,13
 426 246 426 246 413 230 c 2,14,-1
 283 74 l 2,15,16
 272 61 272 61 261 61 c 128,-1,0
 250 61 250 61 238 72.5 c 128,-1,1
89 61 m 128,-1,18
 78 61 78 61 66 72.5 c 128,-1,19
 54 84 54 84 54 93 c 128,-1,20
 54 102 54 102 62 113 c 2,21,-1
 173 258 l 1,22,-1
 62 402 l 2,23,24
 54 413 54 413 54 423.5 c 128,-1,25
 54 434 54 434 66.5 444 c 128,-1,26
 79 454 79 454 89.5 454 c 128,-1,27
 100 454 100 454 111 442 c 2,28,-1
 241 286 l 2,29,30
 254 270 254 270 254 258 c 128,-1,31
 254 246 254 246 241 230 c 2,32,-1
 111 74 l 2,33,17
 100 61 100 61 89 61 c 128,-1,18
EndSplineSet
EndChar

StartChar: onequarter
Encoding: 188 188 126
Width: 671
GlyphClass: 2
Flags: W
LayerCount: 2
Fore
SplineSet
104 -2 m 2,0,1
 90 -2 90 -2 90 4 c 128,-1,2
 90 10 90 10 94 15 c 2,3,-1
 500 686 l 2,4,5
 510 703 510 703 530 703 c 2,6,-1
 543 703 l 2,7,8
 557 703 557 703 557 696 c 0,9,10
 557 694 557 694 553 686 c 2,11,-1
 147 15 l 2,12,13
 137 -2 137 -2 117 -2 c 2,14,-1
 104 -2 l 2,0,1
148 297 m 2,15,16
 127 297 127 297 127 311 c 2,17,-1
 127 649 l 1,18,-1
 53 633 l 1,19,20
 41 633 41 633 41 663 c 0,21,22
 41 671 41 671 51 674 c 2,23,-1
 157 702 l 1,24,25
 175 702 175 702 175 690 c 2,26,-1
 175 311 l 2,27,28
 175 297 175 297 153 297 c 2,29,-1
 148 297 l 2,15,16
346 97.5 m 128,-1,31
 341 108 341 108 341 115 c 128,-1,32
 341 122 341 122 342 124 c 2,33,-1
 532 396 l 2,34,35
 538 404 538 404 552 404 c 2,36,-1
 561 404 l 2,37,38
 578 404 578 404 578 391 c 2,39,-1
 578 129 l 1,40,-1
 617 129 l 2,41,42
 628 129 628 129 628 112 c 2,43,-1
 628 105 l 2,44,45
 628 87 628 87 617 87 c 2,46,-1
 578 87 l 1,47,-1
 578 11 l 2,48,49
 578 -2 578 -2 561 -2 c 2,50,-1
 548 -2 l 2,51,52
 530 -2 530 -2 530 11 c 2,53,-1
 530 87 l 1,54,-1
 355 87 l 2,55,30
 351 87 351 87 346 97.5 c 128,-1,31
530 129 m 1,56,-1
 530 260 l 1,57,-1
 532 322 l 1,58,-1
 529 324 l 1,59,-1
 398 129 l 1,60,-1
 530 129 l 1,56,-1
EndSplineSet
EndChar

StartChar: onehalf
Encoding: 189 189 127
Width: 746
GlyphClass: 2
Flags: W
LayerCount: 2
Fore
SplineSet
104 -2 m 2,0,1
 90 -2 90 -2 90 4 c 128,-1,2
 90 10 90 10 94 15 c 2,3,-1
 500 686 l 2,4,5
 510 703 510 703 530 703 c 2,6,-1
 543 703 l 2,7,8
 557 703 557 703 557 696 c 0,9,10
 557 694 557 694 553 686 c 2,11,-1
 147 15 l 2,12,13
 137 -2 137 -2 117 -2 c 2,14,-1
 104 -2 l 2,0,1
148 297 m 2,15,16
 127 297 127 297 127 311 c 2,17,-1
 127 649 l 1,18,-1
 53 633 l 1,19,20
 41 633 41 633 41 663 c 0,21,22
 41 671 41 671 51 674 c 2,23,-1
 157 702 l 1,24,25
 175 702 175 702 175 690 c 2,26,-1
 175 311 l 2,27,28
 175 297 175 297 153 297 c 2,29,-1
 148 297 l 2,15,16
446 25 m 0,30,31
 446 31 446 31 448 35 c 0,32,33
 604 230 604 230 620 255 c 128,-1,34
 636 280 636 280 636 306.5 c 128,-1,35
 636 333 636 333 617 349 c 128,-1,36
 598 365 598 365 569.5 365 c 128,-1,37
 541 365 541 365 522 357.5 c 128,-1,38
 503 350 503 350 492 343 c 128,-1,39
 481 336 481 336 477.5 336 c 128,-1,40
 474 336 474 336 466.5 347 c 128,-1,41
 459 358 459 358 459 365 c 0,42,43
 459 382 459 382 495.5 394.5 c 128,-1,44
 532 407 532 407 563 407 c 0,45,46
 620 407 620 407 653 381 c 128,-1,47
 686 355 686 355 686 312.5 c 128,-1,48
 686 270 686 270 665 236 c 128,-1,49
 644 202 644 202 554 92 c 2,50,-1
 512 41 l 1,51,-1
 678 41 l 2,52,53
 689 41 689 41 689 24 c 2,54,-1
 689 17 l 2,55,56
 689 0 689 0 678 0 c 2,57,-1
 458 0 l 2,58,59
 446 0 446 0 446 25 c 0,30,31
EndSplineSet
EndChar

StartChar: threequarters
Encoding: 190 190 128
Width: 738
GlyphClass: 2
Flags: W
LayerCount: 2
Fore
SplineSet
39 326 m 0,0,1
 39 334 39 334 46.5 344.5 c 128,-1,2
 54 355 54 355 59 355 c 0,3,4
 60 355 60 355 90 345 c 128,-1,5
 120 335 120 335 151.5 335 c 128,-1,6
 183 335 183 335 208.5 353.5 c 128,-1,7
 234 372 234 372 234 414.5 c 128,-1,8
 234 457 234 457 211.5 474 c 128,-1,9
 189 491 189 491 147 491 c 2,10,-1
 129 491 l 2,11,12
 117 491 117 491 117 509 c 2,13,-1
 117 515 l 2,14,15
 117 533 117 533 129 533 c 2,16,-1
 145 533 l 2,17,18
 185 533 185 533 203.5 557 c 128,-1,19
 222 581 222 581 222 605 c 128,-1,20
 222 629 222 629 206.5 646.5 c 128,-1,21
 191 664 191 664 160.5 664 c 128,-1,22
 130 664 130 664 111.5 659 c 128,-1,23
 93 654 93 654 83 649.5 c 128,-1,24
 73 645 73 645 69 645 c 128,-1,25
 65 645 65 645 58 656.5 c 128,-1,26
 51 668 51 668 51 675 c 0,27,28
 51 687 51 687 87 696.5 c 128,-1,29
 123 706 123 706 154 706 c 0,30,31
 208 706 208 706 240 679.5 c 128,-1,32
 272 653 272 653 272 601 c 128,-1,33
 272 549 272 549 212 524 c 1,34,-1
 212 520 l 1,35,36
 241 512 241 512 263 484.5 c 128,-1,37
 285 457 285 457 285 414 c 0,38,39
 285 353 285 353 245.5 323 c 128,-1,40
 206 293 206 293 157 293 c 128,-1,41
 108 293 108 293 73.5 304 c 128,-1,42
 39 315 39 315 39 326 c 0,0,1
169 -2 m 2,43,44
 155 -2 155 -2 155 4 c 128,-1,45
 155 10 155 10 159 15 c 2,46,-1
 565 686 l 2,47,48
 575 703 575 703 595 703 c 2,49,-1
 608 703 l 2,50,51
 622 703 622 703 622 696 c 0,52,53
 622 694 622 694 618 686 c 2,54,-1
 212 15 l 2,55,56
 202 -2 202 -2 182 -2 c 2,57,-1
 169 -2 l 2,43,44
415 97.5 m 128,-1,59
 410 108 410 108 410 115 c 128,-1,60
 410 122 410 122 411 124 c 2,61,-1
 601 396 l 2,62,63
 607 404 607 404 621 404 c 2,64,-1
 630 404 l 2,65,66
 647 404 647 404 647 391 c 2,67,-1
 647 129 l 1,68,-1
 686 129 l 2,69,70
 697 129 697 129 697 112 c 2,71,-1
 697 105 l 2,72,73
 697 87 697 87 686 87 c 2,74,-1
 647 87 l 1,75,-1
 647 11 l 2,76,77
 647 -2 647 -2 630 -2 c 2,78,-1
 617 -2 l 2,79,80
 599 -2 599 -2 599 11 c 2,81,-1
 599 87 l 1,82,-1
 424 87 l 2,83,58
 420 87 420 87 415 97.5 c 128,-1,59
599 129 m 1,84,-1
 599 260 l 1,85,-1
 601 322 l 1,86,-1
 598 324 l 1,87,-1
 467 129 l 1,88,-1
 599 129 l 1,84,-1
EndSplineSet
EndChar

StartChar: questiondown
Encoding: 191 191 129
Width: 425
GlyphClass: 2
Flags: W
LayerCount: 2
Fore
SplineSet
253 415 m 2,0,1
 213 415 213 415 213 437 c 2,2,-1
 213 503 l 2,3,4
 213 525 213 525 253 525 c 2,5,-1
 270 525 l 2,6,7
 310 525 310 525 310 503 c 2,8,-1
 310 437 l 2,9,10
 310 415 310 415 270 415 c 2,11,-1
 253 415 l 2,0,1
84 122 m 0,12,13
 112 150 112 150 140 178 c 0,14,15
 210 245 210 245 217 301 c 0,16,17
 220 321 220 321 250 321 c 2,18,-1
 265 321 l 2,19,20
 295 321 295 321 295 298 c 0,21,22
 295 225 295 225 209 139 c 0,23,24
 175 105 175 105 160 88.5 c 128,-1,25
 145 72 145 72 129.5 45 c 128,-1,26
 114 18 114 18 114 -5 c 0,27,28
 114 -109 114 -109 240 -109 c 0,29,30
 278 -109 278 -109 320 -92 c 128,-1,31
 362 -75 362 -75 364 -75 c 0,32,33
 371 -75 371 -75 383.5 -95 c 128,-1,34
 396 -115 396 -115 396 -126 c 0,35,36
 396 -150 396 -150 340 -166.5 c 128,-1,37
 284 -183 284 -183 224 -183 c 0,38,39
 128 -183 128 -183 73.5 -134.5 c 128,-1,40
 19 -86 19 -86 19 -16 c 128,-1,41
 19 54 19 54 84 122 c 0,12,13
EndSplineSet
EndChar

StartChar: Agrave
Encoding: 192 192 130
Width: 613
GlyphClass: 2
Flags: W
LayerCount: 2
Fore
SplineSet
12 15 m 0,0,1
 12 20 12 20 15 29 c 2,2,-1
 252 686 l 2,3,4
 257 702 257 702 292 702 c 2,5,-1
 321 702 l 2,6,7
 356 702 356 702 361 686 c 2,8,-1
 598 28 l 2,9,10
 601 21 601 21 601 15 c 0,11,12
 601 -2 601 -2 558 -2 c 2,13,-1
 550 -2 l 2,14,15
 515 -2 515 -2 510 14 c 2,16,-1
 451 178 l 1,17,-1
 157 178 l 1,18,-1
 100 14 l 2,19,20
 95 -2 95 -2 60 -2 c 2,21,-1
 55 -2 l 2,22,23
 12 -2 12 -2 12 15 c 0,0,1
185 254 m 1,24,-1
 424 254 l 1,25,-1
 319 552 l 1,26,-1
 306 610 l 1,27,-1
 290 552 l 1,28,-1
 185 254 l 1,24,-1
374 795 m 128,-1,30
 374 785 374 785 345 785 c 128,-1,31
 316 785 316 785 300 803 c 0,32,33
 212 904 212 904 209 909.5 c 128,-1,34
 206 915 206 915 206 919 c 0,35,36
 206 932 206 932 253.5 932 c 128,-1,37
 301 932 301 932 316 906 c 0,38,29
 374 805 374 805 374 795 c 128,-1,30
EndSplineSet
EndChar

StartChar: Aacute
Encoding: 193 193 131
Width: 613
GlyphClass: 2
Flags: W
LayerCount: 2
Fore
SplineSet
12 15 m 0,0,1
 12 20 12 20 15 29 c 2,2,-1
 252 686 l 2,3,4
 257 702 257 702 292 702 c 2,5,-1
 321 702 l 2,6,7
 356 702 356 702 361 686 c 2,8,-1
 598 28 l 2,9,10
 601 21 601 21 601 15 c 0,11,12
 601 -2 601 -2 558 -2 c 2,13,-1
 550 -2 l 2,14,15
 515 -2 515 -2 510 14 c 2,16,-1
 451 178 l 1,17,-1
 157 178 l 1,18,-1
 100 14 l 2,19,20
 95 -2 95 -2 60 -2 c 2,21,-1
 55 -2 l 2,22,23
 12 -2 12 -2 12 15 c 0,0,1
185 254 m 1,24,-1
 424 254 l 1,25,-1
 319 552 l 1,26,-1
 306 610 l 1,27,-1
 290 552 l 1,28,-1
 185 254 l 1,24,-1
409.5 900 m 128,-1,30
 400 888 400 888 370 854 c 128,-1,31
 340 820 340 820 324 802.5 c 128,-1,32
 308 785 308 785 279.5 785 c 128,-1,33
 251 785 251 785 251 795 c 128,-1,34
 251 805 251 805 309 906 c 0,35,36
 324 932 324 932 371.5 932 c 128,-1,37
 419 932 419 932 419 919 c 0,38,29
 419 912 419 912 409.5 900 c 128,-1,30
EndSplineSet
EndChar

StartChar: Acircumflex
Encoding: 194 194 132
Width: 613
GlyphClass: 2
Flags: W
LayerCount: 2
Fore
SplineSet
12 15 m 0,0,1
 12 20 12 20 15 29 c 2,2,-1
 252 686 l 2,3,4
 257 702 257 702 292 702 c 2,5,-1
 321 702 l 2,6,7
 356 702 356 702 361 686 c 2,8,-1
 598 28 l 2,9,10
 601 21 601 21 601 15 c 0,11,12
 601 -2 601 -2 558 -2 c 2,13,-1
 550 -2 l 2,14,15
 515 -2 515 -2 510 14 c 2,16,-1
 451 178 l 1,17,-1
 157 178 l 1,18,-1
 100 14 l 2,19,20
 95 -2 95 -2 60 -2 c 2,21,-1
 55 -2 l 2,22,23
 12 -2 12 -2 12 15 c 0,0,1
185 254 m 1,24,-1
 424 254 l 1,25,-1
 319 552 l 1,26,-1
 306 610 l 1,27,-1
 290 552 l 1,28,-1
 185 254 l 1,24,-1
245 777 m 1,29,30
 231 764 231 764 208.5 764 c 128,-1,31
 186 764 186 764 186 778 c 0,32,33
 186 786 186 786 192 796 c 2,34,-1
 248 884 l 2,35,36
 263 906 263 906 294 906 c 2,37,-1
 319 906 l 2,38,39
 350 906 350 906 365 884 c 2,40,-1
 422 796 l 2,41,42
 428 787 428 787 428 779 c 0,43,44
 428 764 428 764 405.5 764 c 128,-1,45
 383 764 383 764 369 777 c 1,46,-1
 306 851 l 1,47,-1
 245 777 l 1,29,30
EndSplineSet
EndChar

StartChar: Atilde
Encoding: 195 195 133
Width: 613
GlyphClass: 2
Flags: W
LayerCount: 2
Fore
SplineSet
12 15 m 0,0,1
 12 20 12 20 15 29 c 2,2,-1
 252 686 l 2,3,4
 257 702 257 702 292 702 c 2,5,-1
 321 702 l 2,6,7
 356 702 356 702 361 686 c 2,8,-1
 598 28 l 2,9,10
 601 21 601 21 601 15 c 0,11,12
 601 -2 601 -2 558 -2 c 2,13,-1
 550 -2 l 2,14,15
 515 -2 515 -2 510 14 c 2,16,-1
 451 178 l 1,17,-1
 157 178 l 1,18,-1
 100 14 l 2,19,20
 95 -2 95 -2 60 -2 c 2,21,-1
 55 -2 l 2,22,23
 12 -2 12 -2 12 15 c 0,0,1
185 254 m 1,24,-1
 424 254 l 1,25,-1
 319 552 l 1,26,-1
 306 610 l 1,27,-1
 290 552 l 1,28,-1
 185 254 l 1,24,-1
289 805 m 128,-1,30
 248 815 248 815 235 815 c 128,-1,31
 222 815 222 815 205 808.5 c 128,-1,32
 188 802 188 802 177 802 c 128,-1,33
 166 802 166 802 157 812.5 c 128,-1,34
 148 823 148 823 148 832 c 0,35,36
 148 851 148 851 182 869.5 c 128,-1,37
 216 888 216 888 250 888 c 128,-1,38
 284 888 284 888 324.5 878 c 128,-1,39
 365 868 365 868 381 868 c 128,-1,40
 397 868 397 868 412.5 874.5 c 128,-1,41
 428 881 428 881 437.5 881 c 128,-1,42
 447 881 447 881 456.5 870 c 128,-1,43
 466 859 466 859 466 851 c 0,44,45
 466 832 466 832 432 813.5 c 128,-1,46
 398 795 398 795 364 795 c 128,-1,29
 330 795 330 795 289 805 c 128,-1,30
EndSplineSet
EndChar

StartChar: Adieresis
Encoding: 196 196 134
Width: 613
GlyphClass: 2
Flags: W
LayerCount: 2
Fore
SplineSet
12 15 m 0,0,1
 12 20 12 20 15 29 c 2,2,-1
 252 686 l 2,3,4
 257 702 257 702 292 702 c 2,5,-1
 321 702 l 2,6,7
 356 702 356 702 361 686 c 2,8,-1
 598 28 l 2,9,10
 601 21 601 21 601 15 c 0,11,12
 601 -2 601 -2 558 -2 c 2,13,-1
 550 -2 l 2,14,15
 515 -2 515 -2 510 14 c 2,16,-1
 451 178 l 1,17,-1
 157 178 l 1,18,-1
 100 14 l 2,19,20
 95 -2 95 -2 60 -2 c 2,21,-1
 55 -2 l 2,22,23
 12 -2 12 -2 12 15 c 0,0,1
185 254 m 1,24,-1
 424 254 l 1,25,-1
 319 552 l 1,26,-1
 306 610 l 1,27,-1
 290 552 l 1,28,-1
 185 254 l 1,24,-1
377 787 m 2,29,30
 337 787 337 787 337 809 c 2,31,-1
 337 860 l 2,32,33
 337 882 337 882 377 882 c 2,34,-1
 381 882 l 2,35,36
 421 882 421 882 421 860 c 2,37,-1
 421 809 l 2,38,39
 421 787 421 787 381 787 c 2,40,-1
 377 787 l 2,29,30
233 787 m 2,41,42
 193 787 193 787 193 809 c 2,43,-1
 193 860 l 2,44,45
 193 882 193 882 233 882 c 2,46,-1
 237 882 l 2,47,48
 277 882 277 882 277 860 c 2,49,-1
 277 809 l 2,50,51
 277 787 277 787 237 787 c 2,52,-1
 233 787 l 2,41,42
EndSplineSet
EndChar

StartChar: Aring
Encoding: 197 197 135
Width: 613
GlyphClass: 2
Flags: W
LayerCount: 2
Fore
SplineSet
12 15 m 0,0,1
 12 20 12 20 15 29 c 2,2,-1
 252 686 l 2,3,4
 257 702 257 702 292 702 c 2,5,-1
 321 702 l 2,6,7
 356 702 356 702 361 686 c 2,8,-1
 598 28 l 2,9,10
 601 21 601 21 601 15 c 0,11,12
 601 -2 601 -2 558 -2 c 2,13,-1
 550 -2 l 2,14,15
 515 -2 515 -2 510 14 c 2,16,-1
 451 178 l 1,17,-1
 157 178 l 1,18,-1
 100 14 l 2,19,20
 95 -2 95 -2 60 -2 c 2,21,-1
 55 -2 l 2,22,23
 12 -2 12 -2 12 15 c 0,0,1
185 254 m 1,24,-1
 424 254 l 1,25,-1
 319 552 l 1,26,-1
 306 610 l 1,27,-1
 290 552 l 1,28,-1
 185 254 l 1,24,-1
307 744 m 128,-1,30
 272 744 272 744 247.5 768.5 c 128,-1,31
 223 793 223 793 223 828 c 128,-1,32
 223 863 223 863 247.5 888 c 128,-1,33
 272 913 272 913 307 913 c 128,-1,34
 342 913 342 913 367 888 c 128,-1,35
 392 863 392 863 392 828 c 128,-1,36
 392 793 392 793 367 768.5 c 128,-1,29
 342 744 342 744 307 744 c 128,-1,30
307 779 m 128,-1,38
 328 779 328 779 342.5 793 c 128,-1,39
 357 807 357 807 357 828 c 128,-1,40
 357 849 357 849 342.5 863.5 c 128,-1,41
 328 878 328 878 307 878 c 128,-1,42
 286 878 286 878 272 863.5 c 128,-1,43
 258 849 258 849 258 828 c 128,-1,44
 258 807 258 807 272 793 c 128,-1,37
 286 779 286 779 307 779 c 128,-1,38
EndSplineSet
EndChar

StartChar: AE
Encoding: 198 198 136
Width: 915
GlyphClass: 2
Flags: W
LayerCount: 2
Fore
SplineSet
-11 15 m 0,0,1
 -11 23 -11 23 -7 31 c 2,2,-1
 314 673 l 2,3,4
 327 700 327 700 357 700 c 2,5,-1
 802 700 l 2,6,7
 822 700 822 700 822 670 c 2,8,-1
 822 654 l 2,9,10
 822 624 822 624 802 624 c 2,11,-1
 440 624 l 1,12,-1
 490 396 l 1,13,-1
 772 396 l 2,14,15
 792 396 792 396 792 366 c 2,16,-1
 792 350 l 2,17,18
 792 320 792 320 772 320 c 2,19,-1
 506 320 l 1,20,-1
 559 76 l 1,21,-1
 803 76 l 2,22,23
 823 76 823 76 823 46 c 2,24,-1
 823 30 l 2,25,26
 823 0 823 0 803 0 c 2,27,-1
 516 0 l 2,28,29
 486 0 486 0 480 29 c 2,30,-1
 448 178 l 1,31,-1
 153 178 l 1,32,-1
 73 14 l 1,33,34
 64 -2 64 -2 33 -2 c 2,35,-1
 28 -2 l 2,36,37
 -11 -2 -11 -2 -11 15 c 0,0,1
192 253 m 1,38,-1
 431 253 l 1,39,-1
 367 552 l 1,40,-1
 363 610 l 1,41,-1
 340 552 l 1,42,-1
 192 253 l 1,38,-1
EndSplineSet
EndChar

StartChar: Ccedilla
Encoding: 199 199 137
Width: 619
GlyphClass: 2
Flags: W
LayerCount: 2
Fore
SplineSet
57 350 m 0,0,1
 57 706 57 706 381 706 c 0,2,3
 453 706 453 706 512.5 685.5 c 128,-1,4
 572 665 572 665 572 644 c 0,5,6
 572 630 572 630 559.5 608 c 128,-1,7
 547 586 547 586 538 586 c 0,8,9
 536 586 536 586 516.5 597 c 128,-1,10
 497 608 497 608 461 619 c 128,-1,11
 425 630 425 630 383 630 c 0,12,13
 262 630 262 630 205 563 c 128,-1,14
 148 496 148 496 148 350.5 c 128,-1,15
 148 205 148 205 204.5 137.5 c 128,-1,16
 261 70 261 70 379 70 c 0,17,18
 424 70 424 70 464 82.5 c 128,-1,19
 504 95 504 95 526 107.5 c 128,-1,20
 548 120 548 120 551 120 c 0,21,22
 560 120 560 120 573 98 c 128,-1,23
 586 76 586 76 586 66 c 0,24,25
 586 43 586 43 523.5 18.5 c 128,-1,26
 461 -6 461 -6 379 -6 c 2,27,-1
 369 -6 l 1,28,-1
 357 -49 l 1,29,-1
 361 -49 l 2,30,31
 377 -49 377 -49 393.5 -52.5 c 128,-1,32
 410 -56 410 -56 428 -73.5 c 128,-1,33
 446 -91 446 -91 446 -121 c 0,34,35
 446 -210 446 -210 331 -210 c 0,36,37
 292 -210 292 -210 254 -198 c 128,-1,38
 216 -186 216 -186 216 -167 c 0,39,40
 216 -141 216 -141 235 -141 c 0,41,42
 240 -141 240 -141 268 -151 c 128,-1,43
 296 -161 296 -161 318 -161 c 0,44,45
 375 -161 375 -161 375 -126 c 0,46,47
 375 -107 375 -107 358.5 -98 c 128,-1,48
 342 -89 342 -89 325.5 -84 c 128,-1,49
 309 -79 309 -79 309 -68 c 0,50,51
 309 -66 309 -66 311 -56 c 2,52,-1
 327 -3 l 1,53,54
 189 9 189 9 123 95.5 c 128,-1,55
 57 182 57 182 57 350 c 0,0,1
EndSplineSet
EndChar

StartChar: Egrave
Encoding: 200 200 138
Width: 546
GlyphClass: 2
Flags: W
LayerCount: 2
Fore
SplineSet
97 30 m 2,0,-1
 97 670 l 2,1,2
 97 700 97 700 127 700 c 2,3,-1
 476 700 l 2,4,5
 496 700 496 700 496 670 c 2,6,-1
 496 654 l 2,7,8
 496 624 496 624 476 624 c 2,9,-1
 185 624 l 1,10,-1
 185 396 l 1,11,-1
 446 396 l 2,12,13
 466 396 466 396 466 366 c 2,14,-1
 466 350 l 2,15,16
 466 320 466 320 446 320 c 2,17,-1
 185 320 l 1,18,-1
 185 76 l 1,19,-1
 477 76 l 2,20,21
 497 76 497 76 497 46 c 2,22,-1
 497 30 l 2,23,24
 497 0 497 0 477 0 c 2,25,-1
 127 0 l 2,26,27
 97 0 97 0 97 30 c 2,0,-1
365 795 m 128,-1,29
 365 785 365 785 336.5 785 c 128,-1,30
 308 785 308 785 291 803 c 0,31,32
 203 904 203 904 200 909.5 c 128,-1,33
 197 915 197 915 197 919 c 0,34,35
 197 932 197 932 244.5 932 c 128,-1,36
 292 932 292 932 307 906 c 0,37,28
 365 805 365 805 365 795 c 128,-1,29
EndSplineSet
EndChar

StartChar: Eacute
Encoding: 201 201 139
Width: 546
GlyphClass: 2
Flags: W
LayerCount: 2
Fore
SplineSet
97 30 m 2,0,-1
 97 670 l 2,1,2
 97 700 97 700 127 700 c 2,3,-1
 476 700 l 2,4,5
 496 700 496 700 496 670 c 2,6,-1
 496 654 l 2,7,8
 496 624 496 624 476 624 c 2,9,-1
 185 624 l 1,10,-1
 185 396 l 1,11,-1
 446 396 l 2,12,13
 466 396 466 396 466 366 c 2,14,-1
 466 350 l 2,15,16
 466 320 466 320 446 320 c 2,17,-1
 185 320 l 1,18,-1
 185 76 l 1,19,-1
 477 76 l 2,20,21
 497 76 497 76 497 46 c 2,22,-1
 497 30 l 2,23,24
 497 0 497 0 477 0 c 2,25,-1
 127 0 l 2,26,27
 97 0 97 0 97 30 c 2,0,-1
400.5 900 m 128,-1,29
 391 888 391 888 361 854 c 128,-1,30
 331 820 331 820 315.5 802.5 c 128,-1,31
 300 785 300 785 271 785 c 128,-1,32
 242 785 242 785 242 795 c 128,-1,33
 242 805 242 805 300 906 c 0,34,35
 315 932 315 932 362.5 932 c 128,-1,36
 410 932 410 932 410 919 c 0,37,28
 410 912 410 912 400.5 900 c 128,-1,29
EndSplineSet
EndChar

StartChar: Ecircumflex
Encoding: 202 202 140
Width: 546
GlyphClass: 2
Flags: W
LayerCount: 2
Fore
SplineSet
97 30 m 2,0,-1
 97 670 l 2,1,2
 97 700 97 700 127 700 c 2,3,-1
 476 700 l 2,4,5
 496 700 496 700 496 670 c 2,6,-1
 496 654 l 2,7,8
 496 624 496 624 476 624 c 2,9,-1
 185 624 l 1,10,-1
 185 396 l 1,11,-1
 446 396 l 2,12,13
 466 396 466 396 466 366 c 2,14,-1
 466 350 l 2,15,16
 466 320 466 320 446 320 c 2,17,-1
 185 320 l 1,18,-1
 185 76 l 1,19,-1
 477 76 l 2,20,21
 497 76 497 76 497 46 c 2,22,-1
 497 30 l 2,23,24
 497 0 497 0 477 0 c 2,25,-1
 127 0 l 2,26,27
 97 0 97 0 97 30 c 2,0,-1
236 777 m 1,28,29
 222 764 222 764 199.5 764 c 128,-1,30
 177 764 177 764 177 778 c 0,31,32
 177 786 177 786 183 796 c 2,33,-1
 239 884 l 2,34,35
 254 906 254 906 285 906 c 2,36,-1
 310 906 l 2,37,38
 341 906 341 906 356 884 c 2,39,-1
 413 796 l 2,40,41
 419 787 419 787 419 779 c 0,42,43
 419 764 419 764 396.5 764 c 128,-1,44
 374 764 374 764 360 777 c 1,45,-1
 297 851 l 1,46,-1
 236 777 l 1,28,29
EndSplineSet
EndChar

StartChar: Edieresis
Encoding: 203 203 141
Width: 546
GlyphClass: 2
Flags: W
LayerCount: 2
Fore
SplineSet
97 30 m 2,0,-1
 97 670 l 2,1,2
 97 700 97 700 127 700 c 2,3,-1
 476 700 l 2,4,5
 496 700 496 700 496 670 c 2,6,-1
 496 654 l 2,7,8
 496 624 496 624 476 624 c 2,9,-1
 185 624 l 1,10,-1
 185 396 l 1,11,-1
 446 396 l 2,12,13
 466 396 466 396 466 366 c 2,14,-1
 466 350 l 2,15,16
 466 320 466 320 446 320 c 2,17,-1
 185 320 l 1,18,-1
 185 76 l 1,19,-1
 477 76 l 2,20,21
 497 76 497 76 497 46 c 2,22,-1
 497 30 l 2,23,24
 497 0 497 0 477 0 c 2,25,-1
 127 0 l 2,26,27
 97 0 97 0 97 30 c 2,0,-1
368 787 m 2,28,29
 328 787 328 787 328 809 c 2,30,-1
 328 860 l 2,31,32
 328 882 328 882 368 882 c 2,33,-1
 372 882 l 2,34,35
 412 882 412 882 412 860 c 2,36,-1
 412 809 l 2,37,38
 412 787 412 787 372 787 c 2,39,-1
 368 787 l 2,28,29
224 787 m 2,40,41
 184 787 184 787 184 809 c 2,42,-1
 184 860 l 2,43,44
 184 882 184 882 224 882 c 2,45,-1
 228 882 l 2,46,47
 268 882 268 882 268 860 c 2,48,-1
 268 809 l 2,49,50
 268 787 268 787 228 787 c 2,51,-1
 224 787 l 2,40,41
EndSplineSet
EndChar

StartChar: Igrave
Encoding: 204 204 142
Width: 282
GlyphClass: 2
Flags: W
LayerCount: 2
Fore
SplineSet
97 20 m 2,0,-1
 97 680 l 2,1,2
 97 702 97 702 137 702 c 2,3,-1
 145 702 l 2,4,5
 185 702 185 702 185 680 c 2,6,-1
 185 20 l 2,7,8
 185 -2 185 -2 145 -2 c 2,9,-1
 137 -2 l 2,10,11
 97 -2 97 -2 97 20 c 2,0,-1
208 795 m 128,-1,13
 208 785 208 785 179 785 c 128,-1,14
 150 785 150 785 134 803 c 0,15,16
 46 904 46 904 43 909.5 c 128,-1,17
 40 915 40 915 40 919 c 0,18,19
 40 932 40 932 87.5 932 c 128,-1,20
 135 932 135 932 150 906 c 0,21,12
 208 805 208 805 208 795 c 128,-1,13
EndSplineSet
EndChar

StartChar: Iacute
Encoding: 205 205 143
Width: 282
GlyphClass: 2
Flags: W
LayerCount: 2
Fore
SplineSet
97 20 m 2,0,-1
 97 680 l 2,1,2
 97 702 97 702 137 702 c 2,3,-1
 145 702 l 2,4,5
 185 702 185 702 185 680 c 2,6,-1
 185 20 l 2,7,8
 185 -2 185 -2 145 -2 c 2,9,-1
 137 -2 l 2,10,11
 97 -2 97 -2 97 20 c 2,0,-1
243.5 900 m 128,-1,13
 234 888 234 888 204 854 c 128,-1,14
 174 820 174 820 158.5 802.5 c 128,-1,15
 143 785 143 785 114 785 c 128,-1,16
 85 785 85 785 85 795 c 128,-1,17
 85 805 85 805 143 906 c 0,18,19
 158 932 158 932 205.5 932 c 128,-1,20
 253 932 253 932 253 919 c 0,21,12
 253 912 253 912 243.5 900 c 128,-1,13
EndSplineSet
EndChar

StartChar: Icircumflex
Encoding: 206 206 144
Width: 282
GlyphClass: 2
Flags: W
LayerCount: 2
Fore
SplineSet
97 20 m 2,0,-1
 97 680 l 2,1,2
 97 702 97 702 137 702 c 2,3,-1
 145 702 l 2,4,5
 185 702 185 702 185 680 c 2,6,-1
 185 20 l 2,7,8
 185 -2 185 -2 145 -2 c 2,9,-1
 137 -2 l 2,10,11
 97 -2 97 -2 97 20 c 2,0,-1
79 777 m 1,12,13
 65 764 65 764 42.5 764 c 128,-1,14
 20 764 20 764 20 778 c 0,15,16
 20 786 20 786 26 796 c 2,17,-1
 82 884 l 2,18,19
 97 906 97 906 128 906 c 2,20,-1
 153 906 l 2,21,22
 184 906 184 906 199 884 c 2,23,-1
 256 796 l 2,24,25
 262 787 262 787 262 779 c 0,26,27
 262 764 262 764 239.5 764 c 128,-1,28
 217 764 217 764 203 777 c 1,29,-1
 140 851 l 1,30,-1
 79 777 l 1,12,13
EndSplineSet
EndChar

StartChar: Idieresis
Encoding: 207 207 145
Width: 282
GlyphClass: 2
Flags: W
LayerCount: 2
Fore
SplineSet
97 20 m 2,0,-1
 97 680 l 2,1,2
 97 702 97 702 137 702 c 2,3,-1
 145 702 l 2,4,5
 185 702 185 702 185 680 c 2,6,-1
 185 20 l 2,7,8
 185 -2 185 -2 145 -2 c 2,9,-1
 137 -2 l 2,10,11
 97 -2 97 -2 97 20 c 2,0,-1
211 787 m 2,12,13
 171 787 171 787 171 809 c 2,14,-1
 171 860 l 2,15,16
 171 882 171 882 211 882 c 2,17,-1
 215 882 l 2,18,19
 255 882 255 882 255 860 c 2,20,-1
 255 809 l 2,21,22
 255 787 255 787 215 787 c 2,23,-1
 211 787 l 2,12,13
67 787 m 2,24,25
 27 787 27 787 27 809 c 2,26,-1
 27 860 l 2,27,28
 27 882 27 882 67 882 c 2,29,-1
 71 882 l 2,30,31
 111 882 111 882 111 860 c 2,32,-1
 111 809 l 2,33,34
 111 787 111 787 71 787 c 2,35,-1
 67 787 l 2,24,25
EndSplineSet
EndChar

StartChar: Eth
Encoding: 208 208 146
Width: 696
GlyphClass: 2
Flags: W
LayerCount: 2
Fore
SplineSet
85 30 m 2,0,-1
 85 320 l 1,1,-1
 20 320 l 2,2,3
 0 320 0 320 0 350 c 2,4,-1
 0 366 l 2,5,6
 0 396 0 396 20 396 c 2,7,-1
 85 396 l 1,8,-1
 85 670 l 2,9,10
 85 700 85 700 115 700 c 2,11,-1
 330 700 l 2,12,13
 464 700 464 700 550 622 c 0,14,15
 641 539 641 539 641 350 c 0,16,17
 641 83 641 83 452 18 c 0,18,19
 397 0 397 0 330 0 c 2,20,-1
 115 0 l 2,21,22
 85 0 85 0 85 30 c 2,0,-1
173 76 m 1,23,-1
 323 76 l 2,24,25
 425 76 425 76 487.5 142 c 128,-1,26
 550 208 550 208 550 349.5 c 128,-1,27
 550 491 550 491 487.5 557.5 c 128,-1,28
 425 624 425 624 323 624 c 2,29,-1
 173 624 l 1,30,-1
 173 396 l 1,31,-1
 283 396 l 2,32,33
 303 396 303 396 303 366 c 2,34,-1
 303 350 l 2,35,36
 303 320 303 320 283 320 c 2,37,-1
 173 320 l 1,38,-1
 173 76 l 1,23,-1
EndSplineSet
EndChar

StartChar: Ntilde
Encoding: 209 209 147
Width: 719
GlyphClass: 2
Flags: W
LayerCount: 2
Fore
SplineSet
90 20 m 2,0,-1
 90 680 l 2,1,2
 90 702 90 702 130 702 c 2,3,-1
 151 702 l 2,4,5
 179 702 179 702 193 683 c 1,6,-1
 512 201 l 1,7,-1
 542 145 l 1,8,-1
 542 680 l 2,9,10
 542 702 542 702 582 702 c 2,11,-1
 589 702 l 2,12,13
 629 702 629 702 629 680 c 2,14,-1
 629 20 l 2,15,16
 629 -2 629 -2 589 -2 c 2,17,-1
 569 -2 l 2,18,19
 543 -2 543 -2 534 12 c 2,20,-1
 204 510 l 1,21,-1
 177 561 l 1,22,-1
 177 20 l 2,23,24
 177 -2 177 -2 137 -2 c 2,25,-1
 130 -2 l 2,26,27
 90 -2 90 -2 90 20 c 2,0,-1
341 805 m 128,-1,29
 300 815 300 815 287 815 c 128,-1,30
 274 815 274 815 257 808.5 c 128,-1,31
 240 802 240 802 229 802 c 128,-1,32
 218 802 218 802 209 812.5 c 128,-1,33
 200 823 200 823 200 832 c 0,34,35
 200 851 200 851 234 869.5 c 128,-1,36
 268 888 268 888 302 888 c 128,-1,37
 336 888 336 888 376.5 878 c 128,-1,38
 417 868 417 868 433 868 c 128,-1,39
 449 868 449 868 464.5 874.5 c 128,-1,40
 480 881 480 881 489.5 881 c 128,-1,41
 499 881 499 881 508.5 870 c 128,-1,42
 518 859 518 859 518 851 c 0,43,44
 518 832 518 832 484 813.5 c 128,-1,45
 450 795 450 795 416 795 c 128,-1,28
 382 795 382 795 341 805 c 128,-1,29
EndSplineSet
EndChar

StartChar: Ograve
Encoding: 210 210 148
Width: 731
GlyphClass: 2
Flags: W
LayerCount: 2
Fore
SplineSet
57 352 m 128,-1,1
 57 527 57 527 135.5 616.5 c 128,-1,2
 214 706 214 706 365 706 c 128,-1,3
 516 706 516 706 595 616.5 c 128,-1,4
 674 527 674 527 674 352 c 128,-1,5
 674 177 674 177 595 85.5 c 128,-1,6
 516 -6 516 -6 365.5 -6 c 128,-1,7
 215 -6 215 -6 136 85.5 c 128,-1,0
 57 177 57 177 57 352 c 128,-1,1
365 70 m 128,-1,9
 471 70 471 70 527 142 c 128,-1,10
 583 214 583 214 583 351.5 c 128,-1,11
 583 489 583 489 527 559.5 c 128,-1,12
 471 630 471 630 365 630 c 128,-1,13
 259 630 259 630 203.5 559.5 c 128,-1,14
 148 489 148 489 148 351.5 c 128,-1,15
 148 214 148 214 203.5 142 c 128,-1,8
 259 70 259 70 365 70 c 128,-1,9
432 795 m 128,-1,17
 432 785 432 785 403 785 c 128,-1,18
 374 785 374 785 358 803 c 0,19,20
 270 904 270 904 267 909.5 c 128,-1,21
 264 915 264 915 264 919 c 0,22,23
 264 932 264 932 311.5 932 c 128,-1,24
 359 932 359 932 374 906 c 0,25,16
 432 805 432 805 432 795 c 128,-1,17
EndSplineSet
EndChar

StartChar: Oacute
Encoding: 211 211 149
Width: 731
GlyphClass: 2
Flags: W
LayerCount: 2
Fore
SplineSet
57 352 m 128,-1,1
 57 527 57 527 135.5 616.5 c 128,-1,2
 214 706 214 706 365 706 c 128,-1,3
 516 706 516 706 595 616.5 c 128,-1,4
 674 527 674 527 674 352 c 128,-1,5
 674 177 674 177 595 85.5 c 128,-1,6
 516 -6 516 -6 365.5 -6 c 128,-1,7
 215 -6 215 -6 136 85.5 c 128,-1,0
 57 177 57 177 57 352 c 128,-1,1
365 70 m 128,-1,9
 471 70 471 70 527 142 c 128,-1,10
 583 214 583 214 583 351.5 c 128,-1,11
 583 489 583 489 527 559.5 c 128,-1,12
 471 630 471 630 365 630 c 128,-1,13
 259 630 259 630 203.5 559.5 c 128,-1,14
 148 489 148 489 148 351.5 c 128,-1,15
 148 214 148 214 203.5 142 c 128,-1,8
 259 70 259 70 365 70 c 128,-1,9
467.5 900 m 128,-1,17
 458 888 458 888 428 854 c 128,-1,18
 398 820 398 820 382 802.5 c 128,-1,19
 366 785 366 785 337.5 785 c 128,-1,20
 309 785 309 785 309 795 c 128,-1,21
 309 805 309 805 367 906 c 0,22,23
 382 932 382 932 429.5 932 c 128,-1,24
 477 932 477 932 477 919 c 0,25,16
 477 912 477 912 467.5 900 c 128,-1,17
EndSplineSet
EndChar

StartChar: Ocircumflex
Encoding: 212 212 150
Width: 731
GlyphClass: 2
Flags: W
LayerCount: 2
Fore
SplineSet
57 352 m 128,-1,1
 57 527 57 527 135.5 616.5 c 128,-1,2
 214 706 214 706 365 706 c 128,-1,3
 516 706 516 706 595 616.5 c 128,-1,4
 674 527 674 527 674 352 c 128,-1,5
 674 177 674 177 595 85.5 c 128,-1,6
 516 -6 516 -6 365.5 -6 c 128,-1,7
 215 -6 215 -6 136 85.5 c 128,-1,0
 57 177 57 177 57 352 c 128,-1,1
365 70 m 128,-1,9
 471 70 471 70 527 142 c 128,-1,10
 583 214 583 214 583 351.5 c 128,-1,11
 583 489 583 489 527 559.5 c 128,-1,12
 471 630 471 630 365 630 c 128,-1,13
 259 630 259 630 203.5 559.5 c 128,-1,14
 148 489 148 489 148 351.5 c 128,-1,15
 148 214 148 214 203.5 142 c 128,-1,8
 259 70 259 70 365 70 c 128,-1,9
303 777 m 1,16,17
 289 764 289 764 266.5 764 c 128,-1,18
 244 764 244 764 244 778 c 0,19,20
 244 786 244 786 250 796 c 2,21,-1
 306 884 l 2,22,23
 321 906 321 906 352 906 c 2,24,-1
 377 906 l 2,25,26
 408 906 408 906 423 884 c 2,27,-1
 480 796 l 2,28,29
 486 787 486 787 486 779 c 0,30,31
 486 764 486 764 463.5 764 c 128,-1,32
 441 764 441 764 427 777 c 1,33,-1
 364 851 l 1,34,-1
 303 777 l 1,16,17
EndSplineSet
EndChar

StartChar: Otilde
Encoding: 213 213 151
Width: 731
GlyphClass: 2
Flags: W
LayerCount: 2
Fore
SplineSet
57 352 m 128,-1,1
 57 527 57 527 135.5 616.5 c 128,-1,2
 214 706 214 706 365 706 c 128,-1,3
 516 706 516 706 595 616.5 c 128,-1,4
 674 527 674 527 674 352 c 128,-1,5
 674 177 674 177 595 85.5 c 128,-1,6
 516 -6 516 -6 365.5 -6 c 128,-1,7
 215 -6 215 -6 136 85.5 c 128,-1,0
 57 177 57 177 57 352 c 128,-1,1
365 70 m 128,-1,9
 471 70 471 70 527 142 c 128,-1,10
 583 214 583 214 583 351.5 c 128,-1,11
 583 489 583 489 527 559.5 c 128,-1,12
 471 630 471 630 365 630 c 128,-1,13
 259 630 259 630 203.5 559.5 c 128,-1,14
 148 489 148 489 148 351.5 c 128,-1,15
 148 214 148 214 203.5 142 c 128,-1,8
 259 70 259 70 365 70 c 128,-1,9
347 805 m 128,-1,17
 306 815 306 815 293 815 c 128,-1,18
 280 815 280 815 263 808.5 c 128,-1,19
 246 802 246 802 235 802 c 128,-1,20
 224 802 224 802 215 812.5 c 128,-1,21
 206 823 206 823 206 832 c 0,22,23
 206 851 206 851 240 869.5 c 128,-1,24
 274 888 274 888 308 888 c 128,-1,25
 342 888 342 888 382.5 878 c 128,-1,26
 423 868 423 868 439 868 c 128,-1,27
 455 868 455 868 470.5 874.5 c 128,-1,28
 486 881 486 881 495.5 881 c 128,-1,29
 505 881 505 881 514.5 870 c 128,-1,30
 524 859 524 859 524 851 c 0,31,32
 524 832 524 832 490 813.5 c 128,-1,33
 456 795 456 795 422 795 c 128,-1,16
 388 795 388 795 347 805 c 128,-1,17
EndSplineSet
EndChar

StartChar: Odieresis
Encoding: 214 214 152
Width: 731
GlyphClass: 2
Flags: W
LayerCount: 2
Fore
SplineSet
57 352 m 128,-1,1
 57 527 57 527 135.5 616.5 c 128,-1,2
 214 706 214 706 365 706 c 128,-1,3
 516 706 516 706 595 616.5 c 128,-1,4
 674 527 674 527 674 352 c 128,-1,5
 674 177 674 177 595 85.5 c 128,-1,6
 516 -6 516 -6 365.5 -6 c 128,-1,7
 215 -6 215 -6 136 85.5 c 128,-1,0
 57 177 57 177 57 352 c 128,-1,1
365 70 m 128,-1,9
 471 70 471 70 527 142 c 128,-1,10
 583 214 583 214 583 351.5 c 128,-1,11
 583 489 583 489 527 559.5 c 128,-1,12
 471 630 471 630 365 630 c 128,-1,13
 259 630 259 630 203.5 559.5 c 128,-1,14
 148 489 148 489 148 351.5 c 128,-1,15
 148 214 148 214 203.5 142 c 128,-1,8
 259 70 259 70 365 70 c 128,-1,9
435 787 m 2,16,17
 395 787 395 787 395 809 c 2,18,-1
 395 860 l 2,19,20
 395 882 395 882 435 882 c 2,21,-1
 439 882 l 2,22,23
 479 882 479 882 479 860 c 2,24,-1
 479 809 l 2,25,26
 479 787 479 787 439 787 c 2,27,-1
 435 787 l 2,16,17
291 787 m 2,28,29
 251 787 251 787 251 809 c 2,30,-1
 251 860 l 2,31,32
 251 882 251 882 291 882 c 2,33,-1
 295 882 l 2,34,35
 335 882 335 882 335 860 c 2,36,-1
 335 809 l 2,37,38
 335 787 335 787 295 787 c 2,39,-1
 291 787 l 2,28,29
EndSplineSet
EndChar

StartChar: multiply
Encoding: 215 215 153
Width: 560
GlyphClass: 2
Flags: W
LayerCount: 2
Fore
SplineSet
54 42 m 128,-1,1
 54 48 54 48 62 56 c 2,2,-1
 233 228 l 1,3,-1
 62 399 l 2,4,5
 54 407 54 407 54 413 c 128,-1,6
 54 419 54 419 62 427 c 2,7,-1
 81 447 l 2,8,9
 88 454 88 454 95 454 c 128,-1,10
 102 454 102 454 109 447 c 2,11,-1
 280 275 l 1,12,-1
 451 447 l 2,13,14
 458 454 458 454 465 454 c 128,-1,15
 472 454 472 454 479 447 c 2,16,-1
 498 427 l 2,17,18
 505 420 505 420 505 413 c 128,-1,19
 505 406 505 406 498 399 c 2,20,-1
 327 228 l 1,21,-1
 498 56 l 2,22,23
 505 49 505 49 505 42 c 128,-1,24
 505 35 505 35 498 28 c 2,25,-1
 479 8 l 2,26,27
 471 0 471 0 465 0 c 128,-1,28
 459 0 459 0 451 8 c 2,29,-1
 280 181 l 1,30,-1
 109 8 l 2,31,32
 101 0 101 0 95 0 c 128,-1,33
 89 0 89 0 81 8 c 2,34,-1
 62 28 l 2,35,0
 54 36 54 36 54 42 c 128,-1,1
EndSplineSet
EndChar

StartChar: Oslash
Encoding: 216 216 154
Width: 731
GlyphClass: 2
Flags: W
LayerCount: 2
Fore
SplineSet
41.5 8 m 128,-1,1
 34 15 34 15 34 21.5 c 128,-1,2
 34 28 34 28 40 36 c 2,3,-1
 113 116 l 1,4,5
 57 205 57 205 57 352 c 0,6,7
 57 527 57 527 135.5 616.5 c 128,-1,8
 214 706 214 706 356.5 706 c 128,-1,9
 499 706 499 706 578 633 c 1,10,-1
 633 694 l 2,11,12
 640 702 640 702 647 702 c 128,-1,13
 654 702 654 702 661.5 695 c 128,-1,14
 669 688 669 688 669 681.5 c 128,-1,15
 669 675 669 675 663 668 c 2,16,-1
 605 604 l 1,17,18
 674 514 674 514 674 345.5 c 128,-1,19
 674 177 674 177 595 85.5 c 128,-1,20
 516 -6 516 -6 365.5 -6 c 128,-1,21
 215 -6 215 -6 137 84 c 1,22,-1
 70 10 l 2,23,24
 62 1 62 1 55.5 1 c 128,-1,0
 49 1 49 1 41.5 8 c 128,-1,1
519 568 m 1,25,26
 465 630 465 630 362 630 c 128,-1,27
 259 630 259 630 203.5 559.5 c 128,-1,28
 148 489 148 489 148 352 c 0,29,30
 148 254 148 254 177 187 c 1,31,-1
 519 568 l 1,25,26
197 151 m 1,32,33
 251 70 251 70 361 70 c 128,-1,34
 471 70 471 70 527 142 c 128,-1,35
 583 214 583 214 583 340.5 c 128,-1,36
 583 467 583 467 543 536 c 1,37,-1
 197 151 l 1,32,33
EndSplineSet
EndChar

StartChar: Ugrave
Encoding: 217 217 155
Width: 712
GlyphClass: 2
Flags: W
LayerCount: 2
Fore
SplineSet
83 224 m 2,0,-1
 83 680 l 2,1,2
 83 702 83 702 123 702 c 2,3,-1
 131 702 l 2,4,5
 171 702 171 702 171 680 c 2,6,-1
 171 221 l 2,7,8
 171 155 171 155 223.5 112.5 c 128,-1,9
 276 70 276 70 356 70 c 128,-1,10
 436 70 436 70 488.5 112.5 c 128,-1,11
 541 155 541 155 541 221 c 2,12,-1
 541 680 l 2,13,14
 541 702 541 702 581 702 c 2,15,-1
 589 702 l 2,16,17
 629 702 629 702 629 680 c 2,18,-1
 629 224 l 2,19,20
 629 115 629 115 558 54.5 c 128,-1,21
 487 -6 487 -6 355.5 -6 c 128,-1,22
 224 -6 224 -6 153.5 54.5 c 128,-1,23
 83 115 83 115 83 224 c 2,0,-1
423 795 m 128,-1,25
 423 785 423 785 394.5 785 c 128,-1,26
 366 785 366 785 349 803 c 0,27,28
 261 904 261 904 258 909.5 c 128,-1,29
 255 915 255 915 255 919 c 0,30,31
 255 932 255 932 302.5 932 c 128,-1,32
 350 932 350 932 365 906 c 0,33,24
 423 805 423 805 423 795 c 128,-1,25
EndSplineSet
EndChar

StartChar: Uacute
Encoding: 218 218 156
Width: 712
GlyphClass: 2
Flags: W
LayerCount: 2
Fore
SplineSet
83 224 m 2,0,-1
 83 680 l 2,1,2
 83 702 83 702 123 702 c 2,3,-1
 131 702 l 2,4,5
 171 702 171 702 171 680 c 2,6,-1
 171 221 l 2,7,8
 171 155 171 155 223.5 112.5 c 128,-1,9
 276 70 276 70 356 70 c 128,-1,10
 436 70 436 70 488.5 112.5 c 128,-1,11
 541 155 541 155 541 221 c 2,12,-1
 541 680 l 2,13,14
 541 702 541 702 581 702 c 2,15,-1
 589 702 l 2,16,17
 629 702 629 702 629 680 c 2,18,-1
 629 224 l 2,19,20
 629 115 629 115 558 54.5 c 128,-1,21
 487 -6 487 -6 355.5 -6 c 128,-1,22
 224 -6 224 -6 153.5 54.5 c 128,-1,23
 83 115 83 115 83 224 c 2,0,-1
458.5 900 m 128,-1,25
 449 888 449 888 419 854 c 128,-1,26
 389 820 389 820 373.5 802.5 c 128,-1,27
 358 785 358 785 329 785 c 128,-1,28
 300 785 300 785 300 795 c 128,-1,29
 300 805 300 805 358 906 c 0,30,31
 373 932 373 932 420.5 932 c 128,-1,32
 468 932 468 932 468 919 c 0,33,24
 468 912 468 912 458.5 900 c 128,-1,25
EndSplineSet
EndChar

StartChar: Ucircumflex
Encoding: 219 219 157
Width: 712
GlyphClass: 2
Flags: W
LayerCount: 2
Fore
SplineSet
83 224 m 2,0,-1
 83 680 l 2,1,2
 83 702 83 702 123 702 c 2,3,-1
 131 702 l 2,4,5
 171 702 171 702 171 680 c 2,6,-1
 171 221 l 2,7,8
 171 155 171 155 223.5 112.5 c 128,-1,9
 276 70 276 70 356 70 c 128,-1,10
 436 70 436 70 488.5 112.5 c 128,-1,11
 541 155 541 155 541 221 c 2,12,-1
 541 680 l 2,13,14
 541 702 541 702 581 702 c 2,15,-1
 589 702 l 2,16,17
 629 702 629 702 629 680 c 2,18,-1
 629 224 l 2,19,20
 629 115 629 115 558 54.5 c 128,-1,21
 487 -6 487 -6 355.5 -6 c 128,-1,22
 224 -6 224 -6 153.5 54.5 c 128,-1,23
 83 115 83 115 83 224 c 2,0,-1
294 777 m 1,24,25
 280 764 280 764 257.5 764 c 128,-1,26
 235 764 235 764 235 778 c 0,27,28
 235 786 235 786 241 796 c 2,29,-1
 297 884 l 2,30,31
 312 906 312 906 343 906 c 2,32,-1
 368 906 l 2,33,34
 399 906 399 906 414 884 c 2,35,-1
 471 796 l 2,36,37
 477 787 477 787 477 779 c 0,38,39
 477 764 477 764 454.5 764 c 128,-1,40
 432 764 432 764 418 777 c 1,41,-1
 355 851 l 1,42,-1
 294 777 l 1,24,25
EndSplineSet
EndChar

StartChar: Udieresis
Encoding: 220 220 158
Width: 712
GlyphClass: 2
Flags: W
LayerCount: 2
Fore
SplineSet
83 224 m 2,0,-1
 83 680 l 2,1,2
 83 702 83 702 123 702 c 2,3,-1
 131 702 l 2,4,5
 171 702 171 702 171 680 c 2,6,-1
 171 221 l 2,7,8
 171 155 171 155 223.5 112.5 c 128,-1,9
 276 70 276 70 356 70 c 128,-1,10
 436 70 436 70 488.5 112.5 c 128,-1,11
 541 155 541 155 541 221 c 2,12,-1
 541 680 l 2,13,14
 541 702 541 702 581 702 c 2,15,-1
 589 702 l 2,16,17
 629 702 629 702 629 680 c 2,18,-1
 629 224 l 2,19,20
 629 115 629 115 558 54.5 c 128,-1,21
 487 -6 487 -6 355.5 -6 c 128,-1,22
 224 -6 224 -6 153.5 54.5 c 128,-1,23
 83 115 83 115 83 224 c 2,0,-1
426 787 m 2,24,25
 386 787 386 787 386 809 c 2,26,-1
 386 860 l 2,27,28
 386 882 386 882 426 882 c 2,29,-1
 430 882 l 2,30,31
 470 882 470 882 470 860 c 2,32,-1
 470 809 l 2,33,34
 470 787 470 787 430 787 c 2,35,-1
 426 787 l 2,24,25
282 787 m 2,36,37
 242 787 242 787 242 809 c 2,38,-1
 242 860 l 2,39,40
 242 882 242 882 282 882 c 2,41,-1
 286 882 l 2,42,43
 326 882 326 882 326 860 c 2,44,-1
 326 809 l 2,45,46
 326 787 326 787 286 787 c 2,47,-1
 282 787 l 2,36,37
EndSplineSet
EndChar

StartChar: Yacute
Encoding: 221 221 159
Width: 559
GlyphClass: 2
Flags: W
LayerCount: 2
Fore
SplineSet
235 20 m 2,0,-1
 235 359 l 1,1,-1
 26 667 l 2,2,3
 18 678 18 678 18 685 c 0,4,5
 18 702 18 702 64 702 c 2,6,-1
 75 702 l 2,7,8
 108 702 108 702 118 687 c 2,9,-1
 282 441 l 1,10,-1
 450 688 l 2,11,12
 459 702 459 702 500 702 c 128,-1,13
 541 702 541 702 541 685 c 0,14,15
 541 681 541 681 533 667 c 1,16,-1
 323 356 l 1,17,-1
 323 20 l 2,18,19
 323 -2 323 -2 283 -2 c 2,20,-1
 275 -2 l 2,21,22
 235 -2 235 -2 235 20 c 2,0,-1
381.5 900 m 128,-1,24
 372 888 372 888 342 854 c 128,-1,25
 312 820 312 820 296 802.5 c 128,-1,26
 280 785 280 785 251.5 785 c 128,-1,27
 223 785 223 785 223 795 c 128,-1,28
 223 805 223 805 281 906 c 0,29,30
 296 932 296 932 343.5 932 c 128,-1,31
 391 932 391 932 391 919 c 0,32,23
 391 912 391 912 381.5 900 c 128,-1,24
EndSplineSet
EndChar

StartChar: Thorn
Encoding: 222 222 160
Width: 567
GlyphClass: 2
Flags: W
LayerCount: 2
Fore
SplineSet
85 20 m 2,0,-1
 85 680 l 2,1,2
 85 702 85 702 125 702 c 2,3,-1
 133 702 l 2,4,5
 173 702 173 702 173 680 c 2,6,-1
 173 578 l 1,7,-1
 318 578 l 2,8,9
 395 578 395 578 460 544 c 0,10,11
 497 525 497 525 519 483.5 c 128,-1,12
 541 442 541 442 541 386 c 128,-1,13
 541 330 541 330 523.5 290.5 c 128,-1,14
 506 251 506 251 481.5 230 c 128,-1,15
 457 209 457 209 425 196 c 0,16,17
 376 176 376 176 328 176 c 2,18,-1
 173 176 l 1,19,-1
 173 20 l 2,20,21
 173 -2 173 -2 133 -2 c 2,22,-1
 125 -2 l 2,23,24
 85 -2 85 -2 85 20 c 2,0,-1
173 252 m 1,25,-1
 329 252 l 2,26,27
 367 252 367 252 404 276 c 0,28,29
 424 289 424 289 437 316.5 c 128,-1,30
 450 344 450 344 450 382 c 0,31,32
 450 449 450 449 410 475.5 c 128,-1,33
 370 502 370 502 315 502 c 2,34,-1
 173 502 l 1,35,-1
 173 252 l 1,25,-1
EndSplineSet
EndChar

StartChar: germandbls
Encoding: 223 223 161
Width: 554
GlyphClass: 2
Flags: W
LayerCount: 2
Fore
SplineSet
90 20 m 2,0,-1
 90 521 l 2,1,2
 90 603 90 603 144 654.5 c 128,-1,3
 198 706 198 706 287.5 706 c 128,-1,4
 377 706 377 706 431 665.5 c 128,-1,5
 485 625 485 625 485 536 c 0,6,7
 485 491 485 491 456.5 447.5 c 128,-1,8
 428 404 428 404 383 385 c 1,9,10
 445 371 445 371 479.5 322 c 128,-1,11
 514 273 514 273 514 206 c 0,12,13
 514 109 514 109 453 54.5 c 128,-1,14
 392 0 392 0 299 0 c 2,15,-1
 267 0 l 2,16,17
 247 0 247 0 247 30 c 2,18,-1
 247 42 l 2,19,20
 247 72 247 72 267 72 c 2,21,-1
 300 72 l 2,22,23
 354 72 354 72 390 108 c 128,-1,24
 426 144 426 144 426 205.5 c 128,-1,25
 426 267 426 267 390 303.5 c 128,-1,26
 354 340 354 340 300 340 c 2,27,-1
 267 340 l 2,28,29
 247 340 247 340 247 370 c 2,30,-1
 247 382 l 2,31,32
 247 412 247 412 267 412 c 2,33,-1
 277 412 l 2,34,35
 324 412 324 412 360 446 c 128,-1,36
 396 480 396 480 396 528 c 0,37,38
 396 634 396 634 285 634 c 0,39,40
 234 634 234 634 204 603.5 c 128,-1,41
 174 573 174 573 174 521 c 2,42,-1
 174 20 l 2,43,44
 174 -2 174 -2 134 -2 c 2,45,-1
 130 -2 l 2,46,47
 90 -2 90 -2 90 20 c 2,0,-1
EndSplineSet
EndChar

StartChar: agrave
Encoding: 224 224 162
Width: 545
GlyphClass: 2
Flags: W
LayerCount: 2
Fore
SplineSet
381 326 m 1,0,-1
 381 373 l 2,1,2
 381 457 381 457 271 457 c 0,3,4
 199 457 199 457 138 426 c 0,5,6
 117 415 117 415 115 415 c 0,7,8
 105 415 105 415 92.5 435 c 128,-1,9
 80 455 80 455 80 465 c 0,10,11
 80 486 80 486 138.5 507.5 c 128,-1,12
 197 529 197 529 279 529 c 128,-1,13
 361 529 361 529 413 487.5 c 128,-1,14
 465 446 465 446 465 372 c 2,15,-1
 465 148 l 2,16,17
 465 88 465 88 470 61 c 0,18,19
 477 24 477 24 477 22 c 0,20,21
 477 10 477 10 458 4.5 c 128,-1,22
 439 -1 439 -1 428.5 -1 c 128,-1,23
 418 -1 418 -1 414 1 c 128,-1,24
 410 3 410 3 406.5 8 c 128,-1,25
 403 13 403 13 401 17.5 c 128,-1,26
 399 22 399 22 397 30 c 128,-1,27
 395 38 395 38 393.5 42.5 c 128,-1,28
 392 47 392 47 390.5 56.5 c 128,-1,29
 389 66 389 66 388 69 c 1,30,31
 320 -6 320 -6 220 -6 c 0,32,33
 143 -6 143 -6 96 32 c 128,-1,34
 49 70 49 70 49 149 c 128,-1,35
 49 228 49 228 103.5 267.5 c 128,-1,36
 158 307 158 307 226 315.5 c 128,-1,37
 294 324 294 324 381 326 c 1,0,-1
139 149 m 0,38,39
 139 67 139 67 224 67 c 0,40,41
 273 67 273 67 308.5 85 c 128,-1,42
 344 103 344 103 381 136 c 1,43,-1
 381 254 l 1,44,45
 256 254 256 254 220 240 c 0,46,47
 201 233 201 233 180 222 c 0,48,49
 139 201 139 201 139 149 c 0,38,39
335 615 m 128,-1,51
 335 605 335 605 306.5 605 c 128,-1,52
 278 605 278 605 261 623 c 0,53,54
 173 724 173 724 170 729.5 c 128,-1,55
 167 735 167 735 167 739 c 0,56,57
 167 752 167 752 214.5 752 c 128,-1,58
 262 752 262 752 277 726 c 0,59,50
 335 625 335 625 335 615 c 128,-1,51
EndSplineSet
EndChar

StartChar: aacute
Encoding: 225 225 163
Width: 545
GlyphClass: 2
Flags: W
LayerCount: 2
Fore
SplineSet
381 326 m 1,0,-1
 381 373 l 2,1,2
 381 457 381 457 271 457 c 0,3,4
 199 457 199 457 138 426 c 0,5,6
 117 415 117 415 115 415 c 0,7,8
 105 415 105 415 92.5 435 c 128,-1,9
 80 455 80 455 80 465 c 0,10,11
 80 486 80 486 138.5 507.5 c 128,-1,12
 197 529 197 529 279 529 c 128,-1,13
 361 529 361 529 413 487.5 c 128,-1,14
 465 446 465 446 465 372 c 2,15,-1
 465 148 l 2,16,17
 465 88 465 88 470 61 c 0,18,19
 477 24 477 24 477 22 c 0,20,21
 477 10 477 10 458 4.5 c 128,-1,22
 439 -1 439 -1 428.5 -1 c 128,-1,23
 418 -1 418 -1 414 1 c 128,-1,24
 410 3 410 3 406.5 8 c 128,-1,25
 403 13 403 13 401 17.5 c 128,-1,26
 399 22 399 22 397 30 c 128,-1,27
 395 38 395 38 393.5 42.5 c 128,-1,28
 392 47 392 47 390.5 56.5 c 128,-1,29
 389 66 389 66 388 69 c 1,30,31
 320 -6 320 -6 220 -6 c 0,32,33
 143 -6 143 -6 96 32 c 128,-1,34
 49 70 49 70 49 149 c 128,-1,35
 49 228 49 228 103.5 267.5 c 128,-1,36
 158 307 158 307 226 315.5 c 128,-1,37
 294 324 294 324 381 326 c 1,0,-1
139 149 m 0,38,39
 139 67 139 67 224 67 c 0,40,41
 273 67 273 67 308.5 85 c 128,-1,42
 344 103 344 103 381 136 c 1,43,-1
 381 254 l 1,44,45
 256 254 256 254 220 240 c 0,46,47
 201 233 201 233 180 222 c 0,48,49
 139 201 139 201 139 149 c 0,38,39
370.5 720 m 128,-1,51
 361 708 361 708 331 674 c 128,-1,52
 301 640 301 640 285.5 622.5 c 128,-1,53
 270 605 270 605 241 605 c 128,-1,54
 212 605 212 605 212 615 c 128,-1,55
 212 625 212 625 270 726 c 0,56,57
 285 752 285 752 332.5 752 c 128,-1,58
 380 752 380 752 380 739 c 0,59,50
 380 732 380 732 370.5 720 c 128,-1,51
EndSplineSet
EndChar

StartChar: acircumflex
Encoding: 226 226 164
Width: 545
GlyphClass: 2
Flags: W
LayerCount: 2
Fore
SplineSet
381 326 m 1,0,-1
 381 373 l 2,1,2
 381 457 381 457 271 457 c 0,3,4
 199 457 199 457 138 426 c 0,5,6
 117 415 117 415 115 415 c 0,7,8
 105 415 105 415 92.5 435 c 128,-1,9
 80 455 80 455 80 465 c 0,10,11
 80 486 80 486 138.5 507.5 c 128,-1,12
 197 529 197 529 279 529 c 128,-1,13
 361 529 361 529 413 487.5 c 128,-1,14
 465 446 465 446 465 372 c 2,15,-1
 465 148 l 2,16,17
 465 88 465 88 470 61 c 0,18,19
 477 24 477 24 477 22 c 0,20,21
 477 10 477 10 458 4.5 c 128,-1,22
 439 -1 439 -1 428.5 -1 c 128,-1,23
 418 -1 418 -1 414 1 c 128,-1,24
 410 3 410 3 406.5 8 c 128,-1,25
 403 13 403 13 401 17.5 c 128,-1,26
 399 22 399 22 397 30 c 128,-1,27
 395 38 395 38 393.5 42.5 c 128,-1,28
 392 47 392 47 390.5 56.5 c 128,-1,29
 389 66 389 66 388 69 c 1,30,31
 320 -6 320 -6 220 -6 c 0,32,33
 143 -6 143 -6 96 32 c 128,-1,34
 49 70 49 70 49 149 c 128,-1,35
 49 228 49 228 103.5 267.5 c 128,-1,36
 158 307 158 307 226 315.5 c 128,-1,37
 294 324 294 324 381 326 c 1,0,-1
139 149 m 0,38,39
 139 67 139 67 224 67 c 0,40,41
 273 67 273 67 308.5 85 c 128,-1,42
 344 103 344 103 381 136 c 1,43,-1
 381 254 l 1,44,45
 256 254 256 254 220 240 c 0,46,47
 201 233 201 233 180 222 c 0,48,49
 139 201 139 201 139 149 c 0,38,39
206 597 m 1,50,51
 192 584 192 584 169.5 584 c 128,-1,52
 147 584 147 584 147 598 c 0,53,54
 147 606 147 606 153 616 c 2,55,-1
 209 704 l 2,56,57
 224 726 224 726 255 726 c 2,58,-1
 280 726 l 2,59,60
 311 726 311 726 326 704 c 2,61,-1
 383 616 l 2,62,63
 389 607 389 607 389 599 c 0,64,65
 389 584 389 584 366.5 584 c 128,-1,66
 344 584 344 584 330 597 c 1,67,-1
 267 671 l 1,68,-1
 206 597 l 1,50,51
EndSplineSet
EndChar

StartChar: atilde
Encoding: 227 227 165
Width: 545
GlyphClass: 2
Flags: W
LayerCount: 2
Fore
SplineSet
381 326 m 1,0,-1
 381 373 l 2,1,2
 381 457 381 457 271 457 c 0,3,4
 199 457 199 457 138 426 c 0,5,6
 117 415 117 415 115 415 c 0,7,8
 105 415 105 415 92.5 435 c 128,-1,9
 80 455 80 455 80 465 c 0,10,11
 80 486 80 486 138.5 507.5 c 128,-1,12
 197 529 197 529 279 529 c 128,-1,13
 361 529 361 529 413 487.5 c 128,-1,14
 465 446 465 446 465 372 c 2,15,-1
 465 148 l 2,16,17
 465 88 465 88 470 61 c 0,18,19
 477 24 477 24 477 22 c 0,20,21
 477 10 477 10 458 4.5 c 128,-1,22
 439 -1 439 -1 428.5 -1 c 128,-1,23
 418 -1 418 -1 414 1 c 128,-1,24
 410 3 410 3 406.5 8 c 128,-1,25
 403 13 403 13 401 17.5 c 128,-1,26
 399 22 399 22 397 30 c 128,-1,27
 395 38 395 38 393.5 42.5 c 128,-1,28
 392 47 392 47 390.5 56.5 c 128,-1,29
 389 66 389 66 388 69 c 1,30,31
 320 -6 320 -6 220 -6 c 0,32,33
 143 -6 143 -6 96 32 c 128,-1,34
 49 70 49 70 49 149 c 128,-1,35
 49 228 49 228 103.5 267.5 c 128,-1,36
 158 307 158 307 226 315.5 c 128,-1,37
 294 324 294 324 381 326 c 1,0,-1
139 149 m 0,38,39
 139 67 139 67 224 67 c 0,40,41
 273 67 273 67 308.5 85 c 128,-1,42
 344 103 344 103 381 136 c 1,43,-1
 381 254 l 1,44,45
 256 254 256 254 220 240 c 0,46,47
 201 233 201 233 180 222 c 0,48,49
 139 201 139 201 139 149 c 0,38,39
250 625 m 128,-1,51
 209 635 209 635 196 635 c 128,-1,52
 183 635 183 635 166 628.5 c 128,-1,53
 149 622 149 622 138 622 c 128,-1,54
 127 622 127 622 118 632.5 c 128,-1,55
 109 643 109 643 109 652 c 0,56,57
 109 671 109 671 143 689.5 c 128,-1,58
 177 708 177 708 211 708 c 128,-1,59
 245 708 245 708 285.5 698 c 128,-1,60
 326 688 326 688 342 688 c 128,-1,61
 358 688 358 688 373.5 694.5 c 128,-1,62
 389 701 389 701 398.5 701 c 128,-1,63
 408 701 408 701 417.5 690 c 128,-1,64
 427 679 427 679 427 671 c 0,65,66
 427 652 427 652 393 633.5 c 128,-1,67
 359 615 359 615 325 615 c 128,-1,50
 291 615 291 615 250 625 c 128,-1,51
EndSplineSet
EndChar

StartChar: adieresis
Encoding: 228 228 166
Width: 545
GlyphClass: 2
Flags: W
LayerCount: 2
Fore
SplineSet
381 326 m 1,0,-1
 381 373 l 2,1,2
 381 457 381 457 271 457 c 0,3,4
 199 457 199 457 138 426 c 0,5,6
 117 415 117 415 115 415 c 0,7,8
 105 415 105 415 92.5 435 c 128,-1,9
 80 455 80 455 80 465 c 0,10,11
 80 486 80 486 138.5 507.5 c 128,-1,12
 197 529 197 529 279 529 c 128,-1,13
 361 529 361 529 413 487.5 c 128,-1,14
 465 446 465 446 465 372 c 2,15,-1
 465 148 l 2,16,17
 465 88 465 88 470 61 c 0,18,19
 477 24 477 24 477 22 c 0,20,21
 477 10 477 10 458 4.5 c 128,-1,22
 439 -1 439 -1 428.5 -1 c 128,-1,23
 418 -1 418 -1 414 1 c 128,-1,24
 410 3 410 3 406.5 8 c 128,-1,25
 403 13 403 13 401 17.5 c 128,-1,26
 399 22 399 22 397 30 c 128,-1,27
 395 38 395 38 393.5 42.5 c 128,-1,28
 392 47 392 47 390.5 56.5 c 128,-1,29
 389 66 389 66 388 69 c 1,30,31
 320 -6 320 -6 220 -6 c 0,32,33
 143 -6 143 -6 96 32 c 128,-1,34
 49 70 49 70 49 149 c 128,-1,35
 49 228 49 228 103.5 267.5 c 128,-1,36
 158 307 158 307 226 315.5 c 128,-1,37
 294 324 294 324 381 326 c 1,0,-1
139 149 m 0,38,39
 139 67 139 67 224 67 c 0,40,41
 273 67 273 67 308.5 85 c 128,-1,42
 344 103 344 103 381 136 c 1,43,-1
 381 254 l 1,44,45
 256 254 256 254 220 240 c 0,46,47
 201 233 201 233 180 222 c 0,48,49
 139 201 139 201 139 149 c 0,38,39
338 607 m 2,50,51
 298 607 298 607 298 629 c 2,52,-1
 298 680 l 2,53,54
 298 702 298 702 338 702 c 2,55,-1
 342 702 l 2,56,57
 382 702 382 702 382 680 c 2,58,-1
 382 629 l 2,59,60
 382 607 382 607 342 607 c 2,61,-1
 338 607 l 2,50,51
194 607 m 2,62,63
 154 607 154 607 154 629 c 2,64,-1
 154 680 l 2,65,66
 154 702 154 702 194 702 c 2,67,-1
 198 702 l 2,68,69
 238 702 238 702 238 680 c 2,70,-1
 238 629 l 2,71,72
 238 607 238 607 198 607 c 2,73,-1
 194 607 l 2,62,63
EndSplineSet
EndChar

StartChar: aring
Encoding: 229 229 167
Width: 545
GlyphClass: 2
Flags: W
LayerCount: 2
Fore
SplineSet
381 326 m 1,0,-1
 381 373 l 2,1,2
 381 457 381 457 271 457 c 0,3,4
 199 457 199 457 138 426 c 0,5,6
 117 415 117 415 115 415 c 0,7,8
 105 415 105 415 92.5 435 c 128,-1,9
 80 455 80 455 80 465 c 0,10,11
 80 486 80 486 138.5 507.5 c 128,-1,12
 197 529 197 529 279 529 c 128,-1,13
 361 529 361 529 413 487.5 c 128,-1,14
 465 446 465 446 465 372 c 2,15,-1
 465 148 l 2,16,17
 465 88 465 88 470 61 c 0,18,19
 477 24 477 24 477 22 c 0,20,21
 477 10 477 10 458 4.5 c 128,-1,22
 439 -1 439 -1 428.5 -1 c 128,-1,23
 418 -1 418 -1 414 1 c 128,-1,24
 410 3 410 3 406.5 8 c 128,-1,25
 403 13 403 13 401 17.5 c 128,-1,26
 399 22 399 22 397 30 c 128,-1,27
 395 38 395 38 393.5 42.5 c 128,-1,28
 392 47 392 47 390.5 56.5 c 128,-1,29
 389 66 389 66 388 69 c 1,30,31
 320 -6 320 -6 220 -6 c 0,32,33
 143 -6 143 -6 96 32 c 128,-1,34
 49 70 49 70 49 149 c 128,-1,35
 49 228 49 228 103.5 267.5 c 128,-1,36
 158 307 158 307 226 315.5 c 128,-1,37
 294 324 294 324 381 326 c 1,0,-1
139 149 m 0,38,39
 139 67 139 67 224 67 c 0,40,41
 273 67 273 67 308.5 85 c 128,-1,42
 344 103 344 103 381 136 c 1,43,-1
 381 254 l 1,44,45
 256 254 256 254 220 240 c 0,46,47
 201 233 201 233 180 222 c 0,48,49
 139 201 139 201 139 149 c 0,38,39
268 564 m 128,-1,51
 233 564 233 564 208.5 588.5 c 128,-1,52
 184 613 184 613 184 648 c 128,-1,53
 184 683 184 683 208.5 708 c 128,-1,54
 233 733 233 733 268 733 c 128,-1,55
 303 733 303 733 328 708 c 128,-1,56
 353 683 353 683 353 648 c 128,-1,57
 353 613 353 613 328 588.5 c 128,-1,50
 303 564 303 564 268 564 c 128,-1,51
268 599 m 128,-1,59
 289 599 289 599 303.5 613 c 128,-1,60
 318 627 318 627 318 648 c 128,-1,61
 318 669 318 669 303.5 683.5 c 128,-1,62
 289 698 289 698 268 698 c 128,-1,63
 247 698 247 698 233 683.5 c 128,-1,64
 219 669 219 669 219 648 c 128,-1,65
 219 627 219 627 233 613 c 128,-1,58
 247 599 247 599 268 599 c 128,-1,59
EndSplineSet
EndChar

StartChar: ae
Encoding: 230 230 168
Width: 829
GlyphClass: 2
Flags: W
LayerCount: 2
Fore
SplineSet
45 144 m 0,0,1
 45 185 45 185 62.5 215.5 c 128,-1,2
 80 246 80 246 106.5 263.5 c 128,-1,3
 133 281 133 281 174 292 c 0,4,5
 241 310 241 310 338 312 c 1,6,7
 344 374 344 374 366 416 c 1,8,9
 340 457 340 457 267 457 c 0,10,11
 195 457 195 457 134 426 c 0,12,13
 113 415 113 415 111 415 c 0,14,15
 101 415 101 415 88.5 435 c 128,-1,16
 76 455 76 455 76 465 c 0,17,18
 76 486 76 486 134.5 507.5 c 128,-1,19
 193 529 193 529 264 529 c 0,20,21
 363 529 363 529 416 481 c 1,22,23
 473 529 473 529 571.5 529 c 128,-1,24
 670 529 670 529 722 466 c 128,-1,25
 774 403 774 403 774 282 c 0,26,27
 774 273 774 273 762 257 c 128,-1,28
 750 241 750 241 741 241 c 2,29,-1
 425 241 l 1,30,31
 431 150 431 150 468 108 c 128,-1,32
 505 66 505 66 579 66 c 0,33,34
 647 66 647 66 704 98 c 0,35,36
 723 108 723 108 725 108 c 0,37,38
 735 108 735 108 747.5 88 c 128,-1,39
 760 68 760 68 760 58 c 0,40,41
 760 38 760 38 705.5 16 c 128,-1,42
 651 -6 651 -6 580 -6 c 0,43,44
 457 -6 457 -6 397 57 c 1,45,46
 321 -6 321 -6 216 -6 c 0,47,48
 139 -6 139 -6 92 32 c 128,-1,49
 45 70 45 70 45 144 c 0,0,1
685 313 m 1,50,51
 685 457 685 457 565 457 c 0,52,53
 436 457 436 457 425 313 c 1,54,-1
 685 313 l 1,50,51
135 149 m 0,55,56
 135 67 135 67 220 67 c 0,57,58
 293 67 293 67 358 119 c 1,59,60
 336 170 336 170 335 240 c 1,61,62
 188 237 188 237 152 196 c 0,63,64
 135 177 135 177 135 149 c 0,55,56
EndSplineSet
EndChar

StartChar: ccedilla
Encoding: 231 231 169
Width: 485
GlyphClass: 2
Flags: W
LayerCount: 2
Fore
SplineSet
52 264 m 0,0,1
 52 339 52 339 72.5 393 c 128,-1,2
 93 447 93 447 128 476 c 0,3,4
 194 529 194 529 289 529 c 0,5,6
 347 529 347 529 393 515 c 128,-1,7
 439 501 439 501 439 483 c 0,8,9
 439 470 439 470 427.5 449.5 c 128,-1,10
 416 429 416 429 407 429 c 0,11,12
 406 429 406 429 403.5 430 c 128,-1,13
 401 431 401 431 399.5 431.5 c 128,-1,14
 398 432 398 432 396 433 c 0,15,16
 342 457 342 457 287 457 c 0,17,18
 142 457 142 457 142 266 c 0,19,20
 142 160 142 160 177.5 113 c 128,-1,21
 213 66 213 66 297 66 c 0,22,23
 358 66 358 66 410 92 c 0,24,25
 413 93 413 93 416.5 94.5 c 128,-1,26
 420 96 420 96 421 96 c 0,27,28
 431 96 431 96 443 76.5 c 128,-1,29
 455 57 455 57 455 45 c 0,30,31
 455 27 455 27 408 10.5 c 128,-1,32
 361 -6 361 -6 298 -6 c 2,33,-1
 294 -6 l 1,34,-1
 282 -49 l 1,35,-1
 286 -49 l 2,36,37
 302 -49 302 -49 318.5 -52.5 c 128,-1,38
 335 -56 335 -56 353 -73.5 c 128,-1,39
 371 -91 371 -91 371 -121 c 0,40,41
 371 -210 371 -210 256 -210 c 0,42,43
 217 -210 217 -210 179 -198 c 128,-1,44
 141 -186 141 -186 141 -167 c 0,45,46
 141 -141 141 -141 160 -141 c 0,47,48
 165 -141 165 -141 193 -151 c 128,-1,49
 221 -161 221 -161 243 -161 c 0,50,51
 300 -161 300 -161 300 -126 c 0,52,53
 300 -107 300 -107 283.5 -98 c 128,-1,54
 267 -89 267 -89 250.5 -84 c 128,-1,55
 234 -79 234 -79 234 -68 c 0,56,57
 234 -66 234 -66 236 -56 c 2,58,-1
 252 -3 l 1,59,60
 151 7 151 7 101.5 71.5 c 128,-1,61
 52 136 52 136 52 264 c 0,0,1
EndSplineSet
EndChar

StartChar: egrave
Encoding: 232 232 170
Width: 539
GlyphClass: 2
Flags: W
LayerCount: 2
Fore
SplineSet
115 59 m 128,-1,1
 55 124 55 124 55 257.5 c 128,-1,2
 55 391 55 391 114 460 c 128,-1,3
 173 529 173 529 282 529 c 0,4,5
 494 529 494 529 494 268 c 0,6,7
 494 259 494 259 482 243 c 128,-1,8
 470 227 470 227 461 227 c 2,9,-1
 145 227 l 1,10,11
 151 144 151 144 188 105 c 128,-1,12
 225 66 225 66 299 66 c 0,13,14
 367 66 367 66 424 98 c 0,15,16
 443 108 443 108 445 108 c 0,17,18
 455 108 455 108 467.5 88 c 128,-1,19
 480 68 480 68 480 58 c 0,20,21
 480 38 480 38 425.5 16 c 128,-1,22
 371 -6 371 -6 300 -6 c 0,23,0
 175 -6 175 -6 115 59 c 128,-1,1
405 299 m 1,24,25
 405 457 405 457 285 457 c 0,26,27
 156 457 156 457 145 299 c 1,28,-1
 405 299 l 1,24,25
352 615 m 128,-1,30
 352 605 352 605 323 605 c 128,-1,31
 294 605 294 605 278 623 c 0,32,33
 190 724 190 724 187 729.5 c 128,-1,34
 184 735 184 735 184 739 c 0,35,36
 184 752 184 752 231.5 752 c 128,-1,37
 279 752 279 752 294 726 c 0,38,29
 352 625 352 625 352 615 c 128,-1,30
EndSplineSet
EndChar

StartChar: eacute
Encoding: 233 233 171
Width: 539
GlyphClass: 2
Flags: W
LayerCount: 2
Fore
SplineSet
115 59 m 128,-1,1
 55 124 55 124 55 257.5 c 128,-1,2
 55 391 55 391 114 460 c 128,-1,3
 173 529 173 529 282 529 c 0,4,5
 494 529 494 529 494 268 c 0,6,7
 494 259 494 259 482 243 c 128,-1,8
 470 227 470 227 461 227 c 2,9,-1
 145 227 l 1,10,11
 151 144 151 144 188 105 c 128,-1,12
 225 66 225 66 299 66 c 0,13,14
 367 66 367 66 424 98 c 0,15,16
 443 108 443 108 445 108 c 0,17,18
 455 108 455 108 467.5 88 c 128,-1,19
 480 68 480 68 480 58 c 0,20,21
 480 38 480 38 425.5 16 c 128,-1,22
 371 -6 371 -6 300 -6 c 0,23,0
 175 -6 175 -6 115 59 c 128,-1,1
405 299 m 1,24,25
 405 457 405 457 285 457 c 0,26,27
 156 457 156 457 145 299 c 1,28,-1
 405 299 l 1,24,25
387.5 720 m 128,-1,30
 378 708 378 708 348 674 c 128,-1,31
 318 640 318 640 302 622.5 c 128,-1,32
 286 605 286 605 257.5 605 c 128,-1,33
 229 605 229 605 229 615 c 128,-1,34
 229 625 229 625 287 726 c 0,35,36
 302 752 302 752 349.5 752 c 128,-1,37
 397 752 397 752 397 739 c 0,38,29
 397 732 397 732 387.5 720 c 128,-1,30
EndSplineSet
EndChar

StartChar: ecircumflex
Encoding: 234 234 172
Width: 539
GlyphClass: 2
Flags: W
LayerCount: 2
Fore
SplineSet
115 59 m 128,-1,1
 55 124 55 124 55 257.5 c 128,-1,2
 55 391 55 391 114 460 c 128,-1,3
 173 529 173 529 282 529 c 0,4,5
 494 529 494 529 494 268 c 0,6,7
 494 259 494 259 482 243 c 128,-1,8
 470 227 470 227 461 227 c 2,9,-1
 145 227 l 1,10,11
 151 144 151 144 188 105 c 128,-1,12
 225 66 225 66 299 66 c 0,13,14
 367 66 367 66 424 98 c 0,15,16
 443 108 443 108 445 108 c 0,17,18
 455 108 455 108 467.5 88 c 128,-1,19
 480 68 480 68 480 58 c 0,20,21
 480 38 480 38 425.5 16 c 128,-1,22
 371 -6 371 -6 300 -6 c 0,23,0
 175 -6 175 -6 115 59 c 128,-1,1
405 299 m 1,24,25
 405 457 405 457 285 457 c 0,26,27
 156 457 156 457 145 299 c 1,28,-1
 405 299 l 1,24,25
223 597 m 1,29,30
 209 584 209 584 186.5 584 c 128,-1,31
 164 584 164 584 164 598 c 0,32,33
 164 606 164 606 170 616 c 2,34,-1
 226 704 l 2,35,36
 241 726 241 726 272 726 c 2,37,-1
 297 726 l 2,38,39
 328 726 328 726 343 704 c 2,40,-1
 400 616 l 2,41,42
 406 607 406 607 406 599 c 0,43,44
 406 584 406 584 383.5 584 c 128,-1,45
 361 584 361 584 347 597 c 1,46,-1
 284 671 l 1,47,-1
 223 597 l 1,29,30
EndSplineSet
EndChar

StartChar: edieresis
Encoding: 235 235 173
Width: 539
GlyphClass: 2
Flags: W
LayerCount: 2
Fore
SplineSet
115 59 m 128,-1,1
 55 124 55 124 55 257.5 c 128,-1,2
 55 391 55 391 114 460 c 128,-1,3
 173 529 173 529 282 529 c 0,4,5
 494 529 494 529 494 268 c 0,6,7
 494 259 494 259 482 243 c 128,-1,8
 470 227 470 227 461 227 c 2,9,-1
 145 227 l 1,10,11
 151 144 151 144 188 105 c 128,-1,12
 225 66 225 66 299 66 c 0,13,14
 367 66 367 66 424 98 c 0,15,16
 443 108 443 108 445 108 c 0,17,18
 455 108 455 108 467.5 88 c 128,-1,19
 480 68 480 68 480 58 c 0,20,21
 480 38 480 38 425.5 16 c 128,-1,22
 371 -6 371 -6 300 -6 c 0,23,0
 175 -6 175 -6 115 59 c 128,-1,1
405 299 m 1,24,25
 405 457 405 457 285 457 c 0,26,27
 156 457 156 457 145 299 c 1,28,-1
 405 299 l 1,24,25
355 607 m 2,29,30
 315 607 315 607 315 629 c 2,31,-1
 315 680 l 2,32,33
 315 702 315 702 355 702 c 2,34,-1
 359 702 l 2,35,36
 399 702 399 702 399 680 c 2,37,-1
 399 629 l 2,38,39
 399 607 399 607 359 607 c 2,40,-1
 355 607 l 2,29,30
211 607 m 2,41,42
 171 607 171 607 171 629 c 2,43,-1
 171 680 l 2,44,45
 171 702 171 702 211 702 c 2,46,-1
 215 702 l 2,47,48
 255 702 255 702 255 680 c 2,49,-1
 255 629 l 2,50,51
 255 607 255 607 215 607 c 2,52,-1
 211 607 l 2,41,42
EndSplineSet
EndChar

StartChar: igrave
Encoding: 236 236 174
Width: 265
GlyphClass: 2
Flags: W
LayerCount: 2
Fore
SplineSet
91 20 m 2,0,-1
 91 503 l 2,1,2
 91 525 91 525 131 525 c 2,3,-1
 135 525 l 2,4,5
 175 525 175 525 175 503 c 2,6,-1
 175 20 l 2,7,8
 175 -2 175 -2 135 -2 c 2,9,-1
 131 -2 l 2,10,11
 91 -2 91 -2 91 20 c 2,0,-1
201 615 m 128,-1,13
 201 605 201 605 172.5 605 c 128,-1,14
 144 605 144 605 127 623 c 0,15,16
 39 724 39 724 36 729.5 c 128,-1,17
 33 735 33 735 33 739 c 0,18,19
 33 752 33 752 80.5 752 c 128,-1,20
 128 752 128 752 143 726 c 0,21,12
 201 625 201 625 201 615 c 128,-1,13
EndSplineSet
EndChar

StartChar: iacute
Encoding: 237 237 175
Width: 265
GlyphClass: 2
Flags: W
LayerCount: 2
Fore
SplineSet
91 20 m 2,0,-1
 91 503 l 2,1,2
 91 525 91 525 131 525 c 2,3,-1
 135 525 l 2,4,5
 175 525 175 525 175 503 c 2,6,-1
 175 20 l 2,7,8
 175 -2 175 -2 135 -2 c 2,9,-1
 131 -2 l 2,10,11
 91 -2 91 -2 91 20 c 2,0,-1
236.5 720 m 128,-1,13
 227 708 227 708 197 674 c 128,-1,14
 167 640 167 640 151.5 622.5 c 128,-1,15
 136 605 136 605 107 605 c 128,-1,16
 78 605 78 605 78 615 c 128,-1,17
 78 625 78 625 136 726 c 0,18,19
 151 752 151 752 198.5 752 c 128,-1,20
 246 752 246 752 246 739 c 0,21,12
 246 732 246 732 236.5 720 c 128,-1,13
EndSplineSet
EndChar

StartChar: icircumflex
Encoding: 238 238 176
Width: 265
GlyphClass: 2
Flags: W
LayerCount: 2
Fore
SplineSet
91 20 m 2,0,-1
 91 503 l 2,1,2
 91 525 91 525 131 525 c 2,3,-1
 135 525 l 2,4,5
 175 525 175 525 175 503 c 2,6,-1
 175 20 l 2,7,8
 175 -2 175 -2 135 -2 c 2,9,-1
 131 -2 l 2,10,11
 91 -2 91 -2 91 20 c 2,0,-1
72 597 m 1,12,13
 58 584 58 584 35.5 584 c 128,-1,14
 13 584 13 584 13 598 c 0,15,16
 13 606 13 606 19 616 c 2,17,-1
 75 704 l 2,18,19
 90 726 90 726 121 726 c 2,20,-1
 146 726 l 2,21,22
 177 726 177 726 192 704 c 2,23,-1
 249 616 l 2,24,25
 255 607 255 607 255 599 c 0,26,27
 255 584 255 584 232.5 584 c 128,-1,28
 210 584 210 584 196 597 c 1,29,-1
 133 671 l 1,30,-1
 72 597 l 1,12,13
EndSplineSet
EndChar

StartChar: idieresis
Encoding: 239 239 177
Width: 265
GlyphClass: 2
Flags: W
LayerCount: 2
Fore
SplineSet
91 20 m 2,0,-1
 91 503 l 2,1,2
 91 525 91 525 131 525 c 2,3,-1
 135 525 l 2,4,5
 175 525 175 525 175 503 c 2,6,-1
 175 20 l 2,7,8
 175 -2 175 -2 135 -2 c 2,9,-1
 131 -2 l 2,10,11
 91 -2 91 -2 91 20 c 2,0,-1
204 607 m 2,12,13
 164 607 164 607 164 629 c 2,14,-1
 164 680 l 2,15,16
 164 702 164 702 204 702 c 2,17,-1
 208 702 l 2,18,19
 248 702 248 702 248 680 c 2,20,-1
 248 629 l 2,21,22
 248 607 248 607 208 607 c 2,23,-1
 204 607 l 2,12,13
60 607 m 2,24,25
 20 607 20 607 20 629 c 2,26,-1
 20 680 l 2,27,28
 20 702 20 702 60 702 c 2,29,-1
 64 702 l 2,30,31
 104 702 104 702 104 680 c 2,32,-1
 104 629 l 2,33,34
 104 607 104 607 64 607 c 2,35,-1
 60 607 l 2,24,25
EndSplineSet
EndChar

StartChar: eth
Encoding: 240 240 178
Width: 569
GlyphClass: 2
Flags: W
LayerCount: 2
Fore
SplineSet
321 607 m 1,0,-1
 235 595 l 1,1,2
 225 595 225 595 217 605.5 c 128,-1,3
 209 616 209 616 209 626.5 c 128,-1,4
 209 637 209 637 224 640 c 2,5,-1
 296 650 l 1,6,7
 270 688 270 688 270 698 c 0,8,9
 270 714 270 714 313 714 c 0,10,11
 329 714 329 714 341.5 699.5 c 128,-1,12
 354 685 354 685 372 660 c 1,13,14
 448 671 448 671 450 671 c 0,15,16
 462 671 462 671 468.5 659 c 128,-1,17
 475 647 475 647 475 639 c 0,18,19
 475 628 475 628 460 626 c 2,20,-1
 400 618 l 1,21,22
 514 439 514 439 514 259 c 0,23,24
 514 129 514 129 456.5 61.5 c 128,-1,25
 399 -6 399 -6 286.5 -6 c 128,-1,26
 174 -6 174 -6 114.5 62 c 128,-1,27
 55 130 55 130 55 259.5 c 128,-1,28
 55 389 55 389 115 459 c 128,-1,29
 175 529 175 529 287 529 c 0,30,31
 331 529 331 529 367 517 c 1,32,33
 345 565 345 565 321 607 c 1,0,-1
284 66 m 128,-1,35
 357 66 357 66 392 113.5 c 128,-1,36
 427 161 427 161 427 261 c 128,-1,37
 427 361 427 361 392 409 c 128,-1,38
 357 457 357 457 284 457 c 128,-1,39
 211 457 211 457 176 409 c 128,-1,40
 141 361 141 361 141 261 c 128,-1,41
 141 161 141 161 176 113.5 c 128,-1,34
 211 66 211 66 284 66 c 128,-1,35
EndSplineSet
EndChar

StartChar: ntilde
Encoding: 241 241 179
Width: 557
GlyphClass: 2
Flags: W
LayerCount: 2
Fore
SplineSet
86 20 m 2,0,-1
 86 371 l 2,1,2
 86 432 86 432 81 458 c 0,3,4
 74 494 74 494 74 497 c 0,5,6
 74 509 74 509 93 514.5 c 128,-1,7
 112 520 112 520 122.5 520 c 128,-1,8
 133 520 133 520 137 518 c 128,-1,9
 141 516 141 516 144.5 511.5 c 128,-1,10
 148 507 148 507 150 502.5 c 128,-1,11
 152 498 152 498 154 490.5 c 128,-1,12
 156 483 156 483 157.5 478.5 c 128,-1,13
 159 474 159 474 160.5 465.5 c 128,-1,14
 162 457 162 457 163 454 c 1,15,16
 230 529 230 529 312.5 529 c 128,-1,17
 395 529 395 529 438.5 486 c 128,-1,18
 482 443 482 443 482 367 c 2,19,-1
 482 20 l 2,20,21
 482 -2 482 -2 442 -2 c 2,22,-1
 438 -2 l 2,23,24
 398 -2 398 -2 398 20 c 2,25,-1
 398 359 l 2,26,27
 398 405 398 405 371.5 430.5 c 128,-1,28
 345 456 345 456 296 456 c 0,29,30
 224 456 224 456 170 386 c 1,31,-1
 170 20 l 2,32,33
 170 -2 170 -2 130 -2 c 2,34,-1
 126 -2 l 2,35,36
 86 -2 86 -2 86 20 c 2,0,-1
270 625 m 128,-1,38
 229 635 229 635 216 635 c 128,-1,39
 203 635 203 635 186 628.5 c 128,-1,40
 169 622 169 622 158 622 c 128,-1,41
 147 622 147 622 138 632.5 c 128,-1,42
 129 643 129 643 129 652 c 0,43,44
 129 671 129 671 163 689.5 c 128,-1,45
 197 708 197 708 231 708 c 128,-1,46
 265 708 265 708 305.5 698 c 128,-1,47
 346 688 346 688 362 688 c 128,-1,48
 378 688 378 688 393.5 694.5 c 128,-1,49
 409 701 409 701 418.5 701 c 128,-1,50
 428 701 428 701 437.5 690 c 128,-1,51
 447 679 447 679 447 671 c 0,52,53
 447 652 447 652 413 633.5 c 128,-1,54
 379 615 379 615 345 615 c 128,-1,37
 311 615 311 615 270 625 c 128,-1,38
EndSplineSet
EndChar

StartChar: ograve
Encoding: 242 242 180
Width: 569
GlyphClass: 2
Flags: W
LayerCount: 2
Fore
SplineSet
114.5 62 m 128,-1,1
 55 130 55 130 55 259.5 c 128,-1,2
 55 389 55 389 115 459 c 128,-1,3
 175 529 175 529 286 529 c 128,-1,4
 397 529 397 529 455.5 459.5 c 128,-1,5
 514 390 514 390 514 259.5 c 128,-1,6
 514 129 514 129 456.5 61.5 c 128,-1,7
 399 -6 399 -6 286.5 -6 c 128,-1,0
 174 -6 174 -6 114.5 62 c 128,-1,1
284 66 m 128,-1,9
 357 66 357 66 392 113.5 c 128,-1,10
 427 161 427 161 427 261 c 128,-1,11
 427 361 427 361 392 409 c 128,-1,12
 357 457 357 457 284 457 c 128,-1,13
 211 457 211 457 177 409.5 c 128,-1,14
 143 362 143 362 143 261.5 c 128,-1,15
 143 161 143 161 177 113.5 c 128,-1,8
 211 66 211 66 284 66 c 128,-1,9
351 615 m 128,-1,17
 351 605 351 605 322.5 605 c 128,-1,18
 294 605 294 605 277 623 c 0,19,20
 189 724 189 724 186 729.5 c 128,-1,21
 183 735 183 735 183 739 c 0,22,23
 183 752 183 752 230.5 752 c 128,-1,24
 278 752 278 752 293 726 c 0,25,16
 351 625 351 625 351 615 c 128,-1,17
EndSplineSet
EndChar

StartChar: oacute
Encoding: 243 243 181
Width: 569
GlyphClass: 2
Flags: W
LayerCount: 2
Fore
SplineSet
114.5 62 m 128,-1,1
 55 130 55 130 55 259.5 c 128,-1,2
 55 389 55 389 115 459 c 128,-1,3
 175 529 175 529 286 529 c 128,-1,4
 397 529 397 529 455.5 459.5 c 128,-1,5
 514 390 514 390 514 259.5 c 128,-1,6
 514 129 514 129 456.5 61.5 c 128,-1,7
 399 -6 399 -6 286.5 -6 c 128,-1,0
 174 -6 174 -6 114.5 62 c 128,-1,1
284 66 m 128,-1,9
 357 66 357 66 392 113.5 c 128,-1,10
 427 161 427 161 427 261 c 128,-1,11
 427 361 427 361 392 409 c 128,-1,12
 357 457 357 457 284 457 c 128,-1,13
 211 457 211 457 177 409.5 c 128,-1,14
 143 362 143 362 143 261.5 c 128,-1,15
 143 161 143 161 177 113.5 c 128,-1,8
 211 66 211 66 284 66 c 128,-1,9
386.5 720 m 128,-1,17
 377 708 377 708 347 674 c 128,-1,18
 317 640 317 640 301.5 622.5 c 128,-1,19
 286 605 286 605 257 605 c 128,-1,20
 228 605 228 605 228 615 c 128,-1,21
 228 625 228 625 286 726 c 0,22,23
 301 752 301 752 348.5 752 c 128,-1,24
 396 752 396 752 396 739 c 0,25,16
 396 732 396 732 386.5 720 c 128,-1,17
EndSplineSet
EndChar

StartChar: ocircumflex
Encoding: 244 244 182
Width: 569
GlyphClass: 2
Flags: W
LayerCount: 2
Fore
SplineSet
114.5 62 m 128,-1,1
 55 130 55 130 55 259.5 c 128,-1,2
 55 389 55 389 115 459 c 128,-1,3
 175 529 175 529 286 529 c 128,-1,4
 397 529 397 529 455.5 459.5 c 128,-1,5
 514 390 514 390 514 259.5 c 128,-1,6
 514 129 514 129 456.5 61.5 c 128,-1,7
 399 -6 399 -6 286.5 -6 c 128,-1,0
 174 -6 174 -6 114.5 62 c 128,-1,1
284 66 m 128,-1,9
 357 66 357 66 392 113.5 c 128,-1,10
 427 161 427 161 427 261 c 128,-1,11
 427 361 427 361 392 409 c 128,-1,12
 357 457 357 457 284 457 c 128,-1,13
 211 457 211 457 177 409.5 c 128,-1,14
 143 362 143 362 143 261.5 c 128,-1,15
 143 161 143 161 177 113.5 c 128,-1,8
 211 66 211 66 284 66 c 128,-1,9
222 597 m 1,16,17
 208 584 208 584 185.5 584 c 128,-1,18
 163 584 163 584 163 598 c 0,19,20
 163 606 163 606 169 616 c 2,21,-1
 225 704 l 2,22,23
 240 726 240 726 271 726 c 2,24,-1
 296 726 l 2,25,26
 327 726 327 726 342 704 c 2,27,-1
 399 616 l 2,28,29
 405 607 405 607 405 599 c 0,30,31
 405 584 405 584 382.5 584 c 128,-1,32
 360 584 360 584 346 597 c 1,33,-1
 283 671 l 1,34,-1
 222 597 l 1,16,17
EndSplineSet
EndChar

StartChar: otilde
Encoding: 245 245 183
Width: 569
GlyphClass: 2
Flags: W
LayerCount: 2
Fore
SplineSet
114.5 62 m 128,-1,1
 55 130 55 130 55 259.5 c 128,-1,2
 55 389 55 389 115 459 c 128,-1,3
 175 529 175 529 286 529 c 128,-1,4
 397 529 397 529 455.5 459.5 c 128,-1,5
 514 390 514 390 514 259.5 c 128,-1,6
 514 129 514 129 456.5 61.5 c 128,-1,7
 399 -6 399 -6 286.5 -6 c 128,-1,0
 174 -6 174 -6 114.5 62 c 128,-1,1
284 66 m 128,-1,9
 357 66 357 66 392 113.5 c 128,-1,10
 427 161 427 161 427 261 c 128,-1,11
 427 361 427 361 392 409 c 128,-1,12
 357 457 357 457 284 457 c 128,-1,13
 211 457 211 457 177 409.5 c 128,-1,14
 143 362 143 362 143 261.5 c 128,-1,15
 143 161 143 161 177 113.5 c 128,-1,8
 211 66 211 66 284 66 c 128,-1,9
266 625 m 128,-1,17
 225 635 225 635 212 635 c 128,-1,18
 199 635 199 635 182 628.5 c 128,-1,19
 165 622 165 622 154 622 c 128,-1,20
 143 622 143 622 134 632.5 c 128,-1,21
 125 643 125 643 125 652 c 0,22,23
 125 671 125 671 159 689.5 c 128,-1,24
 193 708 193 708 227 708 c 128,-1,25
 261 708 261 708 301.5 698 c 128,-1,26
 342 688 342 688 358 688 c 128,-1,27
 374 688 374 688 389.5 694.5 c 128,-1,28
 405 701 405 701 414.5 701 c 128,-1,29
 424 701 424 701 433.5 690 c 128,-1,30
 443 679 443 679 443 671 c 0,31,32
 443 652 443 652 409 633.5 c 128,-1,33
 375 615 375 615 341 615 c 128,-1,16
 307 615 307 615 266 625 c 128,-1,17
EndSplineSet
EndChar

StartChar: odieresis
Encoding: 246 246 184
Width: 569
GlyphClass: 2
Flags: W
LayerCount: 2
Fore
SplineSet
114.5 62 m 128,-1,1
 55 130 55 130 55 259.5 c 128,-1,2
 55 389 55 389 115 459 c 128,-1,3
 175 529 175 529 286 529 c 128,-1,4
 397 529 397 529 455.5 459.5 c 128,-1,5
 514 390 514 390 514 259.5 c 128,-1,6
 514 129 514 129 456.5 61.5 c 128,-1,7
 399 -6 399 -6 286.5 -6 c 128,-1,0
 174 -6 174 -6 114.5 62 c 128,-1,1
284 66 m 128,-1,9
 357 66 357 66 392 113.5 c 128,-1,10
 427 161 427 161 427 261 c 128,-1,11
 427 361 427 361 392 409 c 128,-1,12
 357 457 357 457 284 457 c 128,-1,13
 211 457 211 457 177 409.5 c 128,-1,14
 143 362 143 362 143 261.5 c 128,-1,15
 143 161 143 161 177 113.5 c 128,-1,8
 211 66 211 66 284 66 c 128,-1,9
354 607 m 2,16,17
 314 607 314 607 314 629 c 2,18,-1
 314 680 l 2,19,20
 314 702 314 702 354 702 c 2,21,-1
 358 702 l 2,22,23
 398 702 398 702 398 680 c 2,24,-1
 398 629 l 2,25,26
 398 607 398 607 358 607 c 2,27,-1
 354 607 l 2,16,17
210 607 m 2,28,29
 170 607 170 607 170 629 c 2,30,-1
 170 680 l 2,31,32
 170 702 170 702 210 702 c 2,33,-1
 214 702 l 2,34,35
 254 702 254 702 254 680 c 2,36,-1
 254 629 l 2,37,38
 254 607 254 607 214 607 c 2,39,-1
 210 607 l 2,28,29
EndSplineSet
EndChar

StartChar: divide
Encoding: 247 247 185
Width: 560
GlyphClass: 2
Flags: W
LayerCount: 2
Fore
SplineSet
238 390 m 2,0,-1
 238 441 l 2,1,2
 238 463 238 463 278 463 c 2,3,-1
 282 463 l 2,4,5
 322 463 322 463 322 441 c 2,6,-1
 322 390 l 2,7,8
 322 368 322 368 282 368 c 2,9,-1
 278 368 l 2,10,11
 238 368 238 368 238 390 c 2,0,-1
78 197 m 2,12,13
 48 197 48 197 48 227 c 2,14,-1
 48 234 l 2,15,16
 48 264 48 264 78 264 c 2,17,-1
 482 264 l 2,18,19
 512 264 512 264 512 234 c 2,20,-1
 512 227 l 2,21,22
 512 197 512 197 482 197 c 2,23,-1
 78 197 l 2,12,13
238 20 m 2,24,-1
 238 71 l 2,25,26
 238 93 238 93 278 93 c 2,27,-1
 282 93 l 2,28,29
 322 93 322 93 322 71 c 2,30,-1
 322 20 l 2,31,32
 322 -2 322 -2 282 -2 c 2,33,-1
 278 -2 l 2,34,35
 238 -2 238 -2 238 20 c 2,24,-1
EndSplineSet
EndChar

StartChar: oslash
Encoding: 248 248 186
Width: 569
GlyphClass: 2
Flags: W
LayerCount: 2
Fore
SplineSet
72 9.5 m 128,-1,1
 64 17 64 17 64 22.5 c 128,-1,2
 64 28 64 28 71 37 c 2,3,-1
 102 74 l 1,4,5
 55 139 55 139 55 259 c 0,6,7
 55 339 55 339 76 395 c 128,-1,8
 97 451 97 451 133 478 c 0,9,10
 198 528 198 528 292.5 528 c 128,-1,11
 387 528 387 528 445 473 c 1,12,-1
 479 513 l 2,13,14
 487 521 487 521 493 521 c 128,-1,15
 499 521 499 521 507 513.5 c 128,-1,16
 515 506 515 506 515 500 c 128,-1,17
 515 494 515 494 509 486 c 2,18,-1
 470 441 l 1,19,20
 514 374 514 374 514 259 c 0,21,22
 514 -5 514 -5 287 -5 c 0,23,24
 187 -5 187 -5 130 44 c 1,25,-1
 101 10 l 2,26,27
 93 2 93 2 86.5 2 c 128,-1,0
 80 2 80 2 72 9.5 c 128,-1,1
391 410 m 1,28,29
 356 456 356 456 285 456 c 128,-1,30
 214 456 214 456 178 411 c 128,-1,31
 142 366 142 366 142 261 c 0,32,33
 142 186 142 186 160 142 c 1,34,-1
 391 410 l 1,28,29
183 105 m 1,35,36
 217 67 217 67 285.5 67 c 128,-1,37
 354 67 354 67 390.5 112 c 128,-1,38
 427 157 427 157 427 261 c 0,39,40
 427 330 427 330 411 372 c 1,41,-1
 183 105 l 1,35,36
EndSplineSet
EndChar

StartChar: ugrave
Encoding: 249 249 187
Width: 557
GlyphClass: 2
Flags: W
LayerCount: 2
Fore
SplineSet
75 156 m 2,0,-1
 75 503 l 2,1,2
 75 525 75 525 115 525 c 2,3,-1
 119 525 l 2,4,5
 159 525 159 525 159 503 c 2,6,-1
 159 164 l 2,7,8
 159 118 159 118 185.5 92.5 c 128,-1,9
 212 67 212 67 261 67 c 0,10,11
 333 67 333 67 387 137 c 1,12,-1
 387 503 l 2,13,14
 387 525 387 525 427 525 c 2,15,-1
 431 525 l 2,16,17
 471 525 471 525 471 503 c 2,18,-1
 471 148 l 2,19,20
 471 88 471 88 476 61 c 0,21,22
 483 24 483 24 483 22 c 0,23,24
 483 10 483 10 464 4.5 c 128,-1,25
 445 -1 445 -1 434.5 -1 c 128,-1,26
 424 -1 424 -1 420 1 c 128,-1,27
 416 3 416 3 412.5 8 c 128,-1,28
 409 13 409 13 407 17.5 c 128,-1,29
 405 22 405 22 403 30 c 128,-1,30
 401 38 401 38 399.5 42.5 c 128,-1,31
 398 47 398 47 396.5 56.5 c 128,-1,32
 395 66 395 66 394 69 c 1,33,34
 327 -6 327 -6 244.5 -6 c 128,-1,35
 162 -6 162 -6 118.5 37 c 128,-1,36
 75 80 75 80 75 156 c 2,0,-1
342 615 m 128,-1,38
 342 605 342 605 313 605 c 128,-1,39
 284 605 284 605 268 623 c 0,40,41
 180 724 180 724 177 729.5 c 128,-1,42
 174 735 174 735 174 739 c 0,43,44
 174 752 174 752 221.5 752 c 128,-1,45
 269 752 269 752 284 726 c 0,46,37
 342 625 342 625 342 615 c 128,-1,38
EndSplineSet
EndChar

StartChar: uacute
Encoding: 250 250 188
Width: 557
GlyphClass: 2
Flags: W
LayerCount: 2
Fore
SplineSet
75 156 m 2,0,-1
 75 503 l 2,1,2
 75 525 75 525 115 525 c 2,3,-1
 119 525 l 2,4,5
 159 525 159 525 159 503 c 2,6,-1
 159 164 l 2,7,8
 159 118 159 118 185.5 92.5 c 128,-1,9
 212 67 212 67 261 67 c 0,10,11
 333 67 333 67 387 137 c 1,12,-1
 387 503 l 2,13,14
 387 525 387 525 427 525 c 2,15,-1
 431 525 l 2,16,17
 471 525 471 525 471 503 c 2,18,-1
 471 148 l 2,19,20
 471 88 471 88 476 61 c 0,21,22
 483 24 483 24 483 22 c 0,23,24
 483 10 483 10 464 4.5 c 128,-1,25
 445 -1 445 -1 434.5 -1 c 128,-1,26
 424 -1 424 -1 420 1 c 128,-1,27
 416 3 416 3 412.5 8 c 128,-1,28
 409 13 409 13 407 17.5 c 128,-1,29
 405 22 405 22 403 30 c 128,-1,30
 401 38 401 38 399.5 42.5 c 128,-1,31
 398 47 398 47 396.5 56.5 c 128,-1,32
 395 66 395 66 394 69 c 1,33,34
 327 -6 327 -6 244.5 -6 c 128,-1,35
 162 -6 162 -6 118.5 37 c 128,-1,36
 75 80 75 80 75 156 c 2,0,-1
377.5 720 m 128,-1,38
 368 708 368 708 338 674 c 128,-1,39
 308 640 308 640 292 622.5 c 128,-1,40
 276 605 276 605 247.5 605 c 128,-1,41
 219 605 219 605 219 615 c 128,-1,42
 219 625 219 625 277 726 c 0,43,44
 292 752 292 752 339.5 752 c 128,-1,45
 387 752 387 752 387 739 c 0,46,37
 387 732 387 732 377.5 720 c 128,-1,38
EndSplineSet
EndChar

StartChar: ucircumflex
Encoding: 251 251 189
Width: 557
GlyphClass: 2
Flags: W
LayerCount: 2
Fore
SplineSet
75 156 m 2,0,-1
 75 503 l 2,1,2
 75 525 75 525 115 525 c 2,3,-1
 119 525 l 2,4,5
 159 525 159 525 159 503 c 2,6,-1
 159 164 l 2,7,8
 159 118 159 118 185.5 92.5 c 128,-1,9
 212 67 212 67 261 67 c 0,10,11
 333 67 333 67 387 137 c 1,12,-1
 387 503 l 2,13,14
 387 525 387 525 427 525 c 2,15,-1
 431 525 l 2,16,17
 471 525 471 525 471 503 c 2,18,-1
 471 148 l 2,19,20
 471 88 471 88 476 61 c 0,21,22
 483 24 483 24 483 22 c 0,23,24
 483 10 483 10 464 4.5 c 128,-1,25
 445 -1 445 -1 434.5 -1 c 128,-1,26
 424 -1 424 -1 420 1 c 128,-1,27
 416 3 416 3 412.5 8 c 128,-1,28
 409 13 409 13 407 17.5 c 128,-1,29
 405 22 405 22 403 30 c 128,-1,30
 401 38 401 38 399.5 42.5 c 128,-1,31
 398 47 398 47 396.5 56.5 c 128,-1,32
 395 66 395 66 394 69 c 1,33,34
 327 -6 327 -6 244.5 -6 c 128,-1,35
 162 -6 162 -6 118.5 37 c 128,-1,36
 75 80 75 80 75 156 c 2,0,-1
213 597 m 1,37,38
 199 584 199 584 176.5 584 c 128,-1,39
 154 584 154 584 154 598 c 0,40,41
 154 606 154 606 160 616 c 2,42,-1
 216 704 l 2,43,44
 231 726 231 726 262 726 c 2,45,-1
 287 726 l 2,46,47
 318 726 318 726 333 704 c 2,48,-1
 390 616 l 2,49,50
 396 607 396 607 396 599 c 0,51,52
 396 584 396 584 373.5 584 c 128,-1,53
 351 584 351 584 337 597 c 1,54,-1
 274 671 l 1,55,-1
 213 597 l 1,37,38
EndSplineSet
EndChar

StartChar: udieresis
Encoding: 252 252 190
Width: 557
GlyphClass: 2
Flags: W
LayerCount: 2
Fore
SplineSet
75 156 m 2,0,-1
 75 503 l 2,1,2
 75 525 75 525 115 525 c 2,3,-1
 119 525 l 2,4,5
 159 525 159 525 159 503 c 2,6,-1
 159 164 l 2,7,8
 159 118 159 118 185.5 92.5 c 128,-1,9
 212 67 212 67 261 67 c 0,10,11
 333 67 333 67 387 137 c 1,12,-1
 387 503 l 2,13,14
 387 525 387 525 427 525 c 2,15,-1
 431 525 l 2,16,17
 471 525 471 525 471 503 c 2,18,-1
 471 148 l 2,19,20
 471 88 471 88 476 61 c 0,21,22
 483 24 483 24 483 22 c 0,23,24
 483 10 483 10 464 4.5 c 128,-1,25
 445 -1 445 -1 434.5 -1 c 128,-1,26
 424 -1 424 -1 420 1 c 128,-1,27
 416 3 416 3 412.5 8 c 128,-1,28
 409 13 409 13 407 17.5 c 128,-1,29
 405 22 405 22 403 30 c 128,-1,30
 401 38 401 38 399.5 42.5 c 128,-1,31
 398 47 398 47 396.5 56.5 c 128,-1,32
 395 66 395 66 394 69 c 1,33,34
 327 -6 327 -6 244.5 -6 c 128,-1,35
 162 -6 162 -6 118.5 37 c 128,-1,36
 75 80 75 80 75 156 c 2,0,-1
345 607 m 2,37,38
 305 607 305 607 305 629 c 2,39,-1
 305 680 l 2,40,41
 305 702 305 702 345 702 c 2,42,-1
 349 702 l 2,43,44
 389 702 389 702 389 680 c 2,45,-1
 389 629 l 2,46,47
 389 607 389 607 349 607 c 2,48,-1
 345 607 l 2,37,38
201 607 m 2,49,50
 161 607 161 607 161 629 c 2,51,-1
 161 680 l 2,52,53
 161 702 161 702 201 702 c 2,54,-1
 205 702 l 2,55,56
 245 702 245 702 245 680 c 2,57,-1
 245 629 l 2,58,59
 245 607 245 607 205 607 c 2,60,-1
 201 607 l 2,49,50
EndSplineSet
EndChar

StartChar: yacute
Encoding: 253 253 191
Width: 481
GlyphClass: 2
Flags: W
LayerCount: 2
Fore
SplineSet
18 508 m 0,0,1
 18 525 18 525 61 525 c 2,2,-1
 69 525 l 2,3,4
 102 525 102 525 109 509 c 2,5,-1
 245 148 l 1,6,-1
 378 509 l 2,7,8
 383 525 383 525 422.5 525 c 128,-1,9
 462 525 462 525 462 508 c 0,10,11
 462 503 462 503 459 494 c 2,12,-1
 202 -187 l 2,13,14
 194 -208 194 -208 155 -208 c 2,15,-1
 140 -208 l 2,16,17
 107 -208 107 -208 107 -192 c 0,18,19
 107 -189 107 -189 196 28 c 1,20,-1
 21 495 l 2,21,22
 18 504 18 504 18 508 c 0,0,1
342.5 720 m 128,-1,24
 333 708 333 708 303 674 c 128,-1,25
 273 640 273 640 257.5 622.5 c 128,-1,26
 242 605 242 605 213 605 c 128,-1,27
 184 605 184 605 184 615 c 128,-1,28
 184 625 184 625 242 726 c 0,29,30
 257 752 257 752 304.5 752 c 128,-1,31
 352 752 352 752 352 739 c 0,32,23
 352 732 352 732 342.5 720 c 128,-1,24
EndSplineSet
EndChar

StartChar: thorn
Encoding: 254 254 192
Width: 570
GlyphClass: 2
Flags: W
LayerCount: 2
Fore
SplineSet
169 -186 m 2,0,1
 169 -208 169 -208 129 -208 c 2,2,-1
 125 -208 l 2,3,4
 85 -208 85 -208 85 -186 c 2,5,-1
 85 730 l 2,6,7
 85 752 85 752 125 752 c 2,8,-1
 129 752 l 2,9,10
 169 752 169 752 169 730 c 2,11,-1
 169 461 l 1,12,13
 238 529 238 529 324 529 c 128,-1,14
 410 529 410 529 462.5 455 c 128,-1,15
 515 381 515 381 515 265 c 2,16,-1
 515 256 l 2,17,18
 515 133 515 133 459 63.5 c 128,-1,19
 403 -6 403 -6 319 -6 c 128,-1,20
 235 -6 235 -6 169 45 c 1,21,-1
 169 -186 l 2,0,1
290 68 m 2,22,-1
 296 68 l 1,23,24
 360 69 360 69 393.5 117 c 128,-1,25
 427 165 427 165 427 258 c 128,-1,26
 427 351 427 351 395 403.5 c 128,-1,27
 363 456 363 456 297.5 456 c 128,-1,28
 232 456 232 456 169 387 c 1,29,-1
 169 113 l 1,30,31
 223 68 223 68 290 68 c 2,22,-1
EndSplineSet
EndChar

StartChar: ydieresis
Encoding: 255 255 193
Width: 481
GlyphClass: 2
Flags: W
LayerCount: 2
Fore
SplineSet
18 508 m 0,0,1
 18 525 18 525 61 525 c 2,2,-1
 69 525 l 2,3,4
 102 525 102 525 109 509 c 2,5,-1
 245 148 l 1,6,-1
 378 509 l 2,7,8
 383 525 383 525 422.5 525 c 128,-1,9
 462 525 462 525 462 508 c 0,10,11
 462 503 462 503 459 494 c 2,12,-1
 202 -187 l 2,13,14
 194 -208 194 -208 155 -208 c 2,15,-1
 140 -208 l 2,16,17
 107 -208 107 -208 107 -192 c 0,18,19
 107 -189 107 -189 196 28 c 1,20,-1
 21 495 l 2,21,22
 18 504 18 504 18 508 c 0,0,1
310 607 m 2,23,24
 270 607 270 607 270 629 c 2,25,-1
 270 680 l 2,26,27
 270 702 270 702 310 702 c 2,28,-1
 314 702 l 2,29,30
 354 702 354 702 354 680 c 2,31,-1
 354 629 l 2,32,33
 354 607 354 607 314 607 c 2,34,-1
 310 607 l 2,23,24
166 607 m 2,35,36
 126 607 126 607 126 629 c 2,37,-1
 126 680 l 2,38,39
 126 702 126 702 166 702 c 2,40,-1
 170 702 l 2,41,42
 210 702 210 702 210 680 c 2,43,-1
 210 629 l 2,44,45
 210 607 210 607 170 607 c 2,46,-1
 166 607 l 2,35,36
EndSplineSet
EndChar

StartChar: dotlessi
Encoding: 305 305 194
Width: 265
GlyphClass: 2
Flags: W
LayerCount: 2
Fore
SplineSet
91 20 m 2,0,-1
 91 503 l 2,1,2
 91 525 91 525 131 525 c 2,3,-1
 135 525 l 2,4,5
 175 525 175 525 175 503 c 2,6,-1
 175 20 l 2,7,8
 175 -2 175 -2 135 -2 c 2,9,-1
 131 -2 l 2,10,11
 91 -2 91 -2 91 20 c 2,0,-1
EndSplineSet
EndChar

StartChar: Lslash
Encoding: 321 321 195
Width: 486
GlyphClass: 2
Flags: W
LayerCount: 2
Fore
SplineSet
85 30 m 2,0,-1
 85 348 l 1,1,-1
 17 308 l 2,2,3
 12 304 12 304 7 304 c 0,4,5
 -2 304 -2 304 -2 318 c 2,6,-1
 -2 324 l 2,7,8
 -2 343 -2 343 17 354 c 2,9,-1
 85 394 l 1,10,-1
 85 680 l 2,11,12
 85 702 85 702 125 702 c 2,13,-1
 133 702 l 2,14,15
 173 702 173 702 173 680 c 2,16,-1
 173 447 l 1,17,-1
 281 511 l 2,18,19
 289 515 289 515 291 515 c 0,20,21
 300 515 300 515 300 501 c 2,22,-1
 300 495 l 2,23,24
 300 476 300 476 281 465 c 2,25,-1
 173 401 l 1,26,-1
 173 76 l 1,27,-1
 464 76 l 2,28,29
 484 76 484 76 484 46 c 2,30,-1
 484 30 l 2,31,32
 484 0 484 0 464 0 c 2,33,-1
 115 0 l 2,34,35
 85 0 85 0 85 30 c 2,0,-1
EndSplineSet
EndChar

StartChar: lslash
Encoding: 322 322 196
Width: 293
GlyphClass: 2
Flags: W
LayerCount: 2
Fore
SplineSet
80 132 m 2,0,-1
 80 353 l 1,1,-1
 38 328 l 2,2,3
 33 324 33 324 28 324 c 0,4,5
 19 324 19 324 19 338 c 2,6,-1
 19 344 l 2,7,8
 19 363 19 363 38 374 c 2,9,-1
 80 398 l 1,10,-1
 80 730 l 2,11,12
 80 752 80 752 120 752 c 2,13,-1
 124 752 l 2,14,15
 164 752 164 752 164 730 c 2,16,-1
 164 448 l 1,17,-1
 206 473 l 2,18,19
 214 477 214 477 216 477 c 0,20,21
 225 477 225 477 225 463 c 2,22,-1
 225 457 l 2,23,24
 225 438 225 438 206 427 c 2,25,-1
 164 402 l 1,26,-1
 164 140 l 2,27,28
 164 66 164 66 218 66 c 0,29,30
 235 66 235 66 247 68.5 c 128,-1,31
 259 71 259 71 261 71 c 0,32,33
 270 71 270 71 276 52.5 c 128,-1,34
 282 34 282 34 282 24 c 0,35,36
 282 -6 282 -6 209 -6 c 0,37,38
 159 -6 159 -6 119.5 24.5 c 128,-1,39
 80 55 80 55 80 132 c 2,0,-1
EndSplineSet
EndChar

StartChar: OE
Encoding: 338 338 197
Width: 1021
GlyphClass: 2
Flags: W
LayerCount: 2
Fore
SplineSet
57 352 m 128,-1,1
 57 527 57 527 135.5 616.5 c 128,-1,2
 214 706 214 706 361 706 c 128,-1,3
 508 706 508 706 585 624 c 1,4,-1
 585 670 l 2,5,6
 585 700 585 700 615 700 c 2,7,-1
 967 700 l 2,8,9
 987 700 987 700 987 670 c 2,10,-1
 987 654 l 2,11,12
 987 624 987 624 967 624 c 2,13,-1
 673 624 l 1,14,-1
 673 396 l 1,15,-1
 937 396 l 2,16,17
 957 396 957 396 957 366 c 2,18,-1
 957 350 l 2,19,20
 957 320 957 320 937 320 c 2,21,-1
 673 320 l 1,22,-1
 673 76 l 1,23,-1
 968 76 l 2,24,25
 988 76 988 76 988 46 c 2,26,-1
 988 30 l 2,27,28
 988 0 988 0 968 0 c 2,29,-1
 615 0 l 2,30,31
 585 0 585 0 585 30 c 2,32,-1
 585 78 l 1,33,34
 508 -6 508 -6 361.5 -6 c 128,-1,35
 215 -6 215 -6 136 85.5 c 128,-1,0
 57 177 57 177 57 352 c 128,-1,1
365 70 m 128,-1,37
 471 70 471 70 527 142 c 128,-1,38
 583 214 583 214 583 351.5 c 128,-1,39
 583 489 583 489 527 559.5 c 128,-1,40
 471 630 471 630 365 630 c 128,-1,41
 259 630 259 630 203.5 559.5 c 128,-1,42
 148 489 148 489 148 351.5 c 128,-1,43
 148 214 148 214 203.5 142 c 128,-1,36
 259 70 259 70 365 70 c 128,-1,37
EndSplineSet
EndChar

StartChar: oe
Encoding: 339 339 198
Width: 871
GlyphClass: 2
Flags: W
LayerCount: 2
Fore
SplineSet
114.5 62 m 128,-1,1
 55 130 55 130 55 259.5 c 128,-1,2
 55 389 55 389 115 459 c 128,-1,3
 175 529 175 529 282 529 c 128,-1,4
 389 529 389 529 446 470 c 1,5,6
 505 529 505 529 608.5 529 c 128,-1,7
 712 529 712 529 764 462.5 c 128,-1,8
 816 396 816 396 816 268 c 0,9,10
 816 259 816 259 804 243 c 128,-1,11
 792 227 792 227 783 227 c 2,12,-1
 467 227 l 1,13,14
 473 144 473 144 510 105 c 128,-1,15
 547 66 547 66 621 66 c 0,16,17
 689 66 689 66 746 98 c 0,18,19
 765 108 765 108 767 108 c 0,20,21
 777 108 777 108 789.5 88 c 128,-1,22
 802 68 802 68 802 58 c 0,23,24
 802 38 802 38 747.5 16 c 128,-1,25
 693 -6 693 -6 622 -6 c 0,26,27
 505 -6 505 -6 446 50 c 1,28,29
 388 -6 388 -6 281 -6 c 128,-1,0
 174 -6 174 -6 114.5 62 c 128,-1,1
727 299 m 1,30,31
 727 457 727 457 607 457 c 0,32,33
 478 457 478 457 467 299 c 1,34,-1
 727 299 l 1,30,31
177 113.5 m 128,-1,36
 211 66 211 66 287.5 66 c 128,-1,37
 364 66 364 66 398 122 c 1,38,39
 377 178 377 178 377 259 c 128,-1,40
 377 340 377 340 399 397 c 1,41,42
 365 457 365 457 288 457 c 128,-1,43
 211 457 211 457 177 409.5 c 128,-1,44
 143 362 143 362 143 261.5 c 128,-1,35
 143 161 143 161 177 113.5 c 128,-1,36
EndSplineSet
EndChar

StartChar: Scaron
Encoding: 352 352 199
Width: 500
GlyphClass: 2
Flags: W
LayerCount: 2
Fore
SplineSet
37 67 m 0,0,1
 37 79 37 79 50.5 100 c 128,-1,2
 64 121 64 121 72 121 c 0,3,4
 75 121 75 121 97 108.5 c 128,-1,5
 119 96 119 96 159 83 c 128,-1,6
 199 70 199 70 250.5 70 c 128,-1,7
 302 70 302 70 338.5 103 c 128,-1,8
 375 136 375 136 375 187 c 128,-1,9
 375 238 375 238 341.5 268 c 128,-1,10
 308 298 308 298 260.5 315.5 c 128,-1,11
 213 333 213 333 165 353 c 128,-1,12
 117 373 117 373 83.5 415 c 128,-1,13
 50 457 50 457 50 522 c 0,14,15
 50 605 50 605 111 655.5 c 128,-1,16
 172 706 172 706 272 706 c 0,17,18
 321 706 321 706 377 688 c 128,-1,19
 433 670 433 670 433 645 c 0,20,21
 433 634 433 634 420.5 613 c 128,-1,22
 408 592 408 592 401 592 c 0,23,24
 397 592 397 592 380 602 c 0,25,26
 329 630 329 630 270 630 c 128,-1,27
 211 630 211 630 176 601.5 c 128,-1,28
 141 573 141 573 141 518 c 128,-1,29
 141 463 141 463 206 432 c 0,30,31
 234 419 234 419 269 406.5 c 128,-1,32
 304 394 304 394 338.5 377.5 c 128,-1,33
 373 361 373 361 401.5 339 c 128,-1,34
 430 317 430 317 448 279 c 128,-1,35
 466 241 466 241 466 191 c 0,36,37
 466 99 466 99 406 46.5 c 128,-1,38
 346 -6 346 -6 254 -6 c 128,-1,39
 162 -6 162 -6 99.5 19 c 128,-1,40
 37 44 37 44 37 67 c 0,0,1
245 762 m 2,41,42
 214 762 214 762 199 784 c 2,43,-1
 143 872 l 2,44,45
 137 882 137 882 137 890 c 0,46,47
 137 904 137 904 159.5 904 c 128,-1,48
 182 904 182 904 196 891 c 1,49,-1
 257 817 l 1,50,-1
 320 891 l 1,51,52
 334 904 334 904 356.5 904 c 128,-1,53
 379 904 379 904 379 889 c 0,54,55
 379 881 379 881 373 872 c 2,56,-1
 316 784 l 2,57,58
 301 762 301 762 270 762 c 2,59,-1
 245 762 l 2,41,42
EndSplineSet
EndChar

StartChar: scaron
Encoding: 353 353 200
Width: 413
GlyphClass: 2
Flags: W
LayerCount: 2
Fore
SplineSet
35 54 m 0,0,1
 35 64 35 64 47.5 84 c 128,-1,2
 60 104 60 104 70 104 c 0,3,4
 71 104 71 104 86 94.5 c 128,-1,5
 101 85 101 85 129 75.5 c 128,-1,6
 157 66 157 66 196.5 66 c 128,-1,7
 236 66 236 66 261.5 88.5 c 128,-1,8
 287 111 287 111 287 149.5 c 128,-1,9
 287 188 287 188 264.5 209.5 c 128,-1,10
 242 231 242 231 175 250 c 128,-1,11
 108 269 108 269 78 298.5 c 128,-1,12
 48 328 48 328 48 388 c 128,-1,13
 48 448 48 448 94 488.5 c 128,-1,14
 140 529 140 529 214 529 c 0,15,16
 265 529 265 529 305 516 c 128,-1,17
 345 503 345 503 345 487 c 0,18,19
 345 474 345 474 333.5 453.5 c 128,-1,20
 322 433 322 433 313 433 c 0,21,22
 312 433 312 433 300 439 c 0,23,24
 266 457 266 457 223.5 457 c 128,-1,25
 181 457 181 457 157.5 439.5 c 128,-1,26
 134 422 134 422 134 394 c 128,-1,27
 134 366 134 366 151.5 350 c 128,-1,28
 169 334 169 334 211 321 c 0,29,30
 305 292 305 292 338.5 257.5 c 128,-1,31
 372 223 372 223 372 153.5 c 128,-1,32
 372 84 372 84 322.5 39 c 128,-1,33
 273 -6 273 -6 204 -6 c 128,-1,34
 135 -6 135 -6 85 14.5 c 128,-1,35
 35 35 35 35 35 54 c 0,0,1
198 582 m 2,36,37
 167 582 167 582 152 604 c 2,38,-1
 96 692 l 2,39,40
 90 702 90 702 90 710 c 0,41,42
 90 724 90 724 112.5 724 c 128,-1,43
 135 724 135 724 149 711 c 1,44,-1
 210 637 l 1,45,-1
 273 711 l 1,46,47
 287 724 287 724 309.5 724 c 128,-1,48
 332 724 332 724 332 709 c 0,49,50
 332 701 332 701 326 692 c 2,51,-1
 269 604 l 2,52,53
 254 582 254 582 223 582 c 2,54,-1
 198 582 l 2,36,37
EndSplineSet
EndChar

StartChar: Ydieresis
Encoding: 376 376 201
Width: 559
GlyphClass: 2
Flags: W
LayerCount: 2
Fore
SplineSet
235 20 m 2,0,-1
 235 359 l 1,1,-1
 26 667 l 2,2,3
 18 678 18 678 18 685 c 0,4,5
 18 702 18 702 64 702 c 2,6,-1
 75 702 l 2,7,8
 108 702 108 702 118 687 c 2,9,-1
 282 441 l 1,10,-1
 450 688 l 2,11,12
 459 702 459 702 500 702 c 128,-1,13
 541 702 541 702 541 685 c 0,14,15
 541 681 541 681 533 667 c 1,16,-1
 323 356 l 1,17,-1
 323 20 l 2,18,19
 323 -2 323 -2 283 -2 c 2,20,-1
 275 -2 l 2,21,22
 235 -2 235 -2 235 20 c 2,0,-1
349 787 m 2,23,24
 309 787 309 787 309 809 c 2,25,-1
 309 860 l 2,26,27
 309 882 309 882 349 882 c 2,28,-1
 353 882 l 2,29,30
 393 882 393 882 393 860 c 2,31,-1
 393 809 l 2,32,33
 393 787 393 787 353 787 c 2,34,-1
 349 787 l 2,23,24
205 787 m 2,35,36
 165 787 165 787 165 809 c 2,37,-1
 165 860 l 2,38,39
 165 882 165 882 205 882 c 2,40,-1
 209 882 l 2,41,42
 249 882 249 882 249 860 c 2,43,-1
 249 809 l 2,44,45
 249 787 249 787 209 787 c 2,46,-1
 205 787 l 2,35,36
EndSplineSet
EndChar

StartChar: Zcaron
Encoding: 381 381 202
Width: 616
GlyphClass: 2
Flags: W
LayerCount: 2
Fore
SplineSet
62 0 m 2,0,1
 55 0 55 0 46.5 19 c 128,-1,2
 38 38 38 38 38 49 c 128,-1,3
 38 60 38 60 41 65 c 2,4,-1
 451 624 l 1,5,-1
 91 624 l 2,6,7
 71 624 71 624 71 658 c 2,8,-1
 71 666 l 2,9,10
 71 700 71 700 91 700 c 2,11,-1
 549 700 l 2,12,13
 555 700 555 700 563 681 c 128,-1,14
 571 662 571 662 571 651 c 128,-1,15
 571 640 571 640 568 635 c 2,16,-1
 158 76 l 1,17,-1
 549 76 l 2,18,19
 569 76 569 76 569 42 c 2,20,-1
 569 34 l 2,21,22
 569 0 569 0 549 0 c 2,23,-1
 62 0 l 2,0,1
295 763 m 2,24,25
 264 763 264 763 249 785 c 2,26,-1
 193 873 l 2,27,28
 187 884 187 884 187 891 c 0,29,30
 187 905 187 905 209.5 905 c 128,-1,31
 232 905 232 905 246 892 c 1,32,-1
 307 818 l 1,33,-1
 370 892 l 1,34,35
 384 905 384 905 406.5 905 c 128,-1,36
 429 905 429 905 429 890 c 0,37,38
 429 882 429 882 423 873 c 2,39,-1
 366 785 l 2,40,41
 351 763 351 763 320 763 c 2,42,-1
 295 763 l 2,24,25
EndSplineSet
EndChar

StartChar: zcaron
Encoding: 382 382 203
Width: 489
GlyphClass: 2
Flags: W
LayerCount: 2
Fore
SplineSet
59 0 m 2,0,1
 53 0 53 0 45 18 c 128,-1,2
 37 36 37 36 37 46.5 c 128,-1,3
 37 57 37 57 40 62 c 2,4,-1
 333 451 l 1,5,-1
 77 451 l 2,6,7
 57 451 57 451 57 481 c 2,8,-1
 57 493 l 2,9,10
 57 523 57 523 77 523 c 2,11,-1
 428 523 l 2,12,13
 435 523 435 523 441.5 504.5 c 128,-1,14
 448 486 448 486 448 475.5 c 128,-1,15
 448 465 448 465 446 461 c 2,16,-1
 154 72 l 1,17,-1
 429 72 l 2,18,19
 449 72 449 72 449 42 c 2,20,-1
 449 30 l 2,21,22
 449 0 449 0 429 0 c 2,23,-1
 59 0 l 2,0,1
241 582 m 2,24,25
 210 582 210 582 195 604 c 2,26,-1
 139 692 l 2,27,28
 133 702 133 702 133 710 c 0,29,30
 133 724 133 724 155.5 724 c 128,-1,31
 178 724 178 724 192 711 c 1,32,-1
 253 637 l 1,33,-1
 316 711 l 1,34,35
 330 724 330 724 352.5 724 c 128,-1,36
 375 724 375 724 375 709 c 0,37,38
 375 701 375 701 369 692 c 2,39,-1
 312 604 l 2,40,41
 297 582 297 582 266 582 c 2,42,-1
 241 582 l 2,24,25
EndSplineSet
EndChar

StartChar: florin
Encoding: 402 402 204
Width: 332
GlyphClass: 2
Flags: W
LayerCount: 2
Fore
SplineSet
63 441 m 2,0,1
 46 441 46 441 46 460 c 0,2,3
 46 467 46 467 49 483 c 0,4,5
 53 513 53 513 73 513 c 2,6,-1
 113 513 l 1,7,-1
 127 618 l 2,8,9
 138 697 138 697 181.5 726.5 c 128,-1,10
 225 756 225 756 276 756 c 0,11,12
 345 756 345 756 345 726 c 1,13,14
 333 679 333 679 317 679 c 0,15,16
 315 679 315 679 303.5 681.5 c 128,-1,17
 292 684 292 684 270.5 684 c 128,-1,18
 249 684 249 684 232.5 669.5 c 128,-1,19
 216 655 216 655 210 610 c 2,20,-1
 197 513 l 1,21,-1
 284 513 l 2,22,23
 301 513 301 513 301 493 c 0,24,25
 301 466 301 466 292.5 453.5 c 128,-1,26
 284 441 284 441 274 441 c 2,27,-1
 187 441 l 1,28,-1
 99 -185 l 2,29,30
 96 -207 96 -207 56 -207 c 2,31,-1
 52 -207 l 2,32,33
 15 -207 15 -207 15 -185 c 1,34,-1
 103 441 l 1,35,-1
 63 441 l 2,0,1
EndSplineSet
EndChar

StartChar: circumflex
Encoding: 710 710 205
Width: 320
GlyphClass: 2
Flags: W
LayerCount: 2
Fore
SplineSet
95 597 m 1,0,1
 81 584 81 584 58.5 584 c 128,-1,2
 36 584 36 584 36 598 c 0,3,4
 36 606 36 606 42 616 c 2,5,-1
 98 704 l 2,6,7
 113 726 113 726 144 726 c 2,8,-1
 169 726 l 2,9,10
 200 726 200 726 215 704 c 2,11,-1
 272 616 l 2,12,13
 278 607 278 607 278 599 c 0,14,15
 278 584 278 584 255.5 584 c 128,-1,16
 233 584 233 584 219 597 c 1,17,-1
 156 671 l 1,18,-1
 95 597 l 1,0,1
EndSplineSet
EndChar

StartChar: caron
Encoding: 711 711 206
Width: 320
GlyphClass: 2
Flags: W
LayerCount: 2
Fore
SplineSet
143 582 m 2,0,1
 112 582 112 582 97 604 c 2,2,-1
 41 692 l 2,3,4
 35 702 35 702 35 710 c 0,5,6
 35 724 35 724 57.5 724 c 128,-1,7
 80 724 80 724 94 711 c 1,8,-1
 155 637 l 1,9,-1
 218 711 l 1,10,11
 232 724 232 724 254.5 724 c 128,-1,12
 277 724 277 724 277 709 c 0,13,14
 277 701 277 701 271 692 c 2,15,-1
 214 604 l 2,16,17
 199 582 199 582 168 582 c 2,18,-1
 143 582 l 2,0,1
EndSplineSet
EndChar

StartChar: breve
Encoding: 728 728 207
Width: 320
GlyphClass: 2
Flags: W
LayerCount: 2
Fore
SplineSet
259 615.5 m 128,-1,1
 216 585 216 585 157.5 585 c 128,-1,2
 99 585 99 585 56 615.5 c 128,-1,3
 13 646 13 646 13 700 c 0,4,5
 13 715 13 715 28 715 c 0,6,7
 39 715 39 715 41 710 c 0,8,9
 47 696 47 696 50 690 c 0,10,11
 71 651 71 651 158 651 c 0,12,13
 253 651 253 651 268 698 c 0,14,15
 273 712 273 712 277.5 713.5 c 128,-1,16
 282 715 282 715 287 715 c 0,17,18
 302 715 302 715 302 700 c 0,19,0
 302 646 302 646 259 615.5 c 128,-1,1
EndSplineSet
EndChar

StartChar: dotaccent
Encoding: 729 729 208
Width: 320
GlyphClass: 2
Flags: W
LayerCount: 2
Fore
SplineSet
160 607 m 2,0,1
 120 607 120 607 120 629 c 2,2,-1
 120 680 l 2,3,4
 120 702 120 702 160 702 c 2,5,-1
 164 702 l 2,6,7
 204 702 204 702 204 680 c 2,8,-1
 204 629 l 2,9,10
 204 607 204 607 164 607 c 2,11,-1
 160 607 l 2,0,1
EndSplineSet
EndChar

StartChar: ring
Encoding: 730 730 209
Width: 320
GlyphClass: 2
Flags: W
LayerCount: 2
Fore
SplineSet
160 564 m 128,-1,1
 125 564 125 564 100.5 588.5 c 128,-1,2
 76 613 76 613 76 648 c 128,-1,3
 76 683 76 683 100.5 708 c 128,-1,4
 125 733 125 733 160 733 c 128,-1,5
 195 733 195 733 220 708 c 128,-1,6
 245 683 245 683 245 648 c 128,-1,7
 245 613 245 613 220 588.5 c 128,-1,0
 195 564 195 564 160 564 c 128,-1,1
160 599 m 128,-1,9
 181 599 181 599 195.5 613 c 128,-1,10
 210 627 210 627 210 648 c 128,-1,11
 210 669 210 669 195.5 683.5 c 128,-1,12
 181 698 181 698 160 698 c 128,-1,13
 139 698 139 698 125 683.5 c 128,-1,14
 111 669 111 669 111 648 c 128,-1,15
 111 627 111 627 125 613 c 128,-1,8
 139 599 139 599 160 599 c 128,-1,9
EndSplineSet
EndChar

StartChar: ogonek
Encoding: 731 731 210
Width: 320
GlyphClass: 2
Flags: W
LayerCount: 2
Fore
SplineSet
183 -113 m 1,0,-1
 235 -103 l 1,1,2
 254 -103 254 -103 254 -128 c 2,3,-1
 254 -137 l 2,4,5
 254 -183 254 -183 172 -183 c 0,6,7
 135 -183 135 -183 109 -171.5 c 128,-1,8
 83 -160 83 -160 72 -142 c 0,9,10
 54 -110 54 -110 54 -89.5 c 128,-1,11
 54 -69 54 -69 56 -55 c 128,-1,12
 58 -41 58 -41 63 -24.5 c 128,-1,13
 68 -8 68 -8 79.5 3 c 128,-1,14
 91 14 91 14 106 14 c 2,15,-1
 115 14 l 2,16,17
 133 14 133 14 133 -1 c 0,18,19
 133 -7 133 -7 127 -28 c 128,-1,20
 121 -49 121 -49 121 -62 c 0,21,22
 121 -113 121 -113 183 -113 c 1,0,-1
EndSplineSet
EndChar

StartChar: tilde
Encoding: 732 732 211
Width: 365
GlyphClass: 2
Flags: W
LayerCount: 2
Fore
SplineSet
165 625 m 128,-1,1
 124 635 124 635 111 635 c 128,-1,2
 98 635 98 635 81 628.5 c 128,-1,3
 64 622 64 622 53 622 c 128,-1,4
 42 622 42 622 33 632.5 c 128,-1,5
 24 643 24 643 24 652 c 0,6,7
 24 671 24 671 58 689.5 c 128,-1,8
 92 708 92 708 126 708 c 128,-1,9
 160 708 160 708 200.5 698 c 128,-1,10
 241 688 241 688 257 688 c 128,-1,11
 273 688 273 688 288.5 694.5 c 128,-1,12
 304 701 304 701 313.5 701 c 128,-1,13
 323 701 323 701 332.5 690 c 128,-1,14
 342 679 342 679 342 671 c 0,15,16
 342 652 342 652 308 633.5 c 128,-1,17
 274 615 274 615 240 615 c 128,-1,0
 206 615 206 615 165 625 c 128,-1,1
EndSplineSet
EndChar

StartChar: hungarumlaut
Encoding: 733 733 212
Width: 384
GlyphClass: 2
Flags: W
LayerCount: 2
Fore
SplineSet
364.5 720 m 128,-1,1
 355 708 355 708 325 674 c 128,-1,2
 295 640 295 640 279.5 622.5 c 128,-1,3
 264 605 264 605 235 605 c 128,-1,4
 206 605 206 605 206 615 c 128,-1,5
 206 625 206 625 264 726 c 0,6,7
 279 752 279 752 326.5 752 c 128,-1,8
 374 752 374 752 374 739 c 0,9,0
 374 732 374 732 364.5 720 c 128,-1,1
217.5 720 m 128,-1,11
 208 708 208 708 178 674 c 128,-1,12
 148 640 148 640 132.5 622.5 c 128,-1,13
 117 605 117 605 88 605 c 128,-1,14
 59 605 59 605 59 615 c 128,-1,15
 59 625 59 625 117 726 c 0,16,17
 132 752 132 752 179.5 752 c 128,-1,18
 227 752 227 752 227 739 c 0,19,10
 227 732 227 732 217.5 720 c 128,-1,11
EndSplineSet
EndChar

StartChar: pi
Encoding: 960 960 213
Width: 616
GlyphClass: 2
Flags: W
LayerCount: 2
Fore
SplineSet
66 19 m 0,0,1
 66 22 66 22 68 28 c 0,2,3
 95 110 95 110 115 230 c 128,-1,4
 135 350 135 350 140 451 c 1,5,6
 94 451 94 451 65 446.5 c 128,-1,7
 36 442 36 442 34 442 c 0,8,9
 14 442 14 442 14 479 c 0,10,11
 14 523 14 523 162 523 c 2,12,-1
 568 523 l 2,13,14
 592 523 592 523 592 504 c 0,15,16
 592 499 592 499 589 473 c 0,17,18
 587 451 587 451 558 451 c 2,19,-1
 503 451 l 1,20,-1
 503 154 l 2,21,22
 503 115 503 115 507.5 72.5 c 128,-1,23
 512 30 512 30 512 23 c 0,24,25
 512 -2 512 -2 486 -2 c 2,26,-1
 462 -2 l 2,27,28
 434 -2 434 -2 426.5 28.5 c 128,-1,29
 419 59 419 59 419 146 c 2,30,-1
 419 451 l 1,31,-1
 224 451 l 1,32,33
 219 352 219 352 198 225 c 128,-1,34
 177 98 177 98 151 23 c 0,35,36
 142 -2 142 -2 117 -2 c 2,37,-1
 94 -2 l 2,38,39
 66 -2 66 -2 66 19 c 0,0,1
EndSplineSet
EndChar

StartChar: endash
Encoding: 8211 8211 214
Width: 500
GlyphClass: 2
Flags: W
LayerCount: 2
Fore
SplineSet
20 230 m 2,0,1
 0 230 0 230 0 260 c 2,2,-1
 0 270 l 2,3,4
 0 300 0 300 20 300 c 2,5,-1
 480 300 l 2,6,7
 500 300 500 300 500 270 c 2,8,-1
 500 260 l 2,9,10
 500 230 500 230 480 230 c 2,11,-1
 20 230 l 2,0,1
EndSplineSet
EndChar

StartChar: emdash
Encoding: 8212 8212 215
Width: 1000
GlyphClass: 2
Flags: W
LayerCount: 2
Fore
SplineSet
20 230 m 2,0,1
 0 230 0 230 0 260 c 2,2,-1
 0 270 l 2,3,4
 0 300 0 300 20 300 c 2,5,-1
 980 300 l 2,6,7
 1000 300 1000 300 1000 270 c 2,8,-1
 1000 260 l 2,9,10
 1000 230 1000 230 980 230 c 2,11,-1
 20 230 l 2,0,1
EndSplineSet
EndChar

StartChar: quoteleft
Encoding: 8216 8216 216
Width: 212
GlyphClass: 2
Flags: W
LayerCount: 2
Fore
SplineSet
98 515 m 2,0,1
 58 515 58 515 58 543 c 0,2,3
 58 624 58 624 94.5 681.5 c 128,-1,4
 131 739 131 739 160.5 739 c 128,-1,5
 190 739 190 739 190 724 c 0,6,7
 190 718 190 718 181 700 c 0,8,9
 147 635 147 635 147 547 c 0,10,11
 147 515 147 515 107 515 c 2,12,-1
 98 515 l 2,0,1
EndSplineSet
EndChar

StartChar: quoteright
Encoding: 8217 8217 217
Width: 212
GlyphClass: 2
Flags: W
LayerCount: 2
Fore
SplineSet
127.5 587.5 m 128,-1,1
 91 530 91 530 61.5 530 c 128,-1,2
 32 530 32 530 32 545 c 0,3,4
 32 551 32 551 41 569 c 0,5,6
 75 637 75 637 75 722 c 0,7,8
 75 754 75 754 115 754 c 2,9,-1
 124 754 l 2,10,11
 164 754 164 754 164 726 c 0,12,0
 164 645 164 645 127.5 587.5 c 128,-1,1
EndSplineSet
EndChar

StartChar: quotesinglbase
Encoding: 8218 8218 218
Width: 198
GlyphClass: 2
Flags: W
LayerCount: 2
Fore
SplineSet
55 76 m 0,0,1
 55 108 55 108 95 108 c 2,2,-1
 104 108 l 2,3,4
 144 108 144 108 144 80 c 0,5,6
 144 -1 144 -1 107.5 -58.5 c 128,-1,7
 71 -116 71 -116 41.5 -116 c 128,-1,8
 12 -116 12 -116 12 -101 c 0,9,10
 12 -95 12 -95 21 -77 c 0,11,12
 55 -9 55 -9 55 76 c 0,0,1
EndSplineSet
EndChar

StartChar: quotedblleft
Encoding: 8220 8220 219
Width: 350
GlyphClass: 2
Flags: W
LayerCount: 2
Fore
SplineSet
219 515 m 2,0,1
 179 515 179 515 179 543 c 0,2,3
 179 624 179 624 215.5 681.5 c 128,-1,4
 252 739 252 739 281.5 739 c 128,-1,5
 311 739 311 739 311 724 c 0,6,7
 311 718 311 718 302 700 c 0,8,9
 268 635 268 635 268 547 c 0,10,11
 268 515 268 515 228 515 c 2,12,-1
 219 515 l 2,0,1
80 515 m 2,13,14
 40 515 40 515 40 543 c 0,15,16
 40 624 40 624 76.5 681.5 c 128,-1,17
 113 739 113 739 142.5 739 c 128,-1,18
 172 739 172 739 172 724 c 0,19,20
 172 718 172 718 163 700 c 0,21,22
 129 635 129 635 129 547 c 0,23,24
 129 515 129 515 89 515 c 2,25,-1
 80 515 l 2,13,14
EndSplineSet
EndChar

StartChar: quotedblright
Encoding: 8221 8221 220
Width: 350
GlyphClass: 2
Flags: W
LayerCount: 2
Fore
SplineSet
268.5 587.5 m 128,-1,1
 232 530 232 530 202.5 530 c 128,-1,2
 173 530 173 530 173 545 c 0,3,4
 173 551 173 551 182 569 c 0,5,6
 216 637 216 637 216 722 c 0,7,8
 216 754 216 754 256 754 c 2,9,-1
 265 754 l 2,10,11
 305 754 305 754 305 726 c 0,12,0
 305 645 305 645 268.5 587.5 c 128,-1,1
129.5 587.5 m 128,-1,14
 93 530 93 530 63.5 530 c 128,-1,15
 34 530 34 530 34 545 c 0,16,17
 34 551 34 551 43 569 c 0,18,19
 77 637 77 637 77 722 c 0,20,21
 77 754 77 754 117 754 c 2,22,-1
 126 754 l 2,23,24
 166 754 166 754 166 726 c 0,25,13
 166 645 166 645 129.5 587.5 c 128,-1,14
EndSplineSet
EndChar

StartChar: quotedblbase
Encoding: 8222 8222 221
Width: 336
GlyphClass: 2
Flags: W
LayerCount: 2
Fore
SplineSet
194 76 m 0,0,1
 194 108 194 108 234 108 c 2,2,-1
 243 108 l 2,3,4
 283 108 283 108 283 80 c 0,5,6
 283 -1 283 -1 246.5 -58.5 c 128,-1,7
 210 -116 210 -116 180.5 -116 c 128,-1,8
 151 -116 151 -116 151 -101 c 0,9,10
 151 -95 151 -95 160 -77 c 0,11,12
 194 -9 194 -9 194 76 c 0,0,1
55 76 m 0,13,14
 55 108 55 108 95 108 c 2,15,-1
 104 108 l 2,16,17
 144 108 144 108 144 80 c 0,18,19
 144 -1 144 -1 107.5 -58.5 c 128,-1,20
 71 -116 71 -116 41.5 -116 c 128,-1,21
 12 -116 12 -116 12 -101 c 0,22,23
 12 -95 12 -95 21 -77 c 0,24,25
 55 -9 55 -9 55 76 c 0,13,14
EndSplineSet
EndChar

